%
M48
M72
T01C0.01181
T02C0.02362
T03C0.02559
T04C0.03150
T05C0.03543
T06C0.03937
T07C0.11024
%
T01
X33858Y56693
X35433Y43307
X107874Y81496
X94882Y81496
X61811Y68898
X94685Y68898
X35433Y23228
X54331Y23622
X70079Y23622
X35433Y30709
X35433Y63780
X78740Y47244
X50787Y39370
X50787Y31496
X88583Y24409
X43307Y50394
X107874Y27559
X120866Y27559
X114173Y27559
X127559Y57480
X132283Y57480
X132283Y52756
X97638Y47244
X106299Y66929
X145276Y74803
X148819Y77953
X159055Y53150
X118110Y94094
X149606Y124803
X149606Y111811
X172835Y114173
X172835Y106299
X172835Y98425
X101181Y129134
X70866Y129134
X109843Y108268
X103937Y92520
X41339Y90157
X66535Y98819
X204331Y149606
X210236Y114173
X201575Y89370
X242913Y100394
X256299Y177165
X255906Y118110
X257874Y147638
X244094Y164567
X258661Y191732
X258661Y70079
X292126Y48425
X266929Y43307
X232677Y57087
X251181Y58661
X97638Y239370
X67717Y239370
X70472Y216142
X120472Y208661
X166535Y239370
X185039Y57087
X201181Y122047
X200787Y166929
X204331Y192913
X85433Y169291
X29921Y224803
X5118Y237008
X5118Y203937
X9055Y166929
X6693Y185827
X5118Y129921
X5118Y122047
X51575Y151969
X51575Y172047
X13780Y113780
X37402Y113780
X11024Y85827
X76378Y78740
X55118Y98819
X31496Y135827
X127559Y52756
X232283Y159449
X244488Y216142
X250000Y207087
X56299Y196850
X53543Y46063
X66142Y48031
X11811Y52362
X22441Y52362
X11417Y40551
X22441Y40551
X87795Y90551
X81496Y90551
X140945Y211811
X135433Y201969
X134646Y185433
X79921Y64173
X98425Y64173
X169685Y211811
X169685Y220472
X83465Y60236
X90157Y60236
X130709Y182283
X130709Y201969
X145276Y216142
X47638Y83071
X41339Y83071
X93307Y55906
X64567Y58268
X90945Y51575
X66142Y52756
X235827Y149606
X222441Y149606
X240551Y53937
X224409Y53937
X215748Y153543
X215748Y182283
X199606Y118504
X176772Y118504
X222047Y192913
X225984Y209843
X17323Y158268
X17323Y142126
X49606Y142126
X75591Y142126
X114173Y133858
X125591Y98425
X123622Y112992
X183465Y17323
X83465Y211417
X70472Y224409
X164567Y17323
X154724Y27165
X46063Y106299
X94488Y103150
X98031Y112205
X46063Y115748
X94488Y107874
X46063Y111024
X122047Y66929
X122047Y79134
X126772Y87008
X146850Y83071
X209843Y66142
X183071Y66142
X147638Y101181
X147638Y88583
X94488Y116929
X77953Y116929
X32283Y125984
X64567Y128740
X37402Y124803
X70472Y124803
X67717Y90551
X51181Y90551
X85433Y125984
X51181Y95276
X24803Y93307
X24803Y98819
X48819Y101181
X37402Y98819
X100787Y119291
X65748Y120866
X68110Y117717
X40551Y120472
X154724Y242126
X169685Y242126
X102362Y235039
X59055Y239764
X55512Y209449
X55512Y217323
X155118Y168898
X122047Y168898
X101575Y173228
X57087Y177165
X11417Y178740
X11417Y171260
X155118Y173622
X122047Y173622
X99606Y183858
X72835Y192913
X38976Y148819
X56299Y148819
X97244Y151969
X80315Y155118
X56299Y155118
X155118Y164173
X122047Y164173
X102362Y161417
X57087Y161417
X57087Y169291
X80315Y169291
X155118Y178346
X116535Y178346
X98031Y177165
X57087Y185039
X154724Y232677
X218110Y232677
X311024Y112205
X319764Y80630
X150787Y236614
X214173Y236614
X315354Y91732
X315354Y107480
X186220Y194488
X168898Y194488
X191732Y188976
X154724Y155118
X175984Y155118
X152362Y187795
X152362Y199606
X152362Y151181
X178740Y151181
X149213Y194094
X149213Y185433
X154724Y224803
X225984Y224803
X306299Y93307
X302362Y120472
X150787Y228740
X222047Y228740
X306693Y100000
X306693Y116142
X150000Y147244
X181496Y147244
X146063Y182283
X146063Y191339
X262205Y166535
X272441Y166535
X178346Y207087
X155118Y207087
X104724Y202362
X104724Y185827
X56693Y137008
X82283Y138583
X262205Y161417
X268504Y161417
X181102Y202756
X149606Y207087
X110236Y202362
X110236Y185827
X62598Y135827
X87402Y137008
X219685Y79134
X240157Y79134
X190157Y135433
X140157Y135433
X96850Y134252
X67717Y131890
X256693Y170472
X267717Y170472
X155512Y190551
X181102Y190551
X244488Y144488
X218898Y138976
X239764Y145669
X210630Y142913
X239764Y141732
X206299Y140157
X238189Y136220
X210630Y136220
X240157Y133465
X207874Y133465
X240157Y129921
X207874Y129921
X242126Y126772
X210630Y126772
X244488Y123228
X208268Y123228
X227559Y83858
X219685Y83858
X196457Y150787
X196457Y162992
X187402Y178346
X195276Y178346
X225984Y110630
X233858Y110630
X222835Y104724
X213780Y104724
X196457Y146850
X192913Y167323
X51575Y135827
X36614Y135827
X255118Y156693
X276378Y156693
X2756Y196850
X4331Y140945
X187008Y139370
X145276Y139370
X138583Y182283
X138583Y196850
X184252Y143307
X147638Y143307
X142520Y185433
X142520Y199213
T02
X9843Y64252
X9843Y30236
X26299Y64252
X26299Y30236
T03
X24331Y35866
X24331Y58622
T04
X88976Y7874
X78976Y7874
X188976Y7874
X198976Y7874
X208976Y7874
X218976Y7874
X228976Y7874
X238976Y7874
X248976Y7874
X258976Y7874
X268976Y7874
X278976Y7874
X288976Y7874
X298976Y7874
X308976Y7874
X318976Y7874
X328976Y7874
X338976Y7874
X28976Y7874
X68976Y7874
X58976Y7874
X48976Y7874
X38976Y7874
T05
X17717Y220472
X5906Y220472
T06
X21654Y21654
X21654Y240157
X352362Y21654
X352362Y240157
T07
X9843Y9843
X364173Y9843
X9843Y261811
X364173Y261811
M30
