G75*
%MOIN*%
%OFA0B0*%
%FSLAX25Y25*%
%IPPOS*%
%LPD*%
%AMOC8*
5,1,8,0,0,1.08239X$1,22.5*
%
%ADD10C,0.00000*%
%ADD11C,0.01000*%
%ADD12C,0.01100*%
%ADD13C,0.00600*%
%ADD14C,0.00800*%
%ADD15C,0.00500*%
%ADD16C,0.00945*%
%ADD17C,0.02200*%
%ADD18C,0.00787*%
%ADD19C,0.01200*%
%ADD20R,0.01969X0.01969*%
%ADD21C,0.00276*%
%ADD22R,0.02362X0.07087*%
%ADD23R,0.02362X0.04331*%
%ADD24C,0.00806*%
%ADD25R,0.01800X0.03000*%
%ADD26R,0.03000X0.01800*%
%ADD27C,0.01600*%
%ADD28C,0.01682*%
%ADD29C,0.01181*%
D10*
X0029238Y0009063D02*
X0029238Y0272843D01*
X0029240Y0272967D01*
X0029246Y0273090D01*
X0029255Y0273214D01*
X0029269Y0273336D01*
X0029286Y0273459D01*
X0029308Y0273581D01*
X0029333Y0273702D01*
X0029362Y0273822D01*
X0029394Y0273941D01*
X0029431Y0274060D01*
X0029471Y0274177D01*
X0029514Y0274292D01*
X0029562Y0274407D01*
X0029613Y0274519D01*
X0029667Y0274630D01*
X0029725Y0274740D01*
X0029786Y0274847D01*
X0029851Y0274953D01*
X0029919Y0275056D01*
X0029990Y0275157D01*
X0030064Y0275256D01*
X0030141Y0275353D01*
X0030222Y0275447D01*
X0030305Y0275538D01*
X0030391Y0275627D01*
X0030480Y0275713D01*
X0030571Y0275796D01*
X0030665Y0275877D01*
X0030762Y0275954D01*
X0030861Y0276028D01*
X0030962Y0276099D01*
X0031065Y0276167D01*
X0031171Y0276232D01*
X0031278Y0276293D01*
X0031388Y0276351D01*
X0031499Y0276405D01*
X0031611Y0276456D01*
X0031726Y0276504D01*
X0031841Y0276547D01*
X0031958Y0276587D01*
X0032077Y0276624D01*
X0032196Y0276656D01*
X0032316Y0276685D01*
X0032437Y0276710D01*
X0032559Y0276732D01*
X0032682Y0276749D01*
X0032804Y0276763D01*
X0032928Y0276772D01*
X0033051Y0276778D01*
X0033175Y0276780D01*
X0399317Y0276780D01*
X0399441Y0276778D01*
X0399564Y0276772D01*
X0399688Y0276763D01*
X0399810Y0276749D01*
X0399933Y0276732D01*
X0400055Y0276710D01*
X0400176Y0276685D01*
X0400296Y0276656D01*
X0400415Y0276624D01*
X0400534Y0276587D01*
X0400651Y0276547D01*
X0400766Y0276504D01*
X0400881Y0276456D01*
X0400993Y0276405D01*
X0401104Y0276351D01*
X0401214Y0276293D01*
X0401321Y0276232D01*
X0401427Y0276167D01*
X0401530Y0276099D01*
X0401631Y0276028D01*
X0401730Y0275954D01*
X0401827Y0275877D01*
X0401921Y0275796D01*
X0402012Y0275713D01*
X0402101Y0275627D01*
X0402187Y0275538D01*
X0402270Y0275447D01*
X0402351Y0275353D01*
X0402428Y0275256D01*
X0402502Y0275157D01*
X0402573Y0275056D01*
X0402641Y0274953D01*
X0402706Y0274847D01*
X0402767Y0274740D01*
X0402825Y0274630D01*
X0402879Y0274519D01*
X0402930Y0274407D01*
X0402978Y0274292D01*
X0403021Y0274177D01*
X0403061Y0274060D01*
X0403098Y0273941D01*
X0403130Y0273822D01*
X0403159Y0273702D01*
X0403184Y0273581D01*
X0403206Y0273459D01*
X0403223Y0273336D01*
X0403237Y0273214D01*
X0403246Y0273090D01*
X0403252Y0272967D01*
X0403254Y0272843D01*
X0403254Y0209850D01*
X0403255Y0209850D02*
X0403253Y0209764D01*
X0403248Y0209678D01*
X0403238Y0209593D01*
X0403225Y0209508D01*
X0403208Y0209424D01*
X0403188Y0209340D01*
X0403164Y0209258D01*
X0403136Y0209177D01*
X0403105Y0209096D01*
X0403071Y0209018D01*
X0403033Y0208941D01*
X0402991Y0208866D01*
X0402947Y0208792D01*
X0402899Y0208721D01*
X0402848Y0208651D01*
X0402794Y0208584D01*
X0402738Y0208520D01*
X0402678Y0208458D01*
X0402616Y0208398D01*
X0402552Y0208342D01*
X0402485Y0208288D01*
X0402415Y0208237D01*
X0402344Y0208189D01*
X0402271Y0208145D01*
X0402195Y0208103D01*
X0402118Y0208065D01*
X0402040Y0208031D01*
X0401959Y0208000D01*
X0401878Y0207972D01*
X0401796Y0207948D01*
X0401712Y0207928D01*
X0401628Y0207911D01*
X0401543Y0207898D01*
X0401458Y0207888D01*
X0401372Y0207883D01*
X0401286Y0207881D01*
X0401286Y0207882D02*
X0389474Y0207882D01*
X0389388Y0207880D01*
X0389302Y0207875D01*
X0389217Y0207865D01*
X0389132Y0207852D01*
X0389048Y0207835D01*
X0388964Y0207815D01*
X0388882Y0207791D01*
X0388801Y0207763D01*
X0388720Y0207732D01*
X0388642Y0207698D01*
X0388565Y0207660D01*
X0388490Y0207618D01*
X0388416Y0207574D01*
X0388345Y0207526D01*
X0388275Y0207475D01*
X0388208Y0207421D01*
X0388144Y0207365D01*
X0388082Y0207305D01*
X0388022Y0207243D01*
X0387966Y0207179D01*
X0387912Y0207112D01*
X0387861Y0207042D01*
X0387813Y0206971D01*
X0387769Y0206898D01*
X0387727Y0206822D01*
X0387689Y0206745D01*
X0387655Y0206667D01*
X0387624Y0206586D01*
X0387596Y0206505D01*
X0387572Y0206423D01*
X0387552Y0206339D01*
X0387535Y0206255D01*
X0387522Y0206170D01*
X0387512Y0206085D01*
X0387507Y0205999D01*
X0387505Y0205913D01*
X0387506Y0205913D02*
X0387506Y0034654D01*
X0387505Y0034654D02*
X0387507Y0034568D01*
X0387512Y0034482D01*
X0387522Y0034397D01*
X0387535Y0034312D01*
X0387552Y0034228D01*
X0387572Y0034144D01*
X0387596Y0034062D01*
X0387624Y0033981D01*
X0387655Y0033900D01*
X0387689Y0033822D01*
X0387727Y0033745D01*
X0387769Y0033670D01*
X0387813Y0033596D01*
X0387861Y0033525D01*
X0387912Y0033455D01*
X0387966Y0033388D01*
X0388022Y0033324D01*
X0388082Y0033262D01*
X0388144Y0033202D01*
X0388208Y0033146D01*
X0388275Y0033092D01*
X0388345Y0033041D01*
X0388416Y0032993D01*
X0388490Y0032949D01*
X0388565Y0032907D01*
X0388642Y0032869D01*
X0388720Y0032835D01*
X0388801Y0032804D01*
X0388882Y0032776D01*
X0388964Y0032752D01*
X0389048Y0032732D01*
X0389132Y0032715D01*
X0389217Y0032702D01*
X0389302Y0032692D01*
X0389388Y0032687D01*
X0389474Y0032685D01*
X0401286Y0032685D01*
X0401286Y0032686D02*
X0401372Y0032684D01*
X0401458Y0032679D01*
X0401543Y0032669D01*
X0401628Y0032656D01*
X0401712Y0032639D01*
X0401796Y0032619D01*
X0401878Y0032595D01*
X0401959Y0032567D01*
X0402040Y0032536D01*
X0402118Y0032502D01*
X0402195Y0032464D01*
X0402271Y0032422D01*
X0402344Y0032378D01*
X0402415Y0032330D01*
X0402485Y0032279D01*
X0402552Y0032225D01*
X0402616Y0032169D01*
X0402678Y0032109D01*
X0402738Y0032047D01*
X0402794Y0031983D01*
X0402848Y0031916D01*
X0402899Y0031846D01*
X0402947Y0031775D01*
X0402991Y0031702D01*
X0403033Y0031626D01*
X0403071Y0031549D01*
X0403105Y0031471D01*
X0403136Y0031390D01*
X0403164Y0031309D01*
X0403188Y0031227D01*
X0403208Y0031143D01*
X0403225Y0031059D01*
X0403238Y0030974D01*
X0403248Y0030889D01*
X0403253Y0030803D01*
X0403255Y0030717D01*
X0403254Y0030717D02*
X0403254Y0009063D01*
X0403252Y0008939D01*
X0403246Y0008816D01*
X0403237Y0008692D01*
X0403223Y0008570D01*
X0403206Y0008447D01*
X0403184Y0008325D01*
X0403159Y0008204D01*
X0403130Y0008084D01*
X0403098Y0007965D01*
X0403061Y0007846D01*
X0403021Y0007729D01*
X0402978Y0007614D01*
X0402930Y0007499D01*
X0402879Y0007387D01*
X0402825Y0007276D01*
X0402767Y0007166D01*
X0402706Y0007059D01*
X0402641Y0006953D01*
X0402573Y0006850D01*
X0402502Y0006749D01*
X0402428Y0006650D01*
X0402351Y0006553D01*
X0402270Y0006459D01*
X0402187Y0006368D01*
X0402101Y0006279D01*
X0402012Y0006193D01*
X0401921Y0006110D01*
X0401827Y0006029D01*
X0401730Y0005952D01*
X0401631Y0005878D01*
X0401530Y0005807D01*
X0401427Y0005739D01*
X0401321Y0005674D01*
X0401214Y0005613D01*
X0401104Y0005555D01*
X0400993Y0005501D01*
X0400881Y0005450D01*
X0400766Y0005402D01*
X0400651Y0005359D01*
X0400534Y0005319D01*
X0400415Y0005282D01*
X0400296Y0005250D01*
X0400176Y0005221D01*
X0400055Y0005196D01*
X0399933Y0005174D01*
X0399810Y0005157D01*
X0399688Y0005143D01*
X0399564Y0005134D01*
X0399441Y0005128D01*
X0399317Y0005126D01*
X0033175Y0005126D01*
X0033051Y0005128D01*
X0032928Y0005134D01*
X0032804Y0005143D01*
X0032682Y0005157D01*
X0032559Y0005174D01*
X0032437Y0005196D01*
X0032316Y0005221D01*
X0032196Y0005250D01*
X0032077Y0005282D01*
X0031958Y0005319D01*
X0031841Y0005359D01*
X0031726Y0005402D01*
X0031611Y0005450D01*
X0031499Y0005501D01*
X0031388Y0005555D01*
X0031278Y0005613D01*
X0031171Y0005674D01*
X0031065Y0005739D01*
X0030962Y0005807D01*
X0030861Y0005878D01*
X0030762Y0005952D01*
X0030665Y0006029D01*
X0030571Y0006110D01*
X0030480Y0006193D01*
X0030391Y0006279D01*
X0030305Y0006368D01*
X0030222Y0006459D01*
X0030141Y0006553D01*
X0030064Y0006650D01*
X0029990Y0006749D01*
X0029919Y0006850D01*
X0029851Y0006953D01*
X0029786Y0007059D01*
X0029725Y0007166D01*
X0029667Y0007276D01*
X0029613Y0007387D01*
X0029562Y0007499D01*
X0029514Y0007614D01*
X0029471Y0007729D01*
X0029431Y0007846D01*
X0029394Y0007965D01*
X0029362Y0008084D01*
X0029333Y0008204D01*
X0029308Y0008325D01*
X0029286Y0008447D01*
X0029269Y0008570D01*
X0029255Y0008692D01*
X0029246Y0008816D01*
X0029240Y0008939D01*
X0029238Y0009063D01*
X0033569Y0014969D02*
X0033571Y0015117D01*
X0033577Y0015265D01*
X0033587Y0015413D01*
X0033601Y0015560D01*
X0033619Y0015707D01*
X0033640Y0015853D01*
X0033666Y0015999D01*
X0033696Y0016144D01*
X0033729Y0016288D01*
X0033767Y0016431D01*
X0033808Y0016573D01*
X0033853Y0016714D01*
X0033901Y0016854D01*
X0033954Y0016993D01*
X0034010Y0017130D01*
X0034070Y0017265D01*
X0034133Y0017399D01*
X0034200Y0017531D01*
X0034271Y0017661D01*
X0034345Y0017789D01*
X0034422Y0017915D01*
X0034503Y0018039D01*
X0034587Y0018161D01*
X0034674Y0018280D01*
X0034765Y0018397D01*
X0034859Y0018512D01*
X0034955Y0018624D01*
X0035055Y0018734D01*
X0035157Y0018840D01*
X0035263Y0018944D01*
X0035371Y0019045D01*
X0035482Y0019143D01*
X0035595Y0019239D01*
X0035711Y0019331D01*
X0035829Y0019420D01*
X0035950Y0019505D01*
X0036073Y0019588D01*
X0036198Y0019667D01*
X0036325Y0019743D01*
X0036454Y0019815D01*
X0036585Y0019884D01*
X0036718Y0019949D01*
X0036853Y0020010D01*
X0036989Y0020068D01*
X0037126Y0020123D01*
X0037265Y0020173D01*
X0037406Y0020220D01*
X0037547Y0020263D01*
X0037690Y0020303D01*
X0037834Y0020338D01*
X0037978Y0020370D01*
X0038124Y0020397D01*
X0038270Y0020421D01*
X0038417Y0020441D01*
X0038564Y0020457D01*
X0038711Y0020469D01*
X0038859Y0020477D01*
X0039007Y0020481D01*
X0039155Y0020481D01*
X0039303Y0020477D01*
X0039451Y0020469D01*
X0039598Y0020457D01*
X0039745Y0020441D01*
X0039892Y0020421D01*
X0040038Y0020397D01*
X0040184Y0020370D01*
X0040328Y0020338D01*
X0040472Y0020303D01*
X0040615Y0020263D01*
X0040756Y0020220D01*
X0040897Y0020173D01*
X0041036Y0020123D01*
X0041173Y0020068D01*
X0041309Y0020010D01*
X0041444Y0019949D01*
X0041577Y0019884D01*
X0041708Y0019815D01*
X0041837Y0019743D01*
X0041964Y0019667D01*
X0042089Y0019588D01*
X0042212Y0019505D01*
X0042333Y0019420D01*
X0042451Y0019331D01*
X0042567Y0019239D01*
X0042680Y0019143D01*
X0042791Y0019045D01*
X0042899Y0018944D01*
X0043005Y0018840D01*
X0043107Y0018734D01*
X0043207Y0018624D01*
X0043303Y0018512D01*
X0043397Y0018397D01*
X0043488Y0018280D01*
X0043575Y0018161D01*
X0043659Y0018039D01*
X0043740Y0017915D01*
X0043817Y0017789D01*
X0043891Y0017661D01*
X0043962Y0017531D01*
X0044029Y0017399D01*
X0044092Y0017265D01*
X0044152Y0017130D01*
X0044208Y0016993D01*
X0044261Y0016854D01*
X0044309Y0016714D01*
X0044354Y0016573D01*
X0044395Y0016431D01*
X0044433Y0016288D01*
X0044466Y0016144D01*
X0044496Y0015999D01*
X0044522Y0015853D01*
X0044543Y0015707D01*
X0044561Y0015560D01*
X0044575Y0015413D01*
X0044585Y0015265D01*
X0044591Y0015117D01*
X0044593Y0014969D01*
X0044591Y0014821D01*
X0044585Y0014673D01*
X0044575Y0014525D01*
X0044561Y0014378D01*
X0044543Y0014231D01*
X0044522Y0014085D01*
X0044496Y0013939D01*
X0044466Y0013794D01*
X0044433Y0013650D01*
X0044395Y0013507D01*
X0044354Y0013365D01*
X0044309Y0013224D01*
X0044261Y0013084D01*
X0044208Y0012945D01*
X0044152Y0012808D01*
X0044092Y0012673D01*
X0044029Y0012539D01*
X0043962Y0012407D01*
X0043891Y0012277D01*
X0043817Y0012149D01*
X0043740Y0012023D01*
X0043659Y0011899D01*
X0043575Y0011777D01*
X0043488Y0011658D01*
X0043397Y0011541D01*
X0043303Y0011426D01*
X0043207Y0011314D01*
X0043107Y0011204D01*
X0043005Y0011098D01*
X0042899Y0010994D01*
X0042791Y0010893D01*
X0042680Y0010795D01*
X0042567Y0010699D01*
X0042451Y0010607D01*
X0042333Y0010518D01*
X0042212Y0010433D01*
X0042089Y0010350D01*
X0041964Y0010271D01*
X0041837Y0010195D01*
X0041708Y0010123D01*
X0041577Y0010054D01*
X0041444Y0009989D01*
X0041309Y0009928D01*
X0041173Y0009870D01*
X0041036Y0009815D01*
X0040897Y0009765D01*
X0040756Y0009718D01*
X0040615Y0009675D01*
X0040472Y0009635D01*
X0040328Y0009600D01*
X0040184Y0009568D01*
X0040038Y0009541D01*
X0039892Y0009517D01*
X0039745Y0009497D01*
X0039598Y0009481D01*
X0039451Y0009469D01*
X0039303Y0009461D01*
X0039155Y0009457D01*
X0039007Y0009457D01*
X0038859Y0009461D01*
X0038711Y0009469D01*
X0038564Y0009481D01*
X0038417Y0009497D01*
X0038270Y0009517D01*
X0038124Y0009541D01*
X0037978Y0009568D01*
X0037834Y0009600D01*
X0037690Y0009635D01*
X0037547Y0009675D01*
X0037406Y0009718D01*
X0037265Y0009765D01*
X0037126Y0009815D01*
X0036989Y0009870D01*
X0036853Y0009928D01*
X0036718Y0009989D01*
X0036585Y0010054D01*
X0036454Y0010123D01*
X0036325Y0010195D01*
X0036198Y0010271D01*
X0036073Y0010350D01*
X0035950Y0010433D01*
X0035829Y0010518D01*
X0035711Y0010607D01*
X0035595Y0010699D01*
X0035482Y0010795D01*
X0035371Y0010893D01*
X0035263Y0010994D01*
X0035157Y0011098D01*
X0035055Y0011204D01*
X0034955Y0011314D01*
X0034859Y0011426D01*
X0034765Y0011541D01*
X0034674Y0011658D01*
X0034587Y0011777D01*
X0034503Y0011899D01*
X0034422Y0012023D01*
X0034345Y0012149D01*
X0034271Y0012277D01*
X0034200Y0012407D01*
X0034133Y0012539D01*
X0034070Y0012673D01*
X0034010Y0012808D01*
X0033954Y0012945D01*
X0033901Y0013084D01*
X0033853Y0013224D01*
X0033808Y0013365D01*
X0033767Y0013507D01*
X0033729Y0013650D01*
X0033696Y0013794D01*
X0033666Y0013939D01*
X0033640Y0014085D01*
X0033619Y0014231D01*
X0033601Y0014378D01*
X0033587Y0014525D01*
X0033577Y0014673D01*
X0033571Y0014821D01*
X0033569Y0014969D01*
X0048923Y0026780D02*
X0048925Y0026868D01*
X0048931Y0026956D01*
X0048941Y0027044D01*
X0048955Y0027132D01*
X0048972Y0027218D01*
X0048994Y0027304D01*
X0049019Y0027388D01*
X0049049Y0027472D01*
X0049081Y0027554D01*
X0049118Y0027634D01*
X0049158Y0027713D01*
X0049202Y0027790D01*
X0049249Y0027865D01*
X0049299Y0027937D01*
X0049353Y0028008D01*
X0049409Y0028075D01*
X0049469Y0028141D01*
X0049531Y0028203D01*
X0049597Y0028263D01*
X0049664Y0028319D01*
X0049735Y0028373D01*
X0049807Y0028423D01*
X0049882Y0028470D01*
X0049959Y0028514D01*
X0050038Y0028554D01*
X0050118Y0028591D01*
X0050200Y0028623D01*
X0050284Y0028653D01*
X0050368Y0028678D01*
X0050454Y0028700D01*
X0050540Y0028717D01*
X0050628Y0028731D01*
X0050716Y0028741D01*
X0050804Y0028747D01*
X0050892Y0028749D01*
X0050980Y0028747D01*
X0051068Y0028741D01*
X0051156Y0028731D01*
X0051244Y0028717D01*
X0051330Y0028700D01*
X0051416Y0028678D01*
X0051500Y0028653D01*
X0051584Y0028623D01*
X0051666Y0028591D01*
X0051746Y0028554D01*
X0051825Y0028514D01*
X0051902Y0028470D01*
X0051977Y0028423D01*
X0052049Y0028373D01*
X0052120Y0028319D01*
X0052187Y0028263D01*
X0052253Y0028203D01*
X0052315Y0028141D01*
X0052375Y0028075D01*
X0052431Y0028008D01*
X0052485Y0027937D01*
X0052535Y0027865D01*
X0052582Y0027790D01*
X0052626Y0027713D01*
X0052666Y0027634D01*
X0052703Y0027554D01*
X0052735Y0027472D01*
X0052765Y0027388D01*
X0052790Y0027304D01*
X0052812Y0027218D01*
X0052829Y0027132D01*
X0052843Y0027044D01*
X0052853Y0026956D01*
X0052859Y0026868D01*
X0052861Y0026780D01*
X0052859Y0026692D01*
X0052853Y0026604D01*
X0052843Y0026516D01*
X0052829Y0026428D01*
X0052812Y0026342D01*
X0052790Y0026256D01*
X0052765Y0026172D01*
X0052735Y0026088D01*
X0052703Y0026006D01*
X0052666Y0025926D01*
X0052626Y0025847D01*
X0052582Y0025770D01*
X0052535Y0025695D01*
X0052485Y0025623D01*
X0052431Y0025552D01*
X0052375Y0025485D01*
X0052315Y0025419D01*
X0052253Y0025357D01*
X0052187Y0025297D01*
X0052120Y0025241D01*
X0052049Y0025187D01*
X0051977Y0025137D01*
X0051902Y0025090D01*
X0051825Y0025046D01*
X0051746Y0025006D01*
X0051666Y0024969D01*
X0051584Y0024937D01*
X0051500Y0024907D01*
X0051416Y0024882D01*
X0051330Y0024860D01*
X0051244Y0024843D01*
X0051156Y0024829D01*
X0051068Y0024819D01*
X0050980Y0024813D01*
X0050892Y0024811D01*
X0050804Y0024813D01*
X0050716Y0024819D01*
X0050628Y0024829D01*
X0050540Y0024843D01*
X0050454Y0024860D01*
X0050368Y0024882D01*
X0050284Y0024907D01*
X0050200Y0024937D01*
X0050118Y0024969D01*
X0050038Y0025006D01*
X0049959Y0025046D01*
X0049882Y0025090D01*
X0049807Y0025137D01*
X0049735Y0025187D01*
X0049664Y0025241D01*
X0049597Y0025297D01*
X0049531Y0025357D01*
X0049469Y0025419D01*
X0049409Y0025485D01*
X0049353Y0025552D01*
X0049299Y0025623D01*
X0049249Y0025695D01*
X0049202Y0025770D01*
X0049158Y0025847D01*
X0049118Y0025926D01*
X0049081Y0026006D01*
X0049049Y0026088D01*
X0049019Y0026172D01*
X0048994Y0026256D01*
X0048972Y0026342D01*
X0048955Y0026428D01*
X0048941Y0026516D01*
X0048931Y0026604D01*
X0048925Y0026692D01*
X0048923Y0026780D01*
X0052289Y0040992D02*
X0052291Y0041063D01*
X0052297Y0041134D01*
X0052307Y0041205D01*
X0052321Y0041274D01*
X0052338Y0041343D01*
X0052360Y0041411D01*
X0052385Y0041478D01*
X0052414Y0041543D01*
X0052446Y0041606D01*
X0052482Y0041668D01*
X0052521Y0041727D01*
X0052564Y0041784D01*
X0052609Y0041839D01*
X0052658Y0041891D01*
X0052709Y0041940D01*
X0052763Y0041986D01*
X0052820Y0042030D01*
X0052878Y0042070D01*
X0052939Y0042106D01*
X0053002Y0042140D01*
X0053067Y0042169D01*
X0053133Y0042195D01*
X0053201Y0042218D01*
X0053269Y0042236D01*
X0053339Y0042251D01*
X0053409Y0042262D01*
X0053480Y0042269D01*
X0053551Y0042272D01*
X0053622Y0042271D01*
X0053693Y0042266D01*
X0053764Y0042257D01*
X0053834Y0042244D01*
X0053903Y0042228D01*
X0053971Y0042207D01*
X0054038Y0042183D01*
X0054104Y0042155D01*
X0054167Y0042123D01*
X0054229Y0042088D01*
X0054289Y0042050D01*
X0054347Y0042008D01*
X0054402Y0041964D01*
X0054455Y0041916D01*
X0054505Y0041865D01*
X0054552Y0041812D01*
X0054596Y0041756D01*
X0054637Y0041698D01*
X0054675Y0041637D01*
X0054709Y0041575D01*
X0054739Y0041510D01*
X0054766Y0041445D01*
X0054790Y0041377D01*
X0054809Y0041309D01*
X0054825Y0041240D01*
X0054837Y0041169D01*
X0054845Y0041099D01*
X0054849Y0041028D01*
X0054849Y0040956D01*
X0054845Y0040885D01*
X0054837Y0040815D01*
X0054825Y0040744D01*
X0054809Y0040675D01*
X0054790Y0040607D01*
X0054766Y0040539D01*
X0054739Y0040474D01*
X0054709Y0040409D01*
X0054675Y0040347D01*
X0054637Y0040286D01*
X0054596Y0040228D01*
X0054552Y0040172D01*
X0054505Y0040119D01*
X0054455Y0040068D01*
X0054402Y0040020D01*
X0054347Y0039976D01*
X0054289Y0039934D01*
X0054229Y0039896D01*
X0054167Y0039861D01*
X0054104Y0039829D01*
X0054038Y0039801D01*
X0053971Y0039777D01*
X0053903Y0039756D01*
X0053834Y0039740D01*
X0053764Y0039727D01*
X0053693Y0039718D01*
X0053622Y0039713D01*
X0053551Y0039712D01*
X0053480Y0039715D01*
X0053409Y0039722D01*
X0053339Y0039733D01*
X0053269Y0039748D01*
X0053201Y0039766D01*
X0053133Y0039789D01*
X0053067Y0039815D01*
X0053002Y0039844D01*
X0052939Y0039878D01*
X0052878Y0039914D01*
X0052820Y0039954D01*
X0052763Y0039998D01*
X0052709Y0040044D01*
X0052658Y0040093D01*
X0052609Y0040145D01*
X0052564Y0040200D01*
X0052521Y0040257D01*
X0052482Y0040316D01*
X0052446Y0040378D01*
X0052414Y0040441D01*
X0052385Y0040506D01*
X0052360Y0040573D01*
X0052338Y0040641D01*
X0052321Y0040710D01*
X0052307Y0040779D01*
X0052297Y0040850D01*
X0052291Y0040921D01*
X0052289Y0040992D01*
X0052289Y0063748D02*
X0052291Y0063819D01*
X0052297Y0063890D01*
X0052307Y0063961D01*
X0052321Y0064030D01*
X0052338Y0064099D01*
X0052360Y0064167D01*
X0052385Y0064234D01*
X0052414Y0064299D01*
X0052446Y0064362D01*
X0052482Y0064424D01*
X0052521Y0064483D01*
X0052564Y0064540D01*
X0052609Y0064595D01*
X0052658Y0064647D01*
X0052709Y0064696D01*
X0052763Y0064742D01*
X0052820Y0064786D01*
X0052878Y0064826D01*
X0052939Y0064862D01*
X0053002Y0064896D01*
X0053067Y0064925D01*
X0053133Y0064951D01*
X0053201Y0064974D01*
X0053269Y0064992D01*
X0053339Y0065007D01*
X0053409Y0065018D01*
X0053480Y0065025D01*
X0053551Y0065028D01*
X0053622Y0065027D01*
X0053693Y0065022D01*
X0053764Y0065013D01*
X0053834Y0065000D01*
X0053903Y0064984D01*
X0053971Y0064963D01*
X0054038Y0064939D01*
X0054104Y0064911D01*
X0054167Y0064879D01*
X0054229Y0064844D01*
X0054289Y0064806D01*
X0054347Y0064764D01*
X0054402Y0064720D01*
X0054455Y0064672D01*
X0054505Y0064621D01*
X0054552Y0064568D01*
X0054596Y0064512D01*
X0054637Y0064454D01*
X0054675Y0064393D01*
X0054709Y0064331D01*
X0054739Y0064266D01*
X0054766Y0064201D01*
X0054790Y0064133D01*
X0054809Y0064065D01*
X0054825Y0063996D01*
X0054837Y0063925D01*
X0054845Y0063855D01*
X0054849Y0063784D01*
X0054849Y0063712D01*
X0054845Y0063641D01*
X0054837Y0063571D01*
X0054825Y0063500D01*
X0054809Y0063431D01*
X0054790Y0063363D01*
X0054766Y0063295D01*
X0054739Y0063230D01*
X0054709Y0063165D01*
X0054675Y0063103D01*
X0054637Y0063042D01*
X0054596Y0062984D01*
X0054552Y0062928D01*
X0054505Y0062875D01*
X0054455Y0062824D01*
X0054402Y0062776D01*
X0054347Y0062732D01*
X0054289Y0062690D01*
X0054229Y0062652D01*
X0054167Y0062617D01*
X0054104Y0062585D01*
X0054038Y0062557D01*
X0053971Y0062533D01*
X0053903Y0062512D01*
X0053834Y0062496D01*
X0053764Y0062483D01*
X0053693Y0062474D01*
X0053622Y0062469D01*
X0053551Y0062468D01*
X0053480Y0062471D01*
X0053409Y0062478D01*
X0053339Y0062489D01*
X0053269Y0062504D01*
X0053201Y0062522D01*
X0053133Y0062545D01*
X0053067Y0062571D01*
X0053002Y0062600D01*
X0052939Y0062634D01*
X0052878Y0062670D01*
X0052820Y0062710D01*
X0052763Y0062754D01*
X0052709Y0062800D01*
X0052658Y0062849D01*
X0052609Y0062901D01*
X0052564Y0062956D01*
X0052521Y0063013D01*
X0052482Y0063072D01*
X0052446Y0063134D01*
X0052414Y0063197D01*
X0052385Y0063262D01*
X0052360Y0063329D01*
X0052338Y0063397D01*
X0052321Y0063466D01*
X0052307Y0063535D01*
X0052297Y0063606D01*
X0052291Y0063677D01*
X0052289Y0063748D01*
X0045183Y0225598D02*
X0045185Y0225682D01*
X0045191Y0225765D01*
X0045201Y0225848D01*
X0045215Y0225931D01*
X0045232Y0226013D01*
X0045254Y0226094D01*
X0045279Y0226173D01*
X0045308Y0226252D01*
X0045341Y0226329D01*
X0045377Y0226404D01*
X0045417Y0226478D01*
X0045460Y0226550D01*
X0045507Y0226619D01*
X0045557Y0226686D01*
X0045610Y0226751D01*
X0045666Y0226813D01*
X0045724Y0226873D01*
X0045786Y0226930D01*
X0045850Y0226983D01*
X0045917Y0227034D01*
X0045986Y0227081D01*
X0046057Y0227126D01*
X0046130Y0227166D01*
X0046205Y0227203D01*
X0046282Y0227237D01*
X0046360Y0227267D01*
X0046439Y0227293D01*
X0046520Y0227316D01*
X0046602Y0227334D01*
X0046684Y0227349D01*
X0046767Y0227360D01*
X0046850Y0227367D01*
X0046934Y0227370D01*
X0047018Y0227369D01*
X0047101Y0227364D01*
X0047185Y0227355D01*
X0047267Y0227342D01*
X0047349Y0227326D01*
X0047430Y0227305D01*
X0047511Y0227281D01*
X0047589Y0227253D01*
X0047667Y0227221D01*
X0047743Y0227185D01*
X0047817Y0227146D01*
X0047889Y0227104D01*
X0047959Y0227058D01*
X0048027Y0227009D01*
X0048092Y0226957D01*
X0048155Y0226902D01*
X0048215Y0226844D01*
X0048273Y0226783D01*
X0048327Y0226719D01*
X0048379Y0226653D01*
X0048427Y0226585D01*
X0048472Y0226514D01*
X0048513Y0226441D01*
X0048552Y0226367D01*
X0048586Y0226291D01*
X0048617Y0226213D01*
X0048644Y0226134D01*
X0048668Y0226053D01*
X0048687Y0225972D01*
X0048703Y0225890D01*
X0048715Y0225807D01*
X0048723Y0225723D01*
X0048727Y0225640D01*
X0048727Y0225556D01*
X0048723Y0225473D01*
X0048715Y0225389D01*
X0048703Y0225306D01*
X0048687Y0225224D01*
X0048668Y0225143D01*
X0048644Y0225062D01*
X0048617Y0224983D01*
X0048586Y0224905D01*
X0048552Y0224829D01*
X0048513Y0224755D01*
X0048472Y0224682D01*
X0048427Y0224611D01*
X0048379Y0224543D01*
X0048327Y0224477D01*
X0048273Y0224413D01*
X0048215Y0224352D01*
X0048155Y0224294D01*
X0048092Y0224239D01*
X0048027Y0224187D01*
X0047959Y0224138D01*
X0047889Y0224092D01*
X0047817Y0224050D01*
X0047743Y0224011D01*
X0047667Y0223975D01*
X0047589Y0223943D01*
X0047511Y0223915D01*
X0047430Y0223891D01*
X0047349Y0223870D01*
X0047267Y0223854D01*
X0047185Y0223841D01*
X0047101Y0223832D01*
X0047018Y0223827D01*
X0046934Y0223826D01*
X0046850Y0223829D01*
X0046767Y0223836D01*
X0046684Y0223847D01*
X0046602Y0223862D01*
X0046520Y0223880D01*
X0046439Y0223903D01*
X0046360Y0223929D01*
X0046282Y0223959D01*
X0046205Y0223993D01*
X0046130Y0224030D01*
X0046057Y0224070D01*
X0045986Y0224115D01*
X0045917Y0224162D01*
X0045850Y0224213D01*
X0045786Y0224266D01*
X0045724Y0224323D01*
X0045666Y0224383D01*
X0045610Y0224445D01*
X0045557Y0224510D01*
X0045507Y0224577D01*
X0045460Y0224646D01*
X0045417Y0224718D01*
X0045377Y0224792D01*
X0045341Y0224867D01*
X0045308Y0224944D01*
X0045279Y0225023D01*
X0045254Y0225102D01*
X0045232Y0225183D01*
X0045215Y0225265D01*
X0045201Y0225348D01*
X0045191Y0225431D01*
X0045185Y0225514D01*
X0045183Y0225598D01*
X0033372Y0225598D02*
X0033374Y0225682D01*
X0033380Y0225765D01*
X0033390Y0225848D01*
X0033404Y0225931D01*
X0033421Y0226013D01*
X0033443Y0226094D01*
X0033468Y0226173D01*
X0033497Y0226252D01*
X0033530Y0226329D01*
X0033566Y0226404D01*
X0033606Y0226478D01*
X0033649Y0226550D01*
X0033696Y0226619D01*
X0033746Y0226686D01*
X0033799Y0226751D01*
X0033855Y0226813D01*
X0033913Y0226873D01*
X0033975Y0226930D01*
X0034039Y0226983D01*
X0034106Y0227034D01*
X0034175Y0227081D01*
X0034246Y0227126D01*
X0034319Y0227166D01*
X0034394Y0227203D01*
X0034471Y0227237D01*
X0034549Y0227267D01*
X0034628Y0227293D01*
X0034709Y0227316D01*
X0034791Y0227334D01*
X0034873Y0227349D01*
X0034956Y0227360D01*
X0035039Y0227367D01*
X0035123Y0227370D01*
X0035207Y0227369D01*
X0035290Y0227364D01*
X0035374Y0227355D01*
X0035456Y0227342D01*
X0035538Y0227326D01*
X0035619Y0227305D01*
X0035700Y0227281D01*
X0035778Y0227253D01*
X0035856Y0227221D01*
X0035932Y0227185D01*
X0036006Y0227146D01*
X0036078Y0227104D01*
X0036148Y0227058D01*
X0036216Y0227009D01*
X0036281Y0226957D01*
X0036344Y0226902D01*
X0036404Y0226844D01*
X0036462Y0226783D01*
X0036516Y0226719D01*
X0036568Y0226653D01*
X0036616Y0226585D01*
X0036661Y0226514D01*
X0036702Y0226441D01*
X0036741Y0226367D01*
X0036775Y0226291D01*
X0036806Y0226213D01*
X0036833Y0226134D01*
X0036857Y0226053D01*
X0036876Y0225972D01*
X0036892Y0225890D01*
X0036904Y0225807D01*
X0036912Y0225723D01*
X0036916Y0225640D01*
X0036916Y0225556D01*
X0036912Y0225473D01*
X0036904Y0225389D01*
X0036892Y0225306D01*
X0036876Y0225224D01*
X0036857Y0225143D01*
X0036833Y0225062D01*
X0036806Y0224983D01*
X0036775Y0224905D01*
X0036741Y0224829D01*
X0036702Y0224755D01*
X0036661Y0224682D01*
X0036616Y0224611D01*
X0036568Y0224543D01*
X0036516Y0224477D01*
X0036462Y0224413D01*
X0036404Y0224352D01*
X0036344Y0224294D01*
X0036281Y0224239D01*
X0036216Y0224187D01*
X0036148Y0224138D01*
X0036078Y0224092D01*
X0036006Y0224050D01*
X0035932Y0224011D01*
X0035856Y0223975D01*
X0035778Y0223943D01*
X0035700Y0223915D01*
X0035619Y0223891D01*
X0035538Y0223870D01*
X0035456Y0223854D01*
X0035374Y0223841D01*
X0035290Y0223832D01*
X0035207Y0223827D01*
X0035123Y0223826D01*
X0035039Y0223829D01*
X0034956Y0223836D01*
X0034873Y0223847D01*
X0034791Y0223862D01*
X0034709Y0223880D01*
X0034628Y0223903D01*
X0034549Y0223929D01*
X0034471Y0223959D01*
X0034394Y0223993D01*
X0034319Y0224030D01*
X0034246Y0224070D01*
X0034175Y0224115D01*
X0034106Y0224162D01*
X0034039Y0224213D01*
X0033975Y0224266D01*
X0033913Y0224323D01*
X0033855Y0224383D01*
X0033799Y0224445D01*
X0033746Y0224510D01*
X0033696Y0224577D01*
X0033649Y0224646D01*
X0033606Y0224718D01*
X0033566Y0224792D01*
X0033530Y0224867D01*
X0033497Y0224944D01*
X0033468Y0225023D01*
X0033443Y0225102D01*
X0033421Y0225183D01*
X0033404Y0225265D01*
X0033390Y0225348D01*
X0033380Y0225431D01*
X0033374Y0225514D01*
X0033372Y0225598D01*
X0048923Y0245283D02*
X0048925Y0245371D01*
X0048931Y0245459D01*
X0048941Y0245547D01*
X0048955Y0245635D01*
X0048972Y0245721D01*
X0048994Y0245807D01*
X0049019Y0245891D01*
X0049049Y0245975D01*
X0049081Y0246057D01*
X0049118Y0246137D01*
X0049158Y0246216D01*
X0049202Y0246293D01*
X0049249Y0246368D01*
X0049299Y0246440D01*
X0049353Y0246511D01*
X0049409Y0246578D01*
X0049469Y0246644D01*
X0049531Y0246706D01*
X0049597Y0246766D01*
X0049664Y0246822D01*
X0049735Y0246876D01*
X0049807Y0246926D01*
X0049882Y0246973D01*
X0049959Y0247017D01*
X0050038Y0247057D01*
X0050118Y0247094D01*
X0050200Y0247126D01*
X0050284Y0247156D01*
X0050368Y0247181D01*
X0050454Y0247203D01*
X0050540Y0247220D01*
X0050628Y0247234D01*
X0050716Y0247244D01*
X0050804Y0247250D01*
X0050892Y0247252D01*
X0050980Y0247250D01*
X0051068Y0247244D01*
X0051156Y0247234D01*
X0051244Y0247220D01*
X0051330Y0247203D01*
X0051416Y0247181D01*
X0051500Y0247156D01*
X0051584Y0247126D01*
X0051666Y0247094D01*
X0051746Y0247057D01*
X0051825Y0247017D01*
X0051902Y0246973D01*
X0051977Y0246926D01*
X0052049Y0246876D01*
X0052120Y0246822D01*
X0052187Y0246766D01*
X0052253Y0246706D01*
X0052315Y0246644D01*
X0052375Y0246578D01*
X0052431Y0246511D01*
X0052485Y0246440D01*
X0052535Y0246368D01*
X0052582Y0246293D01*
X0052626Y0246216D01*
X0052666Y0246137D01*
X0052703Y0246057D01*
X0052735Y0245975D01*
X0052765Y0245891D01*
X0052790Y0245807D01*
X0052812Y0245721D01*
X0052829Y0245635D01*
X0052843Y0245547D01*
X0052853Y0245459D01*
X0052859Y0245371D01*
X0052861Y0245283D01*
X0052859Y0245195D01*
X0052853Y0245107D01*
X0052843Y0245019D01*
X0052829Y0244931D01*
X0052812Y0244845D01*
X0052790Y0244759D01*
X0052765Y0244675D01*
X0052735Y0244591D01*
X0052703Y0244509D01*
X0052666Y0244429D01*
X0052626Y0244350D01*
X0052582Y0244273D01*
X0052535Y0244198D01*
X0052485Y0244126D01*
X0052431Y0244055D01*
X0052375Y0243988D01*
X0052315Y0243922D01*
X0052253Y0243860D01*
X0052187Y0243800D01*
X0052120Y0243744D01*
X0052049Y0243690D01*
X0051977Y0243640D01*
X0051902Y0243593D01*
X0051825Y0243549D01*
X0051746Y0243509D01*
X0051666Y0243472D01*
X0051584Y0243440D01*
X0051500Y0243410D01*
X0051416Y0243385D01*
X0051330Y0243363D01*
X0051244Y0243346D01*
X0051156Y0243332D01*
X0051068Y0243322D01*
X0050980Y0243316D01*
X0050892Y0243314D01*
X0050804Y0243316D01*
X0050716Y0243322D01*
X0050628Y0243332D01*
X0050540Y0243346D01*
X0050454Y0243363D01*
X0050368Y0243385D01*
X0050284Y0243410D01*
X0050200Y0243440D01*
X0050118Y0243472D01*
X0050038Y0243509D01*
X0049959Y0243549D01*
X0049882Y0243593D01*
X0049807Y0243640D01*
X0049735Y0243690D01*
X0049664Y0243744D01*
X0049597Y0243800D01*
X0049531Y0243860D01*
X0049469Y0243922D01*
X0049409Y0243988D01*
X0049353Y0244055D01*
X0049299Y0244126D01*
X0049249Y0244198D01*
X0049202Y0244273D01*
X0049158Y0244350D01*
X0049118Y0244429D01*
X0049081Y0244509D01*
X0049049Y0244591D01*
X0049019Y0244675D01*
X0048994Y0244759D01*
X0048972Y0244845D01*
X0048955Y0244931D01*
X0048941Y0245019D01*
X0048931Y0245107D01*
X0048925Y0245195D01*
X0048923Y0245283D01*
X0033569Y0266937D02*
X0033571Y0267085D01*
X0033577Y0267233D01*
X0033587Y0267381D01*
X0033601Y0267528D01*
X0033619Y0267675D01*
X0033640Y0267821D01*
X0033666Y0267967D01*
X0033696Y0268112D01*
X0033729Y0268256D01*
X0033767Y0268399D01*
X0033808Y0268541D01*
X0033853Y0268682D01*
X0033901Y0268822D01*
X0033954Y0268961D01*
X0034010Y0269098D01*
X0034070Y0269233D01*
X0034133Y0269367D01*
X0034200Y0269499D01*
X0034271Y0269629D01*
X0034345Y0269757D01*
X0034422Y0269883D01*
X0034503Y0270007D01*
X0034587Y0270129D01*
X0034674Y0270248D01*
X0034765Y0270365D01*
X0034859Y0270480D01*
X0034955Y0270592D01*
X0035055Y0270702D01*
X0035157Y0270808D01*
X0035263Y0270912D01*
X0035371Y0271013D01*
X0035482Y0271111D01*
X0035595Y0271207D01*
X0035711Y0271299D01*
X0035829Y0271388D01*
X0035950Y0271473D01*
X0036073Y0271556D01*
X0036198Y0271635D01*
X0036325Y0271711D01*
X0036454Y0271783D01*
X0036585Y0271852D01*
X0036718Y0271917D01*
X0036853Y0271978D01*
X0036989Y0272036D01*
X0037126Y0272091D01*
X0037265Y0272141D01*
X0037406Y0272188D01*
X0037547Y0272231D01*
X0037690Y0272271D01*
X0037834Y0272306D01*
X0037978Y0272338D01*
X0038124Y0272365D01*
X0038270Y0272389D01*
X0038417Y0272409D01*
X0038564Y0272425D01*
X0038711Y0272437D01*
X0038859Y0272445D01*
X0039007Y0272449D01*
X0039155Y0272449D01*
X0039303Y0272445D01*
X0039451Y0272437D01*
X0039598Y0272425D01*
X0039745Y0272409D01*
X0039892Y0272389D01*
X0040038Y0272365D01*
X0040184Y0272338D01*
X0040328Y0272306D01*
X0040472Y0272271D01*
X0040615Y0272231D01*
X0040756Y0272188D01*
X0040897Y0272141D01*
X0041036Y0272091D01*
X0041173Y0272036D01*
X0041309Y0271978D01*
X0041444Y0271917D01*
X0041577Y0271852D01*
X0041708Y0271783D01*
X0041837Y0271711D01*
X0041964Y0271635D01*
X0042089Y0271556D01*
X0042212Y0271473D01*
X0042333Y0271388D01*
X0042451Y0271299D01*
X0042567Y0271207D01*
X0042680Y0271111D01*
X0042791Y0271013D01*
X0042899Y0270912D01*
X0043005Y0270808D01*
X0043107Y0270702D01*
X0043207Y0270592D01*
X0043303Y0270480D01*
X0043397Y0270365D01*
X0043488Y0270248D01*
X0043575Y0270129D01*
X0043659Y0270007D01*
X0043740Y0269883D01*
X0043817Y0269757D01*
X0043891Y0269629D01*
X0043962Y0269499D01*
X0044029Y0269367D01*
X0044092Y0269233D01*
X0044152Y0269098D01*
X0044208Y0268961D01*
X0044261Y0268822D01*
X0044309Y0268682D01*
X0044354Y0268541D01*
X0044395Y0268399D01*
X0044433Y0268256D01*
X0044466Y0268112D01*
X0044496Y0267967D01*
X0044522Y0267821D01*
X0044543Y0267675D01*
X0044561Y0267528D01*
X0044575Y0267381D01*
X0044585Y0267233D01*
X0044591Y0267085D01*
X0044593Y0266937D01*
X0044591Y0266789D01*
X0044585Y0266641D01*
X0044575Y0266493D01*
X0044561Y0266346D01*
X0044543Y0266199D01*
X0044522Y0266053D01*
X0044496Y0265907D01*
X0044466Y0265762D01*
X0044433Y0265618D01*
X0044395Y0265475D01*
X0044354Y0265333D01*
X0044309Y0265192D01*
X0044261Y0265052D01*
X0044208Y0264913D01*
X0044152Y0264776D01*
X0044092Y0264641D01*
X0044029Y0264507D01*
X0043962Y0264375D01*
X0043891Y0264245D01*
X0043817Y0264117D01*
X0043740Y0263991D01*
X0043659Y0263867D01*
X0043575Y0263745D01*
X0043488Y0263626D01*
X0043397Y0263509D01*
X0043303Y0263394D01*
X0043207Y0263282D01*
X0043107Y0263172D01*
X0043005Y0263066D01*
X0042899Y0262962D01*
X0042791Y0262861D01*
X0042680Y0262763D01*
X0042567Y0262667D01*
X0042451Y0262575D01*
X0042333Y0262486D01*
X0042212Y0262401D01*
X0042089Y0262318D01*
X0041964Y0262239D01*
X0041837Y0262163D01*
X0041708Y0262091D01*
X0041577Y0262022D01*
X0041444Y0261957D01*
X0041309Y0261896D01*
X0041173Y0261838D01*
X0041036Y0261783D01*
X0040897Y0261733D01*
X0040756Y0261686D01*
X0040615Y0261643D01*
X0040472Y0261603D01*
X0040328Y0261568D01*
X0040184Y0261536D01*
X0040038Y0261509D01*
X0039892Y0261485D01*
X0039745Y0261465D01*
X0039598Y0261449D01*
X0039451Y0261437D01*
X0039303Y0261429D01*
X0039155Y0261425D01*
X0039007Y0261425D01*
X0038859Y0261429D01*
X0038711Y0261437D01*
X0038564Y0261449D01*
X0038417Y0261465D01*
X0038270Y0261485D01*
X0038124Y0261509D01*
X0037978Y0261536D01*
X0037834Y0261568D01*
X0037690Y0261603D01*
X0037547Y0261643D01*
X0037406Y0261686D01*
X0037265Y0261733D01*
X0037126Y0261783D01*
X0036989Y0261838D01*
X0036853Y0261896D01*
X0036718Y0261957D01*
X0036585Y0262022D01*
X0036454Y0262091D01*
X0036325Y0262163D01*
X0036198Y0262239D01*
X0036073Y0262318D01*
X0035950Y0262401D01*
X0035829Y0262486D01*
X0035711Y0262575D01*
X0035595Y0262667D01*
X0035482Y0262763D01*
X0035371Y0262861D01*
X0035263Y0262962D01*
X0035157Y0263066D01*
X0035055Y0263172D01*
X0034955Y0263282D01*
X0034859Y0263394D01*
X0034765Y0263509D01*
X0034674Y0263626D01*
X0034587Y0263745D01*
X0034503Y0263867D01*
X0034422Y0263991D01*
X0034345Y0264117D01*
X0034271Y0264245D01*
X0034200Y0264375D01*
X0034133Y0264507D01*
X0034070Y0264641D01*
X0034010Y0264776D01*
X0033954Y0264913D01*
X0033901Y0265052D01*
X0033853Y0265192D01*
X0033808Y0265333D01*
X0033767Y0265475D01*
X0033729Y0265618D01*
X0033696Y0265762D01*
X0033666Y0265907D01*
X0033640Y0266053D01*
X0033619Y0266199D01*
X0033601Y0266346D01*
X0033587Y0266493D01*
X0033577Y0266641D01*
X0033571Y0266789D01*
X0033569Y0266937D01*
X0379631Y0245283D02*
X0379633Y0245371D01*
X0379639Y0245459D01*
X0379649Y0245547D01*
X0379663Y0245635D01*
X0379680Y0245721D01*
X0379702Y0245807D01*
X0379727Y0245891D01*
X0379757Y0245975D01*
X0379789Y0246057D01*
X0379826Y0246137D01*
X0379866Y0246216D01*
X0379910Y0246293D01*
X0379957Y0246368D01*
X0380007Y0246440D01*
X0380061Y0246511D01*
X0380117Y0246578D01*
X0380177Y0246644D01*
X0380239Y0246706D01*
X0380305Y0246766D01*
X0380372Y0246822D01*
X0380443Y0246876D01*
X0380515Y0246926D01*
X0380590Y0246973D01*
X0380667Y0247017D01*
X0380746Y0247057D01*
X0380826Y0247094D01*
X0380908Y0247126D01*
X0380992Y0247156D01*
X0381076Y0247181D01*
X0381162Y0247203D01*
X0381248Y0247220D01*
X0381336Y0247234D01*
X0381424Y0247244D01*
X0381512Y0247250D01*
X0381600Y0247252D01*
X0381688Y0247250D01*
X0381776Y0247244D01*
X0381864Y0247234D01*
X0381952Y0247220D01*
X0382038Y0247203D01*
X0382124Y0247181D01*
X0382208Y0247156D01*
X0382292Y0247126D01*
X0382374Y0247094D01*
X0382454Y0247057D01*
X0382533Y0247017D01*
X0382610Y0246973D01*
X0382685Y0246926D01*
X0382757Y0246876D01*
X0382828Y0246822D01*
X0382895Y0246766D01*
X0382961Y0246706D01*
X0383023Y0246644D01*
X0383083Y0246578D01*
X0383139Y0246511D01*
X0383193Y0246440D01*
X0383243Y0246368D01*
X0383290Y0246293D01*
X0383334Y0246216D01*
X0383374Y0246137D01*
X0383411Y0246057D01*
X0383443Y0245975D01*
X0383473Y0245891D01*
X0383498Y0245807D01*
X0383520Y0245721D01*
X0383537Y0245635D01*
X0383551Y0245547D01*
X0383561Y0245459D01*
X0383567Y0245371D01*
X0383569Y0245283D01*
X0383567Y0245195D01*
X0383561Y0245107D01*
X0383551Y0245019D01*
X0383537Y0244931D01*
X0383520Y0244845D01*
X0383498Y0244759D01*
X0383473Y0244675D01*
X0383443Y0244591D01*
X0383411Y0244509D01*
X0383374Y0244429D01*
X0383334Y0244350D01*
X0383290Y0244273D01*
X0383243Y0244198D01*
X0383193Y0244126D01*
X0383139Y0244055D01*
X0383083Y0243988D01*
X0383023Y0243922D01*
X0382961Y0243860D01*
X0382895Y0243800D01*
X0382828Y0243744D01*
X0382757Y0243690D01*
X0382685Y0243640D01*
X0382610Y0243593D01*
X0382533Y0243549D01*
X0382454Y0243509D01*
X0382374Y0243472D01*
X0382292Y0243440D01*
X0382208Y0243410D01*
X0382124Y0243385D01*
X0382038Y0243363D01*
X0381952Y0243346D01*
X0381864Y0243332D01*
X0381776Y0243322D01*
X0381688Y0243316D01*
X0381600Y0243314D01*
X0381512Y0243316D01*
X0381424Y0243322D01*
X0381336Y0243332D01*
X0381248Y0243346D01*
X0381162Y0243363D01*
X0381076Y0243385D01*
X0380992Y0243410D01*
X0380908Y0243440D01*
X0380826Y0243472D01*
X0380746Y0243509D01*
X0380667Y0243549D01*
X0380590Y0243593D01*
X0380515Y0243640D01*
X0380443Y0243690D01*
X0380372Y0243744D01*
X0380305Y0243800D01*
X0380239Y0243860D01*
X0380177Y0243922D01*
X0380117Y0243988D01*
X0380061Y0244055D01*
X0380007Y0244126D01*
X0379957Y0244198D01*
X0379910Y0244273D01*
X0379866Y0244350D01*
X0379826Y0244429D01*
X0379789Y0244509D01*
X0379757Y0244591D01*
X0379727Y0244675D01*
X0379702Y0244759D01*
X0379680Y0244845D01*
X0379663Y0244931D01*
X0379649Y0245019D01*
X0379639Y0245107D01*
X0379633Y0245195D01*
X0379631Y0245283D01*
X0387900Y0266937D02*
X0387902Y0267085D01*
X0387908Y0267233D01*
X0387918Y0267381D01*
X0387932Y0267528D01*
X0387950Y0267675D01*
X0387971Y0267821D01*
X0387997Y0267967D01*
X0388027Y0268112D01*
X0388060Y0268256D01*
X0388098Y0268399D01*
X0388139Y0268541D01*
X0388184Y0268682D01*
X0388232Y0268822D01*
X0388285Y0268961D01*
X0388341Y0269098D01*
X0388401Y0269233D01*
X0388464Y0269367D01*
X0388531Y0269499D01*
X0388602Y0269629D01*
X0388676Y0269757D01*
X0388753Y0269883D01*
X0388834Y0270007D01*
X0388918Y0270129D01*
X0389005Y0270248D01*
X0389096Y0270365D01*
X0389190Y0270480D01*
X0389286Y0270592D01*
X0389386Y0270702D01*
X0389488Y0270808D01*
X0389594Y0270912D01*
X0389702Y0271013D01*
X0389813Y0271111D01*
X0389926Y0271207D01*
X0390042Y0271299D01*
X0390160Y0271388D01*
X0390281Y0271473D01*
X0390404Y0271556D01*
X0390529Y0271635D01*
X0390656Y0271711D01*
X0390785Y0271783D01*
X0390916Y0271852D01*
X0391049Y0271917D01*
X0391184Y0271978D01*
X0391320Y0272036D01*
X0391457Y0272091D01*
X0391596Y0272141D01*
X0391737Y0272188D01*
X0391878Y0272231D01*
X0392021Y0272271D01*
X0392165Y0272306D01*
X0392309Y0272338D01*
X0392455Y0272365D01*
X0392601Y0272389D01*
X0392748Y0272409D01*
X0392895Y0272425D01*
X0393042Y0272437D01*
X0393190Y0272445D01*
X0393338Y0272449D01*
X0393486Y0272449D01*
X0393634Y0272445D01*
X0393782Y0272437D01*
X0393929Y0272425D01*
X0394076Y0272409D01*
X0394223Y0272389D01*
X0394369Y0272365D01*
X0394515Y0272338D01*
X0394659Y0272306D01*
X0394803Y0272271D01*
X0394946Y0272231D01*
X0395087Y0272188D01*
X0395228Y0272141D01*
X0395367Y0272091D01*
X0395504Y0272036D01*
X0395640Y0271978D01*
X0395775Y0271917D01*
X0395908Y0271852D01*
X0396039Y0271783D01*
X0396168Y0271711D01*
X0396295Y0271635D01*
X0396420Y0271556D01*
X0396543Y0271473D01*
X0396664Y0271388D01*
X0396782Y0271299D01*
X0396898Y0271207D01*
X0397011Y0271111D01*
X0397122Y0271013D01*
X0397230Y0270912D01*
X0397336Y0270808D01*
X0397438Y0270702D01*
X0397538Y0270592D01*
X0397634Y0270480D01*
X0397728Y0270365D01*
X0397819Y0270248D01*
X0397906Y0270129D01*
X0397990Y0270007D01*
X0398071Y0269883D01*
X0398148Y0269757D01*
X0398222Y0269629D01*
X0398293Y0269499D01*
X0398360Y0269367D01*
X0398423Y0269233D01*
X0398483Y0269098D01*
X0398539Y0268961D01*
X0398592Y0268822D01*
X0398640Y0268682D01*
X0398685Y0268541D01*
X0398726Y0268399D01*
X0398764Y0268256D01*
X0398797Y0268112D01*
X0398827Y0267967D01*
X0398853Y0267821D01*
X0398874Y0267675D01*
X0398892Y0267528D01*
X0398906Y0267381D01*
X0398916Y0267233D01*
X0398922Y0267085D01*
X0398924Y0266937D01*
X0398922Y0266789D01*
X0398916Y0266641D01*
X0398906Y0266493D01*
X0398892Y0266346D01*
X0398874Y0266199D01*
X0398853Y0266053D01*
X0398827Y0265907D01*
X0398797Y0265762D01*
X0398764Y0265618D01*
X0398726Y0265475D01*
X0398685Y0265333D01*
X0398640Y0265192D01*
X0398592Y0265052D01*
X0398539Y0264913D01*
X0398483Y0264776D01*
X0398423Y0264641D01*
X0398360Y0264507D01*
X0398293Y0264375D01*
X0398222Y0264245D01*
X0398148Y0264117D01*
X0398071Y0263991D01*
X0397990Y0263867D01*
X0397906Y0263745D01*
X0397819Y0263626D01*
X0397728Y0263509D01*
X0397634Y0263394D01*
X0397538Y0263282D01*
X0397438Y0263172D01*
X0397336Y0263066D01*
X0397230Y0262962D01*
X0397122Y0262861D01*
X0397011Y0262763D01*
X0396898Y0262667D01*
X0396782Y0262575D01*
X0396664Y0262486D01*
X0396543Y0262401D01*
X0396420Y0262318D01*
X0396295Y0262239D01*
X0396168Y0262163D01*
X0396039Y0262091D01*
X0395908Y0262022D01*
X0395775Y0261957D01*
X0395640Y0261896D01*
X0395504Y0261838D01*
X0395367Y0261783D01*
X0395228Y0261733D01*
X0395087Y0261686D01*
X0394946Y0261643D01*
X0394803Y0261603D01*
X0394659Y0261568D01*
X0394515Y0261536D01*
X0394369Y0261509D01*
X0394223Y0261485D01*
X0394076Y0261465D01*
X0393929Y0261449D01*
X0393782Y0261437D01*
X0393634Y0261429D01*
X0393486Y0261425D01*
X0393338Y0261425D01*
X0393190Y0261429D01*
X0393042Y0261437D01*
X0392895Y0261449D01*
X0392748Y0261465D01*
X0392601Y0261485D01*
X0392455Y0261509D01*
X0392309Y0261536D01*
X0392165Y0261568D01*
X0392021Y0261603D01*
X0391878Y0261643D01*
X0391737Y0261686D01*
X0391596Y0261733D01*
X0391457Y0261783D01*
X0391320Y0261838D01*
X0391184Y0261896D01*
X0391049Y0261957D01*
X0390916Y0262022D01*
X0390785Y0262091D01*
X0390656Y0262163D01*
X0390529Y0262239D01*
X0390404Y0262318D01*
X0390281Y0262401D01*
X0390160Y0262486D01*
X0390042Y0262575D01*
X0389926Y0262667D01*
X0389813Y0262763D01*
X0389702Y0262861D01*
X0389594Y0262962D01*
X0389488Y0263066D01*
X0389386Y0263172D01*
X0389286Y0263282D01*
X0389190Y0263394D01*
X0389096Y0263509D01*
X0389005Y0263626D01*
X0388918Y0263745D01*
X0388834Y0263867D01*
X0388753Y0263991D01*
X0388676Y0264117D01*
X0388602Y0264245D01*
X0388531Y0264375D01*
X0388464Y0264507D01*
X0388401Y0264641D01*
X0388341Y0264776D01*
X0388285Y0264913D01*
X0388232Y0265052D01*
X0388184Y0265192D01*
X0388139Y0265333D01*
X0388098Y0265475D01*
X0388060Y0265618D01*
X0388027Y0265762D01*
X0387997Y0265907D01*
X0387971Y0266053D01*
X0387950Y0266199D01*
X0387932Y0266346D01*
X0387918Y0266493D01*
X0387908Y0266641D01*
X0387902Y0266789D01*
X0387900Y0266937D01*
X0379631Y0026780D02*
X0379633Y0026868D01*
X0379639Y0026956D01*
X0379649Y0027044D01*
X0379663Y0027132D01*
X0379680Y0027218D01*
X0379702Y0027304D01*
X0379727Y0027388D01*
X0379757Y0027472D01*
X0379789Y0027554D01*
X0379826Y0027634D01*
X0379866Y0027713D01*
X0379910Y0027790D01*
X0379957Y0027865D01*
X0380007Y0027937D01*
X0380061Y0028008D01*
X0380117Y0028075D01*
X0380177Y0028141D01*
X0380239Y0028203D01*
X0380305Y0028263D01*
X0380372Y0028319D01*
X0380443Y0028373D01*
X0380515Y0028423D01*
X0380590Y0028470D01*
X0380667Y0028514D01*
X0380746Y0028554D01*
X0380826Y0028591D01*
X0380908Y0028623D01*
X0380992Y0028653D01*
X0381076Y0028678D01*
X0381162Y0028700D01*
X0381248Y0028717D01*
X0381336Y0028731D01*
X0381424Y0028741D01*
X0381512Y0028747D01*
X0381600Y0028749D01*
X0381688Y0028747D01*
X0381776Y0028741D01*
X0381864Y0028731D01*
X0381952Y0028717D01*
X0382038Y0028700D01*
X0382124Y0028678D01*
X0382208Y0028653D01*
X0382292Y0028623D01*
X0382374Y0028591D01*
X0382454Y0028554D01*
X0382533Y0028514D01*
X0382610Y0028470D01*
X0382685Y0028423D01*
X0382757Y0028373D01*
X0382828Y0028319D01*
X0382895Y0028263D01*
X0382961Y0028203D01*
X0383023Y0028141D01*
X0383083Y0028075D01*
X0383139Y0028008D01*
X0383193Y0027937D01*
X0383243Y0027865D01*
X0383290Y0027790D01*
X0383334Y0027713D01*
X0383374Y0027634D01*
X0383411Y0027554D01*
X0383443Y0027472D01*
X0383473Y0027388D01*
X0383498Y0027304D01*
X0383520Y0027218D01*
X0383537Y0027132D01*
X0383551Y0027044D01*
X0383561Y0026956D01*
X0383567Y0026868D01*
X0383569Y0026780D01*
X0383567Y0026692D01*
X0383561Y0026604D01*
X0383551Y0026516D01*
X0383537Y0026428D01*
X0383520Y0026342D01*
X0383498Y0026256D01*
X0383473Y0026172D01*
X0383443Y0026088D01*
X0383411Y0026006D01*
X0383374Y0025926D01*
X0383334Y0025847D01*
X0383290Y0025770D01*
X0383243Y0025695D01*
X0383193Y0025623D01*
X0383139Y0025552D01*
X0383083Y0025485D01*
X0383023Y0025419D01*
X0382961Y0025357D01*
X0382895Y0025297D01*
X0382828Y0025241D01*
X0382757Y0025187D01*
X0382685Y0025137D01*
X0382610Y0025090D01*
X0382533Y0025046D01*
X0382454Y0025006D01*
X0382374Y0024969D01*
X0382292Y0024937D01*
X0382208Y0024907D01*
X0382124Y0024882D01*
X0382038Y0024860D01*
X0381952Y0024843D01*
X0381864Y0024829D01*
X0381776Y0024819D01*
X0381688Y0024813D01*
X0381600Y0024811D01*
X0381512Y0024813D01*
X0381424Y0024819D01*
X0381336Y0024829D01*
X0381248Y0024843D01*
X0381162Y0024860D01*
X0381076Y0024882D01*
X0380992Y0024907D01*
X0380908Y0024937D01*
X0380826Y0024969D01*
X0380746Y0025006D01*
X0380667Y0025046D01*
X0380590Y0025090D01*
X0380515Y0025137D01*
X0380443Y0025187D01*
X0380372Y0025241D01*
X0380305Y0025297D01*
X0380239Y0025357D01*
X0380177Y0025419D01*
X0380117Y0025485D01*
X0380061Y0025552D01*
X0380007Y0025623D01*
X0379957Y0025695D01*
X0379910Y0025770D01*
X0379866Y0025847D01*
X0379826Y0025926D01*
X0379789Y0026006D01*
X0379757Y0026088D01*
X0379727Y0026172D01*
X0379702Y0026256D01*
X0379680Y0026342D01*
X0379663Y0026428D01*
X0379649Y0026516D01*
X0379639Y0026604D01*
X0379633Y0026692D01*
X0379631Y0026780D01*
X0387900Y0014969D02*
X0387902Y0015117D01*
X0387908Y0015265D01*
X0387918Y0015413D01*
X0387932Y0015560D01*
X0387950Y0015707D01*
X0387971Y0015853D01*
X0387997Y0015999D01*
X0388027Y0016144D01*
X0388060Y0016288D01*
X0388098Y0016431D01*
X0388139Y0016573D01*
X0388184Y0016714D01*
X0388232Y0016854D01*
X0388285Y0016993D01*
X0388341Y0017130D01*
X0388401Y0017265D01*
X0388464Y0017399D01*
X0388531Y0017531D01*
X0388602Y0017661D01*
X0388676Y0017789D01*
X0388753Y0017915D01*
X0388834Y0018039D01*
X0388918Y0018161D01*
X0389005Y0018280D01*
X0389096Y0018397D01*
X0389190Y0018512D01*
X0389286Y0018624D01*
X0389386Y0018734D01*
X0389488Y0018840D01*
X0389594Y0018944D01*
X0389702Y0019045D01*
X0389813Y0019143D01*
X0389926Y0019239D01*
X0390042Y0019331D01*
X0390160Y0019420D01*
X0390281Y0019505D01*
X0390404Y0019588D01*
X0390529Y0019667D01*
X0390656Y0019743D01*
X0390785Y0019815D01*
X0390916Y0019884D01*
X0391049Y0019949D01*
X0391184Y0020010D01*
X0391320Y0020068D01*
X0391457Y0020123D01*
X0391596Y0020173D01*
X0391737Y0020220D01*
X0391878Y0020263D01*
X0392021Y0020303D01*
X0392165Y0020338D01*
X0392309Y0020370D01*
X0392455Y0020397D01*
X0392601Y0020421D01*
X0392748Y0020441D01*
X0392895Y0020457D01*
X0393042Y0020469D01*
X0393190Y0020477D01*
X0393338Y0020481D01*
X0393486Y0020481D01*
X0393634Y0020477D01*
X0393782Y0020469D01*
X0393929Y0020457D01*
X0394076Y0020441D01*
X0394223Y0020421D01*
X0394369Y0020397D01*
X0394515Y0020370D01*
X0394659Y0020338D01*
X0394803Y0020303D01*
X0394946Y0020263D01*
X0395087Y0020220D01*
X0395228Y0020173D01*
X0395367Y0020123D01*
X0395504Y0020068D01*
X0395640Y0020010D01*
X0395775Y0019949D01*
X0395908Y0019884D01*
X0396039Y0019815D01*
X0396168Y0019743D01*
X0396295Y0019667D01*
X0396420Y0019588D01*
X0396543Y0019505D01*
X0396664Y0019420D01*
X0396782Y0019331D01*
X0396898Y0019239D01*
X0397011Y0019143D01*
X0397122Y0019045D01*
X0397230Y0018944D01*
X0397336Y0018840D01*
X0397438Y0018734D01*
X0397538Y0018624D01*
X0397634Y0018512D01*
X0397728Y0018397D01*
X0397819Y0018280D01*
X0397906Y0018161D01*
X0397990Y0018039D01*
X0398071Y0017915D01*
X0398148Y0017789D01*
X0398222Y0017661D01*
X0398293Y0017531D01*
X0398360Y0017399D01*
X0398423Y0017265D01*
X0398483Y0017130D01*
X0398539Y0016993D01*
X0398592Y0016854D01*
X0398640Y0016714D01*
X0398685Y0016573D01*
X0398726Y0016431D01*
X0398764Y0016288D01*
X0398797Y0016144D01*
X0398827Y0015999D01*
X0398853Y0015853D01*
X0398874Y0015707D01*
X0398892Y0015560D01*
X0398906Y0015413D01*
X0398916Y0015265D01*
X0398922Y0015117D01*
X0398924Y0014969D01*
X0398922Y0014821D01*
X0398916Y0014673D01*
X0398906Y0014525D01*
X0398892Y0014378D01*
X0398874Y0014231D01*
X0398853Y0014085D01*
X0398827Y0013939D01*
X0398797Y0013794D01*
X0398764Y0013650D01*
X0398726Y0013507D01*
X0398685Y0013365D01*
X0398640Y0013224D01*
X0398592Y0013084D01*
X0398539Y0012945D01*
X0398483Y0012808D01*
X0398423Y0012673D01*
X0398360Y0012539D01*
X0398293Y0012407D01*
X0398222Y0012277D01*
X0398148Y0012149D01*
X0398071Y0012023D01*
X0397990Y0011899D01*
X0397906Y0011777D01*
X0397819Y0011658D01*
X0397728Y0011541D01*
X0397634Y0011426D01*
X0397538Y0011314D01*
X0397438Y0011204D01*
X0397336Y0011098D01*
X0397230Y0010994D01*
X0397122Y0010893D01*
X0397011Y0010795D01*
X0396898Y0010699D01*
X0396782Y0010607D01*
X0396664Y0010518D01*
X0396543Y0010433D01*
X0396420Y0010350D01*
X0396295Y0010271D01*
X0396168Y0010195D01*
X0396039Y0010123D01*
X0395908Y0010054D01*
X0395775Y0009989D01*
X0395640Y0009928D01*
X0395504Y0009870D01*
X0395367Y0009815D01*
X0395228Y0009765D01*
X0395087Y0009718D01*
X0394946Y0009675D01*
X0394803Y0009635D01*
X0394659Y0009600D01*
X0394515Y0009568D01*
X0394369Y0009541D01*
X0394223Y0009517D01*
X0394076Y0009497D01*
X0393929Y0009481D01*
X0393782Y0009469D01*
X0393634Y0009461D01*
X0393486Y0009457D01*
X0393338Y0009457D01*
X0393190Y0009461D01*
X0393042Y0009469D01*
X0392895Y0009481D01*
X0392748Y0009497D01*
X0392601Y0009517D01*
X0392455Y0009541D01*
X0392309Y0009568D01*
X0392165Y0009600D01*
X0392021Y0009635D01*
X0391878Y0009675D01*
X0391737Y0009718D01*
X0391596Y0009765D01*
X0391457Y0009815D01*
X0391320Y0009870D01*
X0391184Y0009928D01*
X0391049Y0009989D01*
X0390916Y0010054D01*
X0390785Y0010123D01*
X0390656Y0010195D01*
X0390529Y0010271D01*
X0390404Y0010350D01*
X0390281Y0010433D01*
X0390160Y0010518D01*
X0390042Y0010607D01*
X0389926Y0010699D01*
X0389813Y0010795D01*
X0389702Y0010893D01*
X0389594Y0010994D01*
X0389488Y0011098D01*
X0389386Y0011204D01*
X0389286Y0011314D01*
X0389190Y0011426D01*
X0389096Y0011541D01*
X0389005Y0011658D01*
X0388918Y0011777D01*
X0388834Y0011899D01*
X0388753Y0012023D01*
X0388676Y0012149D01*
X0388602Y0012277D01*
X0388531Y0012407D01*
X0388464Y0012539D01*
X0388401Y0012673D01*
X0388341Y0012808D01*
X0388285Y0012945D01*
X0388232Y0013084D01*
X0388184Y0013224D01*
X0388139Y0013365D01*
X0388098Y0013507D01*
X0388060Y0013650D01*
X0388027Y0013794D01*
X0387997Y0013939D01*
X0387971Y0014085D01*
X0387950Y0014231D01*
X0387932Y0014378D01*
X0387918Y0014525D01*
X0387908Y0014673D01*
X0387902Y0014821D01*
X0387900Y0014969D01*
D11*
X0381600Y0031504D02*
X0336325Y0031504D01*
X0336325Y0031503D02*
X0336239Y0031505D01*
X0336153Y0031510D01*
X0336068Y0031520D01*
X0335983Y0031533D01*
X0335899Y0031550D01*
X0335815Y0031570D01*
X0335733Y0031594D01*
X0335652Y0031622D01*
X0335571Y0031653D01*
X0335493Y0031687D01*
X0335416Y0031725D01*
X0335341Y0031767D01*
X0335267Y0031811D01*
X0335196Y0031859D01*
X0335126Y0031910D01*
X0335059Y0031964D01*
X0334995Y0032020D01*
X0334933Y0032080D01*
X0334873Y0032142D01*
X0334817Y0032206D01*
X0334763Y0032273D01*
X0334712Y0032343D01*
X0334664Y0032414D01*
X0334620Y0032488D01*
X0334578Y0032563D01*
X0334540Y0032640D01*
X0334506Y0032718D01*
X0334475Y0032799D01*
X0334447Y0032880D01*
X0334423Y0032962D01*
X0334403Y0033046D01*
X0334386Y0033130D01*
X0334373Y0033215D01*
X0334363Y0033300D01*
X0334358Y0033386D01*
X0334356Y0033472D01*
X0334356Y0083866D01*
X0334357Y0083866D02*
X0334355Y0083952D01*
X0334350Y0084038D01*
X0334340Y0084123D01*
X0334327Y0084208D01*
X0334310Y0084292D01*
X0334290Y0084376D01*
X0334266Y0084458D01*
X0334238Y0084539D01*
X0334207Y0084620D01*
X0334173Y0084698D01*
X0334135Y0084775D01*
X0334093Y0084851D01*
X0334049Y0084924D01*
X0334001Y0084995D01*
X0333950Y0085065D01*
X0333896Y0085132D01*
X0333840Y0085196D01*
X0333780Y0085258D01*
X0333718Y0085318D01*
X0333654Y0085374D01*
X0333587Y0085428D01*
X0333517Y0085479D01*
X0333446Y0085527D01*
X0333373Y0085571D01*
X0333297Y0085613D01*
X0333220Y0085651D01*
X0333142Y0085685D01*
X0333061Y0085716D01*
X0332980Y0085744D01*
X0332898Y0085768D01*
X0332814Y0085788D01*
X0332730Y0085805D01*
X0332645Y0085818D01*
X0332560Y0085828D01*
X0332474Y0085833D01*
X0332388Y0085835D01*
X0289081Y0085835D01*
X0289081Y0186228D01*
X0332388Y0186228D01*
X0332474Y0186230D01*
X0332560Y0186235D01*
X0332645Y0186245D01*
X0332730Y0186258D01*
X0332814Y0186275D01*
X0332898Y0186295D01*
X0332980Y0186319D01*
X0333061Y0186347D01*
X0333142Y0186378D01*
X0333220Y0186412D01*
X0333297Y0186450D01*
X0333373Y0186492D01*
X0333446Y0186536D01*
X0333517Y0186584D01*
X0333587Y0186635D01*
X0333654Y0186689D01*
X0333718Y0186745D01*
X0333780Y0186805D01*
X0333840Y0186867D01*
X0333896Y0186931D01*
X0333950Y0186998D01*
X0334001Y0187068D01*
X0334049Y0187139D01*
X0334093Y0187213D01*
X0334135Y0187288D01*
X0334173Y0187365D01*
X0334207Y0187443D01*
X0334238Y0187524D01*
X0334266Y0187605D01*
X0334290Y0187687D01*
X0334310Y0187771D01*
X0334327Y0187855D01*
X0334340Y0187940D01*
X0334350Y0188025D01*
X0334355Y0188111D01*
X0334357Y0188197D01*
X0334356Y0188197D02*
X0334356Y0217724D01*
X0334358Y0217810D01*
X0334363Y0217896D01*
X0334373Y0217981D01*
X0334386Y0218066D01*
X0334403Y0218150D01*
X0334423Y0218234D01*
X0334447Y0218316D01*
X0334475Y0218397D01*
X0334506Y0218478D01*
X0334540Y0218556D01*
X0334578Y0218633D01*
X0334620Y0218709D01*
X0334664Y0218782D01*
X0334712Y0218853D01*
X0334763Y0218923D01*
X0334817Y0218990D01*
X0334873Y0219054D01*
X0334933Y0219116D01*
X0334995Y0219176D01*
X0335059Y0219232D01*
X0335126Y0219286D01*
X0335196Y0219337D01*
X0335267Y0219385D01*
X0335341Y0219429D01*
X0335416Y0219471D01*
X0335493Y0219509D01*
X0335571Y0219543D01*
X0335652Y0219574D01*
X0335733Y0219602D01*
X0335815Y0219626D01*
X0335899Y0219646D01*
X0335983Y0219663D01*
X0336068Y0219676D01*
X0336153Y0219686D01*
X0336239Y0219691D01*
X0336325Y0219693D01*
X0381600Y0219693D01*
X0381686Y0219691D01*
X0381772Y0219686D01*
X0381857Y0219676D01*
X0381942Y0219663D01*
X0382026Y0219646D01*
X0382110Y0219626D01*
X0382192Y0219602D01*
X0382273Y0219574D01*
X0382354Y0219543D01*
X0382432Y0219509D01*
X0382509Y0219471D01*
X0382585Y0219429D01*
X0382658Y0219385D01*
X0382729Y0219337D01*
X0382799Y0219286D01*
X0382866Y0219232D01*
X0382930Y0219176D01*
X0382992Y0219116D01*
X0383052Y0219054D01*
X0383108Y0218990D01*
X0383162Y0218923D01*
X0383213Y0218853D01*
X0383261Y0218782D01*
X0383305Y0218709D01*
X0383347Y0218633D01*
X0383385Y0218556D01*
X0383419Y0218478D01*
X0383450Y0218397D01*
X0383478Y0218316D01*
X0383502Y0218234D01*
X0383522Y0218150D01*
X0383539Y0218066D01*
X0383552Y0217981D01*
X0383562Y0217896D01*
X0383567Y0217810D01*
X0383569Y0217724D01*
X0383569Y0188197D01*
X0383568Y0188197D02*
X0383570Y0188111D01*
X0383575Y0188025D01*
X0383585Y0187940D01*
X0383598Y0187855D01*
X0383615Y0187771D01*
X0383635Y0187687D01*
X0383659Y0187605D01*
X0383687Y0187524D01*
X0383718Y0187443D01*
X0383752Y0187365D01*
X0383790Y0187288D01*
X0383832Y0187213D01*
X0383876Y0187139D01*
X0383924Y0187068D01*
X0383975Y0186998D01*
X0384029Y0186931D01*
X0384085Y0186867D01*
X0384145Y0186805D01*
X0384207Y0186745D01*
X0384271Y0186689D01*
X0384338Y0186635D01*
X0384408Y0186584D01*
X0384479Y0186536D01*
X0384553Y0186492D01*
X0384628Y0186450D01*
X0384705Y0186412D01*
X0384783Y0186378D01*
X0384864Y0186347D01*
X0384945Y0186319D01*
X0385027Y0186295D01*
X0385111Y0186275D01*
X0385195Y0186258D01*
X0385280Y0186245D01*
X0385365Y0186235D01*
X0385451Y0186230D01*
X0385537Y0186228D01*
X0386522Y0186228D01*
X0293805Y0215756D02*
X0293805Y0232291D01*
X0235734Y0148236D02*
X0233569Y0146071D01*
X0241640Y0112803D02*
X0239474Y0110638D01*
X0139774Y0038350D02*
X0136037Y0038350D01*
X0137906Y0016202D02*
X0137906Y0012466D01*
X0139774Y0014334D02*
X0136037Y0014334D01*
X0099908Y0058866D02*
X0099908Y0060638D01*
X0101482Y0060638D01*
X0097841Y0059732D02*
X0097843Y0059776D01*
X0097849Y0059820D01*
X0097859Y0059863D01*
X0097872Y0059905D01*
X0097889Y0059946D01*
X0097910Y0059985D01*
X0097934Y0060022D01*
X0097961Y0060057D01*
X0097991Y0060089D01*
X0098024Y0060119D01*
X0098060Y0060145D01*
X0098097Y0060169D01*
X0098137Y0060188D01*
X0098178Y0060205D01*
X0098221Y0060217D01*
X0098264Y0060226D01*
X0098308Y0060231D01*
X0098352Y0060232D01*
X0098396Y0060229D01*
X0098440Y0060222D01*
X0098483Y0060211D01*
X0098525Y0060197D01*
X0098565Y0060179D01*
X0098604Y0060157D01*
X0098640Y0060133D01*
X0098674Y0060105D01*
X0098706Y0060074D01*
X0098735Y0060040D01*
X0098761Y0060004D01*
X0098783Y0059966D01*
X0098802Y0059926D01*
X0098817Y0059884D01*
X0098829Y0059842D01*
X0098837Y0059798D01*
X0098841Y0059754D01*
X0098841Y0059710D01*
X0098837Y0059666D01*
X0098829Y0059622D01*
X0098817Y0059580D01*
X0098802Y0059538D01*
X0098783Y0059498D01*
X0098761Y0059460D01*
X0098735Y0059424D01*
X0098706Y0059390D01*
X0098674Y0059359D01*
X0098640Y0059331D01*
X0098604Y0059307D01*
X0098565Y0059285D01*
X0098525Y0059267D01*
X0098483Y0059253D01*
X0098440Y0059242D01*
X0098396Y0059235D01*
X0098352Y0059232D01*
X0098308Y0059233D01*
X0098264Y0059238D01*
X0098221Y0059247D01*
X0098178Y0059259D01*
X0098137Y0059276D01*
X0098097Y0059295D01*
X0098060Y0059319D01*
X0098024Y0059345D01*
X0097991Y0059375D01*
X0097961Y0059407D01*
X0097934Y0059442D01*
X0097910Y0059479D01*
X0097889Y0059518D01*
X0097872Y0059559D01*
X0097859Y0059601D01*
X0097849Y0059644D01*
X0097843Y0059688D01*
X0097841Y0059732D01*
X0103254Y0103157D02*
X0103254Y0119693D01*
X0112703Y0119693D01*
X0112703Y0103157D01*
X0103254Y0103157D01*
X0081797Y0107291D02*
X0080026Y0107291D01*
X0080026Y0108866D01*
X0080431Y0105724D02*
X0080433Y0105768D01*
X0080439Y0105812D01*
X0080449Y0105855D01*
X0080462Y0105897D01*
X0080479Y0105938D01*
X0080500Y0105977D01*
X0080524Y0106014D01*
X0080551Y0106049D01*
X0080581Y0106081D01*
X0080614Y0106111D01*
X0080650Y0106137D01*
X0080687Y0106161D01*
X0080727Y0106180D01*
X0080768Y0106197D01*
X0080811Y0106209D01*
X0080854Y0106218D01*
X0080898Y0106223D01*
X0080942Y0106224D01*
X0080986Y0106221D01*
X0081030Y0106214D01*
X0081073Y0106203D01*
X0081115Y0106189D01*
X0081155Y0106171D01*
X0081194Y0106149D01*
X0081230Y0106125D01*
X0081264Y0106097D01*
X0081296Y0106066D01*
X0081325Y0106032D01*
X0081351Y0105996D01*
X0081373Y0105958D01*
X0081392Y0105918D01*
X0081407Y0105876D01*
X0081419Y0105834D01*
X0081427Y0105790D01*
X0081431Y0105746D01*
X0081431Y0105702D01*
X0081427Y0105658D01*
X0081419Y0105614D01*
X0081407Y0105572D01*
X0081392Y0105530D01*
X0081373Y0105490D01*
X0081351Y0105452D01*
X0081325Y0105416D01*
X0081296Y0105382D01*
X0081264Y0105351D01*
X0081230Y0105323D01*
X0081194Y0105299D01*
X0081155Y0105277D01*
X0081115Y0105259D01*
X0081073Y0105245D01*
X0081030Y0105234D01*
X0080986Y0105227D01*
X0080942Y0105224D01*
X0080898Y0105225D01*
X0080854Y0105230D01*
X0080811Y0105239D01*
X0080768Y0105251D01*
X0080727Y0105268D01*
X0080687Y0105287D01*
X0080650Y0105311D01*
X0080614Y0105337D01*
X0080581Y0105367D01*
X0080551Y0105399D01*
X0080524Y0105434D01*
X0080500Y0105471D01*
X0080479Y0105510D01*
X0080462Y0105551D01*
X0080449Y0105593D01*
X0080439Y0105636D01*
X0080433Y0105680D01*
X0080431Y0105724D01*
X0076089Y0139083D02*
X0074120Y0139083D01*
X0076089Y0139083D02*
X0076089Y0148827D01*
X0076089Y0158669D02*
X0076089Y0172449D01*
X0076089Y0182291D02*
X0076089Y0186130D01*
X0038687Y0186130D01*
X0031207Y0147252D02*
X0031207Y0145283D01*
X0037112Y0139083D02*
X0052860Y0139083D01*
X0059553Y0139083D02*
X0067821Y0139083D01*
X0345380Y0024811D02*
X0346561Y0025992D01*
X0359553Y0025992D01*
X0360734Y0024811D01*
X0381600Y0031503D02*
X0381686Y0031505D01*
X0381772Y0031510D01*
X0381857Y0031520D01*
X0381942Y0031533D01*
X0382026Y0031550D01*
X0382110Y0031570D01*
X0382192Y0031594D01*
X0382273Y0031622D01*
X0382354Y0031653D01*
X0382432Y0031687D01*
X0382509Y0031725D01*
X0382585Y0031767D01*
X0382658Y0031811D01*
X0382729Y0031859D01*
X0382799Y0031910D01*
X0382866Y0031964D01*
X0382930Y0032020D01*
X0382992Y0032080D01*
X0383052Y0032142D01*
X0383108Y0032206D01*
X0383162Y0032273D01*
X0383213Y0032343D01*
X0383261Y0032414D01*
X0383305Y0032487D01*
X0383347Y0032563D01*
X0383385Y0032640D01*
X0383419Y0032718D01*
X0383450Y0032799D01*
X0383478Y0032880D01*
X0383502Y0032962D01*
X0383522Y0033046D01*
X0383539Y0033130D01*
X0383552Y0033215D01*
X0383562Y0033300D01*
X0383567Y0033386D01*
X0383569Y0033472D01*
X0383569Y0083866D01*
X0383568Y0083866D02*
X0383570Y0083952D01*
X0383575Y0084038D01*
X0383585Y0084123D01*
X0383598Y0084208D01*
X0383615Y0084292D01*
X0383635Y0084376D01*
X0383659Y0084458D01*
X0383687Y0084539D01*
X0383718Y0084620D01*
X0383752Y0084698D01*
X0383790Y0084775D01*
X0383832Y0084851D01*
X0383876Y0084924D01*
X0383924Y0084995D01*
X0383975Y0085065D01*
X0384029Y0085132D01*
X0384085Y0085196D01*
X0384145Y0085258D01*
X0384207Y0085318D01*
X0384271Y0085374D01*
X0384338Y0085428D01*
X0384408Y0085479D01*
X0384479Y0085527D01*
X0384553Y0085571D01*
X0384628Y0085613D01*
X0384705Y0085651D01*
X0384783Y0085685D01*
X0384864Y0085716D01*
X0384945Y0085744D01*
X0385027Y0085768D01*
X0385111Y0085788D01*
X0385195Y0085805D01*
X0385280Y0085818D01*
X0385365Y0085828D01*
X0385451Y0085833D01*
X0385537Y0085835D01*
X0386522Y0085835D01*
D12*
X0237859Y0266700D02*
X0238843Y0267684D01*
X0238843Y0272605D01*
X0235891Y0272605D01*
X0234906Y0271621D01*
X0234906Y0269652D01*
X0235891Y0268668D01*
X0238843Y0268668D01*
X0237859Y0266700D02*
X0236875Y0266700D01*
X0241352Y0269652D02*
X0242336Y0268668D01*
X0244304Y0268668D01*
X0245289Y0269652D01*
X0247797Y0269652D02*
X0247797Y0271621D01*
X0248782Y0272605D01*
X0250750Y0272605D01*
X0251734Y0271621D01*
X0251734Y0269652D01*
X0250750Y0268668D01*
X0248782Y0268668D01*
X0247797Y0269652D01*
X0254243Y0268668D02*
X0254243Y0272605D01*
X0256211Y0272605D02*
X0254243Y0270636D01*
X0256211Y0272605D02*
X0257195Y0272605D01*
X0259614Y0271621D02*
X0259614Y0269652D01*
X0260598Y0268668D01*
X0262567Y0268668D01*
X0263551Y0270636D02*
X0259614Y0270636D01*
X0259614Y0271621D02*
X0260598Y0272605D01*
X0262567Y0272605D01*
X0263551Y0271621D01*
X0263551Y0270636D01*
X0245289Y0273589D02*
X0244304Y0274573D01*
X0242336Y0274573D01*
X0241352Y0273589D01*
X0241352Y0269652D01*
D13*
X0212445Y0246081D02*
X0211311Y0245514D01*
X0210176Y0244379D01*
X0211878Y0244379D01*
X0212445Y0243812D01*
X0212445Y0243245D01*
X0211878Y0242678D01*
X0210743Y0242678D01*
X0210176Y0243245D01*
X0210176Y0244379D01*
X0208762Y0244379D02*
X0206493Y0244379D01*
X0208195Y0246081D01*
X0208195Y0242678D01*
X0205079Y0242678D02*
X0203944Y0243812D01*
X0204511Y0243812D02*
X0202810Y0243812D01*
X0202810Y0242678D02*
X0202810Y0246081D01*
X0204511Y0246081D01*
X0205079Y0245514D01*
X0205079Y0244379D01*
X0204511Y0243812D01*
X0231590Y0218080D02*
X0232158Y0218647D01*
X0232725Y0218647D01*
X0233292Y0218080D01*
X0233292Y0216946D01*
X0232725Y0216379D01*
X0232158Y0216379D01*
X0231590Y0216946D01*
X0231590Y0218080D01*
X0233292Y0218080D02*
X0233859Y0218647D01*
X0234426Y0218647D01*
X0234993Y0218080D01*
X0234993Y0216946D01*
X0234426Y0216379D01*
X0233859Y0216379D01*
X0233292Y0216946D01*
X0233859Y0214964D02*
X0234426Y0214964D01*
X0234993Y0214397D01*
X0234993Y0213263D01*
X0234426Y0212696D01*
X0234993Y0211281D02*
X0233859Y0210147D01*
X0233859Y0210714D02*
X0233859Y0209013D01*
X0234993Y0209013D02*
X0231590Y0209013D01*
X0231590Y0210714D01*
X0232158Y0211281D01*
X0233292Y0211281D01*
X0233859Y0210714D01*
X0232158Y0212696D02*
X0231590Y0213263D01*
X0231590Y0214397D01*
X0232158Y0214964D01*
X0232725Y0214964D01*
X0233292Y0214397D01*
X0233859Y0214964D01*
X0233292Y0214397D02*
X0233292Y0213830D01*
X0237910Y0204191D02*
X0237343Y0203624D01*
X0237343Y0201355D01*
X0237910Y0200788D01*
X0239045Y0200788D01*
X0239612Y0201355D01*
X0241026Y0200788D02*
X0243295Y0203057D01*
X0243295Y0203624D01*
X0242728Y0204191D01*
X0241593Y0204191D01*
X0241026Y0203624D01*
X0239612Y0203624D02*
X0239045Y0204191D01*
X0237910Y0204191D01*
X0241026Y0200788D02*
X0243295Y0200788D01*
X0244709Y0201355D02*
X0245277Y0200788D01*
X0246411Y0200788D01*
X0246978Y0201355D01*
X0246978Y0201922D01*
X0246411Y0202490D01*
X0244709Y0202490D01*
X0244709Y0201355D01*
X0244709Y0202490D02*
X0245844Y0203624D01*
X0246978Y0204191D01*
X0248913Y0209013D02*
X0248913Y0210714D01*
X0249480Y0211281D01*
X0250615Y0211281D01*
X0251182Y0210714D01*
X0251182Y0209013D01*
X0251182Y0210147D02*
X0252316Y0211281D01*
X0251749Y0212696D02*
X0252316Y0213263D01*
X0252316Y0214397D01*
X0251749Y0214964D01*
X0251182Y0214964D01*
X0250615Y0214397D01*
X0250615Y0213830D01*
X0250615Y0214397D02*
X0250048Y0214964D01*
X0249480Y0214964D01*
X0248913Y0214397D01*
X0248913Y0213263D01*
X0249480Y0212696D01*
X0249480Y0216379D02*
X0250048Y0216379D01*
X0250615Y0216946D01*
X0250615Y0218647D01*
X0251749Y0218647D02*
X0249480Y0218647D01*
X0248913Y0218080D01*
X0248913Y0216946D01*
X0249480Y0216379D01*
X0251749Y0216379D02*
X0252316Y0216946D01*
X0252316Y0218080D01*
X0251749Y0218647D01*
X0252316Y0209013D02*
X0248913Y0209013D01*
X0266868Y0200986D02*
X0266868Y0198718D01*
X0267435Y0198151D01*
X0268569Y0198151D01*
X0269137Y0198718D01*
X0270551Y0198718D02*
X0271118Y0198151D01*
X0272253Y0198151D01*
X0272820Y0198718D01*
X0272820Y0200986D01*
X0272253Y0201554D01*
X0271118Y0201554D01*
X0270551Y0200986D01*
X0270551Y0198718D01*
X0269137Y0200986D02*
X0268569Y0201554D01*
X0267435Y0201554D01*
X0266868Y0200986D01*
X0274234Y0201554D02*
X0274234Y0198151D01*
X0276503Y0198151D02*
X0274234Y0201554D01*
X0276503Y0201554D02*
X0276503Y0198151D01*
X0277917Y0199852D02*
X0280186Y0199852D01*
X0279619Y0198151D02*
X0279619Y0201554D01*
X0277917Y0199852D01*
X0260433Y0195270D02*
X0260433Y0193001D01*
X0259866Y0192434D01*
X0258732Y0192434D01*
X0258164Y0193001D01*
X0260433Y0195270D01*
X0259866Y0195837D01*
X0258732Y0195837D01*
X0258164Y0195270D01*
X0258164Y0193001D01*
X0256750Y0192434D02*
X0254481Y0192434D01*
X0255616Y0192434D02*
X0255616Y0195837D01*
X0254481Y0194702D01*
X0253067Y0195837D02*
X0253067Y0193001D01*
X0252500Y0192434D01*
X0251365Y0192434D01*
X0250798Y0193001D01*
X0250798Y0195837D01*
X0271402Y0185106D02*
X0271969Y0185673D01*
X0272536Y0185673D01*
X0273103Y0185106D01*
X0273670Y0185673D01*
X0274237Y0185673D01*
X0274804Y0185106D01*
X0274804Y0183972D01*
X0274237Y0183405D01*
X0274804Y0181990D02*
X0271402Y0181990D01*
X0271969Y0183405D02*
X0271402Y0183972D01*
X0271402Y0185106D01*
X0273103Y0185106D02*
X0273103Y0184539D01*
X0274804Y0181990D02*
X0271402Y0179721D01*
X0274804Y0179721D01*
X0274237Y0178307D02*
X0271969Y0178307D01*
X0271402Y0177740D01*
X0271402Y0176605D01*
X0271969Y0176038D01*
X0274237Y0176038D01*
X0274804Y0176605D01*
X0274804Y0177740D01*
X0274237Y0178307D01*
X0274237Y0174624D02*
X0274804Y0174057D01*
X0274804Y0172922D01*
X0274237Y0172355D01*
X0271969Y0172355D01*
X0271402Y0172922D01*
X0271402Y0174057D01*
X0271969Y0174624D01*
X0259295Y0165766D02*
X0259295Y0165199D01*
X0257027Y0162930D01*
X0257027Y0162363D01*
X0255612Y0162363D02*
X0253343Y0162363D01*
X0255612Y0164632D01*
X0255612Y0165199D01*
X0255045Y0165766D01*
X0253911Y0165766D01*
X0253343Y0165199D01*
X0251929Y0165199D02*
X0251362Y0165766D01*
X0250227Y0165766D01*
X0249660Y0165199D01*
X0249660Y0162930D01*
X0250227Y0162363D01*
X0251362Y0162363D01*
X0251929Y0162930D01*
X0257027Y0165766D02*
X0259295Y0165766D01*
X0243153Y0164064D02*
X0240885Y0164064D01*
X0242586Y0165766D01*
X0242586Y0162363D01*
X0243041Y0160884D02*
X0240772Y0160884D01*
X0240772Y0159183D01*
X0241907Y0159750D01*
X0242474Y0159750D01*
X0243041Y0159183D01*
X0243041Y0158048D01*
X0242474Y0157481D01*
X0241340Y0157481D01*
X0240772Y0158048D01*
X0239358Y0157481D02*
X0237089Y0157481D01*
X0239358Y0159750D01*
X0239358Y0160317D01*
X0238791Y0160884D01*
X0237656Y0160884D01*
X0237089Y0160317D01*
X0235675Y0160317D02*
X0235108Y0160884D01*
X0233973Y0160884D01*
X0233406Y0160317D01*
X0233406Y0158048D01*
X0233973Y0157481D01*
X0235108Y0157481D01*
X0235675Y0158048D01*
X0235787Y0162363D02*
X0234653Y0163497D01*
X0235220Y0163497D02*
X0233519Y0163497D01*
X0233519Y0162363D02*
X0233519Y0165766D01*
X0235220Y0165766D01*
X0235787Y0165199D01*
X0235787Y0164064D01*
X0235220Y0163497D01*
X0237202Y0164064D02*
X0239470Y0164064D01*
X0238903Y0162363D02*
X0238903Y0165766D01*
X0237202Y0164064D01*
X0218744Y0168395D02*
X0216475Y0168395D01*
X0218177Y0170097D01*
X0218177Y0166694D01*
X0215061Y0167261D02*
X0214494Y0166694D01*
X0213359Y0166694D01*
X0212792Y0167261D01*
X0211378Y0166694D02*
X0210243Y0167828D01*
X0210811Y0167828D02*
X0209109Y0167828D01*
X0209109Y0166694D02*
X0209109Y0170097D01*
X0210811Y0170097D01*
X0211378Y0169529D01*
X0211378Y0168395D01*
X0210811Y0167828D01*
X0212792Y0169529D02*
X0213359Y0170097D01*
X0214494Y0170097D01*
X0215061Y0169529D01*
X0215061Y0168962D01*
X0214494Y0168395D01*
X0215061Y0167828D01*
X0215061Y0167261D01*
X0214494Y0168395D02*
X0213927Y0168395D01*
X0214494Y0174568D02*
X0213359Y0174568D01*
X0212792Y0175135D01*
X0211378Y0174568D02*
X0210243Y0175702D01*
X0210811Y0175702D02*
X0209109Y0175702D01*
X0209109Y0174568D02*
X0209109Y0177971D01*
X0210811Y0177971D01*
X0211378Y0177403D01*
X0211378Y0176269D01*
X0210811Y0175702D01*
X0212792Y0177403D02*
X0213359Y0177971D01*
X0214494Y0177971D01*
X0215061Y0177403D01*
X0215061Y0176836D01*
X0214494Y0176269D01*
X0215061Y0175702D01*
X0215061Y0175135D01*
X0214494Y0174568D01*
X0214494Y0176269D02*
X0213927Y0176269D01*
X0216475Y0176269D02*
X0216475Y0175135D01*
X0217043Y0174568D01*
X0218177Y0174568D01*
X0218744Y0175135D01*
X0218744Y0175702D01*
X0218177Y0176269D01*
X0216475Y0176269D01*
X0217610Y0177403D01*
X0218744Y0177971D01*
X0205058Y0187166D02*
X0205058Y0187733D01*
X0207327Y0190002D01*
X0207327Y0190569D01*
X0205058Y0190569D01*
X0203644Y0190002D02*
X0203644Y0189435D01*
X0203076Y0188868D01*
X0203644Y0188300D01*
X0203644Y0187733D01*
X0203076Y0187166D01*
X0201942Y0187166D01*
X0201375Y0187733D01*
X0199960Y0187166D02*
X0198826Y0188300D01*
X0199393Y0188300D02*
X0197692Y0188300D01*
X0197692Y0187166D02*
X0197692Y0190569D01*
X0199393Y0190569D01*
X0199960Y0190002D01*
X0199960Y0188868D01*
X0199393Y0188300D01*
X0201375Y0190002D02*
X0201942Y0190569D01*
X0203076Y0190569D01*
X0203644Y0190002D01*
X0203076Y0188868D02*
X0202509Y0188868D01*
X0203263Y0207245D02*
X0202696Y0207812D01*
X0203263Y0207245D02*
X0204397Y0207245D01*
X0204965Y0207812D01*
X0204965Y0208946D01*
X0204397Y0209513D01*
X0203830Y0209513D01*
X0202696Y0208946D01*
X0202696Y0210648D01*
X0204965Y0210648D01*
X0201281Y0208946D02*
X0199013Y0208946D01*
X0200714Y0210648D01*
X0200714Y0207245D01*
X0197598Y0207245D02*
X0196464Y0208379D01*
X0197031Y0208379D02*
X0195330Y0208379D01*
X0195330Y0207245D02*
X0195330Y0210648D01*
X0197031Y0210648D01*
X0197598Y0210081D01*
X0197598Y0208946D01*
X0197031Y0208379D01*
X0114718Y0208666D02*
X0114151Y0208099D01*
X0113017Y0208099D01*
X0112450Y0208666D01*
X0111035Y0208666D02*
X0110468Y0208099D01*
X0109334Y0208099D01*
X0108766Y0208666D01*
X0108766Y0210935D01*
X0109334Y0211502D01*
X0110468Y0211502D01*
X0111035Y0210935D01*
X0111035Y0208666D01*
X0111035Y0208099D02*
X0109901Y0209234D01*
X0112450Y0210935D02*
X0113017Y0211502D01*
X0114151Y0211502D01*
X0114718Y0210935D01*
X0114718Y0210368D01*
X0114151Y0209801D01*
X0114718Y0209234D01*
X0114718Y0208666D01*
X0114151Y0209801D02*
X0113584Y0209801D01*
X0099523Y0203144D02*
X0098956Y0203711D01*
X0097822Y0203711D01*
X0097255Y0203144D01*
X0097255Y0200875D01*
X0097822Y0200308D01*
X0098956Y0200308D01*
X0099523Y0200875D01*
X0099523Y0202009D01*
X0098389Y0202009D01*
X0098956Y0195837D02*
X0097255Y0194135D01*
X0099523Y0194135D01*
X0098956Y0192434D02*
X0098956Y0195837D01*
X0106241Y0190412D02*
X0107942Y0190412D01*
X0108509Y0189844D01*
X0108509Y0188710D01*
X0107942Y0188143D01*
X0106241Y0188143D01*
X0107375Y0188143D02*
X0108509Y0187009D01*
X0109924Y0187576D02*
X0110491Y0187009D01*
X0111625Y0187009D01*
X0112193Y0187576D01*
X0112193Y0188143D01*
X0111625Y0188710D01*
X0111058Y0188710D01*
X0111625Y0188710D02*
X0112193Y0189277D01*
X0112193Y0189844D01*
X0111625Y0190412D01*
X0110491Y0190412D01*
X0109924Y0189844D01*
X0113607Y0190412D02*
X0113607Y0188710D01*
X0114741Y0189277D01*
X0115309Y0189277D01*
X0115876Y0188710D01*
X0115876Y0187576D01*
X0115309Y0187009D01*
X0114174Y0187009D01*
X0113607Y0187576D01*
X0113607Y0190412D02*
X0115876Y0190412D01*
X0106241Y0190412D02*
X0106241Y0187009D01*
X0099523Y0186828D02*
X0097255Y0184560D01*
X0099523Y0184560D01*
X0099523Y0186828D02*
X0099523Y0187396D01*
X0098956Y0187963D01*
X0097822Y0187963D01*
X0097255Y0187396D01*
X0098389Y0180089D02*
X0098389Y0176686D01*
X0097255Y0176686D02*
X0099523Y0176686D01*
X0100544Y0174971D02*
X0100544Y0173269D01*
X0101679Y0173836D01*
X0102246Y0173836D01*
X0102813Y0173269D01*
X0102813Y0172135D01*
X0102246Y0171568D01*
X0101111Y0171568D01*
X0100544Y0172135D01*
X0099130Y0171568D02*
X0096861Y0171568D01*
X0097995Y0171568D02*
X0097995Y0174971D01*
X0096861Y0173836D01*
X0100544Y0174971D02*
X0102813Y0174971D01*
X0102639Y0176686D02*
X0102639Y0180089D01*
X0100938Y0178387D01*
X0103207Y0178387D01*
X0098389Y0180089D02*
X0097255Y0178954D01*
X0098389Y0164341D02*
X0098389Y0160938D01*
X0097255Y0160938D02*
X0099523Y0160938D01*
X0100938Y0161505D02*
X0101505Y0160938D01*
X0102639Y0160938D01*
X0103207Y0161505D01*
X0103207Y0162072D01*
X0102639Y0162639D01*
X0102072Y0162639D01*
X0102639Y0162639D02*
X0103207Y0163206D01*
X0103207Y0163774D01*
X0102639Y0164341D01*
X0101505Y0164341D01*
X0100938Y0163774D01*
X0098389Y0164341D02*
X0097255Y0163206D01*
X0098389Y0156467D02*
X0098389Y0153064D01*
X0097255Y0153064D02*
X0099523Y0153064D01*
X0100938Y0153064D02*
X0103207Y0155332D01*
X0103207Y0155900D01*
X0102639Y0156467D01*
X0101505Y0156467D01*
X0100938Y0155900D01*
X0098389Y0156467D02*
X0097255Y0155332D01*
X0100938Y0153064D02*
X0103207Y0153064D01*
X0106241Y0162206D02*
X0106241Y0165608D01*
X0107942Y0165608D01*
X0108509Y0165041D01*
X0108509Y0163907D01*
X0107942Y0163340D01*
X0106241Y0163340D01*
X0107375Y0163340D02*
X0108509Y0162206D01*
X0109924Y0162773D02*
X0110491Y0162206D01*
X0111625Y0162206D01*
X0112193Y0162773D01*
X0112193Y0163340D01*
X0111625Y0163907D01*
X0111058Y0163907D01*
X0111625Y0163907D02*
X0112193Y0164474D01*
X0112193Y0165041D01*
X0111625Y0165608D01*
X0110491Y0165608D01*
X0109924Y0165041D01*
X0113607Y0165041D02*
X0114174Y0165608D01*
X0115309Y0165608D01*
X0115876Y0165041D01*
X0115876Y0164474D01*
X0115309Y0163907D01*
X0115876Y0163340D01*
X0115876Y0162773D01*
X0115309Y0162206D01*
X0114174Y0162206D01*
X0113607Y0162773D01*
X0114741Y0163907D02*
X0115309Y0163907D01*
X0116920Y0141624D02*
X0116920Y0138788D01*
X0117487Y0138221D01*
X0118622Y0138221D01*
X0119189Y0138788D01*
X0119189Y0141624D01*
X0120603Y0139923D02*
X0122872Y0139923D01*
X0122305Y0141624D02*
X0120603Y0139923D01*
X0122305Y0138221D02*
X0122305Y0141624D01*
X0110190Y0135403D02*
X0110190Y0134269D01*
X0109623Y0133702D01*
X0110190Y0132287D02*
X0110190Y0130019D01*
X0110190Y0131153D02*
X0106787Y0131153D01*
X0107922Y0130019D01*
X0107354Y0128604D02*
X0106787Y0128037D01*
X0106787Y0126903D01*
X0107354Y0126335D01*
X0109623Y0126335D01*
X0110190Y0126903D01*
X0110190Y0128037D01*
X0109623Y0128604D01*
X0107354Y0133702D02*
X0106787Y0134269D01*
X0106787Y0135403D01*
X0107354Y0135970D01*
X0107922Y0135970D01*
X0108489Y0135403D01*
X0109056Y0135970D01*
X0109623Y0135970D01*
X0110190Y0135403D01*
X0108489Y0135403D02*
X0108489Y0134836D01*
X0083592Y0135561D02*
X0081324Y0135561D01*
X0083025Y0137262D01*
X0083025Y0133859D01*
X0079909Y0133859D02*
X0077640Y0133859D01*
X0079909Y0136128D01*
X0079909Y0136695D01*
X0079342Y0137262D01*
X0078208Y0137262D01*
X0077640Y0136695D01*
X0076226Y0136695D02*
X0076226Y0135561D01*
X0075659Y0134993D01*
X0073957Y0134993D01*
X0073957Y0133859D02*
X0073957Y0137262D01*
X0075659Y0137262D01*
X0076226Y0136695D01*
X0075092Y0134993D02*
X0076226Y0133859D01*
X0075508Y0126742D02*
X0075508Y0123907D01*
X0074941Y0123339D01*
X0073806Y0123339D01*
X0073239Y0123907D01*
X0073239Y0126742D01*
X0076922Y0125041D02*
X0078624Y0125041D01*
X0079191Y0124474D01*
X0079191Y0123907D01*
X0078624Y0123339D01*
X0077489Y0123339D01*
X0076922Y0123907D01*
X0076922Y0125041D01*
X0078057Y0126175D01*
X0079191Y0126742D01*
X0059183Y0127466D02*
X0056914Y0125198D01*
X0059183Y0125198D01*
X0059183Y0127466D02*
X0059183Y0128033D01*
X0058616Y0128601D01*
X0057481Y0128601D01*
X0056914Y0128033D01*
X0055500Y0128033D02*
X0054932Y0128601D01*
X0053798Y0128601D01*
X0053231Y0128033D01*
X0051816Y0128033D02*
X0051249Y0128601D01*
X0050115Y0128601D01*
X0049548Y0128033D01*
X0049548Y0125765D01*
X0050115Y0125198D01*
X0051249Y0125198D01*
X0051816Y0125765D01*
X0053231Y0125198D02*
X0055500Y0127466D01*
X0055500Y0128033D01*
X0055500Y0125198D02*
X0053231Y0125198D01*
X0052648Y0122195D02*
X0052648Y0119359D01*
X0053216Y0118792D01*
X0054350Y0118792D01*
X0054917Y0119359D01*
X0054917Y0122195D01*
X0056332Y0122195D02*
X0058600Y0122195D01*
X0058600Y0121628D01*
X0056332Y0119359D01*
X0056332Y0118792D01*
X0055500Y0133465D02*
X0053231Y0133465D01*
X0055500Y0135734D01*
X0055500Y0136301D01*
X0054932Y0136868D01*
X0053798Y0136868D01*
X0053231Y0136301D01*
X0051816Y0136301D02*
X0051249Y0136868D01*
X0050115Y0136868D01*
X0049548Y0136301D01*
X0049548Y0134033D01*
X0050115Y0133465D01*
X0051249Y0133465D01*
X0051816Y0134033D01*
X0056914Y0134033D02*
X0057481Y0133465D01*
X0058616Y0133465D01*
X0059183Y0134033D01*
X0059183Y0134600D01*
X0058616Y0135167D01*
X0058048Y0135167D01*
X0058616Y0135167D02*
X0059183Y0135734D01*
X0059183Y0136301D01*
X0058616Y0136868D01*
X0057481Y0136868D01*
X0056914Y0136301D01*
X0062513Y0102116D02*
X0061946Y0101549D01*
X0061946Y0099281D01*
X0062513Y0098713D01*
X0063647Y0098713D01*
X0064214Y0099281D01*
X0065629Y0098713D02*
X0067897Y0098713D01*
X0066763Y0098713D02*
X0066763Y0102116D01*
X0065629Y0100982D01*
X0064214Y0101549D02*
X0063647Y0102116D01*
X0062513Y0102116D01*
X0069312Y0101549D02*
X0069312Y0100982D01*
X0069879Y0100415D01*
X0071013Y0100415D01*
X0071580Y0099848D01*
X0071580Y0099281D01*
X0071013Y0098713D01*
X0069879Y0098713D01*
X0069312Y0099281D01*
X0069312Y0099848D01*
X0069879Y0100415D01*
X0071013Y0100415D02*
X0071580Y0100982D01*
X0071580Y0101549D01*
X0071013Y0102116D01*
X0069879Y0102116D01*
X0069312Y0101549D01*
X0052602Y0092931D02*
X0052602Y0092364D01*
X0050334Y0090095D01*
X0050334Y0089528D01*
X0048919Y0089528D02*
X0046651Y0089528D01*
X0048919Y0091797D01*
X0048919Y0092364D01*
X0048352Y0092931D01*
X0047218Y0092931D01*
X0046651Y0092364D01*
X0045236Y0092364D02*
X0045236Y0091230D01*
X0044669Y0090663D01*
X0042967Y0090663D01*
X0042967Y0089528D02*
X0042967Y0092931D01*
X0044669Y0092931D01*
X0045236Y0092364D01*
X0044102Y0090663D02*
X0045236Y0089528D01*
X0046030Y0087719D02*
X0047732Y0087719D01*
X0048299Y0087152D01*
X0048299Y0086017D01*
X0047732Y0085450D01*
X0046030Y0085450D01*
X0046030Y0084316D02*
X0046030Y0087719D01*
X0047165Y0085450D02*
X0048299Y0084316D01*
X0049714Y0084316D02*
X0051982Y0086584D01*
X0051982Y0087152D01*
X0051415Y0087719D01*
X0050281Y0087719D01*
X0049714Y0087152D01*
X0049714Y0084316D02*
X0051982Y0084316D01*
X0050934Y0079545D02*
X0050934Y0076143D01*
X0049800Y0076143D02*
X0052069Y0076143D01*
X0049800Y0078411D02*
X0050934Y0079545D01*
X0048386Y0078978D02*
X0048386Y0077844D01*
X0047818Y0077277D01*
X0046117Y0077277D01*
X0047251Y0077277D02*
X0048386Y0076143D01*
X0046117Y0076143D02*
X0046117Y0079545D01*
X0047818Y0079545D01*
X0048386Y0078978D01*
X0057339Y0079119D02*
X0057339Y0080820D01*
X0057906Y0081387D01*
X0059040Y0081387D01*
X0059607Y0080820D01*
X0059607Y0079119D01*
X0059607Y0080253D02*
X0060741Y0081387D01*
X0060741Y0082802D02*
X0060174Y0082802D01*
X0057906Y0085070D01*
X0057339Y0085070D01*
X0057339Y0082802D01*
X0057339Y0079119D02*
X0060741Y0079119D01*
X0062299Y0079658D02*
X0062866Y0079091D01*
X0065135Y0079091D01*
X0065702Y0079658D01*
X0065702Y0080793D01*
X0065135Y0081360D01*
X0065135Y0082774D02*
X0065702Y0083342D01*
X0065702Y0084476D01*
X0065135Y0085043D01*
X0064568Y0085043D01*
X0064001Y0084476D01*
X0064001Y0083909D01*
X0064001Y0084476D02*
X0063433Y0085043D01*
X0062866Y0085043D01*
X0062299Y0084476D01*
X0062299Y0083342D01*
X0062866Y0082774D01*
X0062866Y0081360D02*
X0062299Y0080793D01*
X0062299Y0079658D01*
X0071905Y0078378D02*
X0072473Y0077243D01*
X0073607Y0076109D01*
X0073607Y0077810D01*
X0074174Y0078378D01*
X0074741Y0078378D01*
X0075308Y0077810D01*
X0075308Y0076676D01*
X0074741Y0076109D01*
X0073607Y0076109D01*
X0073607Y0074694D02*
X0072473Y0074694D01*
X0071905Y0074127D01*
X0071905Y0072426D01*
X0075308Y0072426D01*
X0074174Y0072426D02*
X0074174Y0074127D01*
X0073607Y0074694D01*
X0074174Y0073560D02*
X0075308Y0074694D01*
X0080279Y0076859D02*
X0080279Y0079128D01*
X0079145Y0077994D02*
X0081413Y0077994D01*
X0089381Y0079128D02*
X0089381Y0076859D01*
X0089948Y0076292D01*
X0091082Y0076292D01*
X0091649Y0076859D01*
X0091649Y0079128D02*
X0091082Y0079695D01*
X0089948Y0079695D01*
X0089381Y0079128D01*
X0099617Y0079695D02*
X0099617Y0076292D01*
X0101318Y0076292D01*
X0101886Y0076859D01*
X0101886Y0079128D01*
X0101318Y0079695D01*
X0099617Y0079695D01*
X0109460Y0079128D02*
X0109460Y0076859D01*
X0110027Y0076292D01*
X0111161Y0076292D01*
X0111728Y0076859D01*
X0111728Y0077994D01*
X0110594Y0077994D01*
X0111728Y0079128D02*
X0111161Y0079695D01*
X0110027Y0079695D01*
X0109460Y0079128D01*
X0113440Y0090316D02*
X0113440Y0093719D01*
X0115141Y0093719D01*
X0115708Y0093152D01*
X0115708Y0092017D01*
X0115141Y0091450D01*
X0113440Y0091450D01*
X0114574Y0091450D02*
X0115708Y0090316D01*
X0117123Y0090316D02*
X0119392Y0090316D01*
X0118257Y0090316D02*
X0118257Y0093719D01*
X0117123Y0092584D01*
X0120806Y0092017D02*
X0120806Y0090883D01*
X0121373Y0090316D01*
X0122508Y0090316D01*
X0123075Y0090883D01*
X0123075Y0091450D01*
X0122508Y0092017D01*
X0120806Y0092017D01*
X0121940Y0093152D01*
X0123075Y0093719D01*
X0122901Y0099765D02*
X0121767Y0099765D01*
X0121200Y0100332D01*
X0123468Y0102600D01*
X0123468Y0100332D01*
X0122901Y0099765D01*
X0121200Y0100332D02*
X0121200Y0102600D01*
X0121767Y0103167D01*
X0122901Y0103167D01*
X0123468Y0102600D01*
X0119785Y0099765D02*
X0117517Y0099765D01*
X0118651Y0099765D02*
X0118651Y0103167D01*
X0117517Y0102033D01*
X0116102Y0102600D02*
X0115535Y0103167D01*
X0114401Y0103167D01*
X0113834Y0102600D01*
X0113834Y0100332D01*
X0114401Y0099765D01*
X0115535Y0099765D01*
X0116102Y0100332D01*
X0109183Y0097892D02*
X0106914Y0097892D01*
X0106914Y0096190D01*
X0108048Y0096758D01*
X0108616Y0096758D01*
X0109183Y0096190D01*
X0109183Y0095056D01*
X0108616Y0094489D01*
X0107481Y0094489D01*
X0106914Y0095056D01*
X0105500Y0094489D02*
X0103231Y0094489D01*
X0105500Y0096758D01*
X0105500Y0097325D01*
X0104932Y0097892D01*
X0103798Y0097892D01*
X0103231Y0097325D01*
X0101816Y0097325D02*
X0101816Y0096190D01*
X0101249Y0095623D01*
X0099548Y0095623D01*
X0099548Y0094489D02*
X0099548Y0097892D01*
X0101249Y0097892D01*
X0101816Y0097325D01*
X0101328Y0098583D02*
X0101328Y0101986D01*
X0100194Y0100852D01*
X0098779Y0101419D02*
X0098212Y0101986D01*
X0097078Y0101986D01*
X0096511Y0101419D01*
X0096511Y0099151D01*
X0097078Y0098583D01*
X0098212Y0098583D01*
X0098779Y0099151D01*
X0100194Y0098583D02*
X0102462Y0098583D01*
X0103877Y0099151D02*
X0104444Y0098583D01*
X0105578Y0098583D01*
X0106146Y0099151D01*
X0106146Y0099718D01*
X0105578Y0100285D01*
X0103877Y0100285D01*
X0103877Y0099151D01*
X0103877Y0100285D02*
X0105011Y0101419D01*
X0106146Y0101986D01*
X0100682Y0095623D02*
X0101816Y0094489D01*
X0137412Y0098119D02*
X0137979Y0097552D01*
X0139114Y0097552D01*
X0139681Y0098119D01*
X0139681Y0100955D01*
X0141095Y0100388D02*
X0141663Y0100955D01*
X0142797Y0100955D01*
X0143364Y0100388D01*
X0143364Y0099821D01*
X0142797Y0099253D01*
X0143364Y0098686D01*
X0143364Y0098119D01*
X0142797Y0097552D01*
X0141663Y0097552D01*
X0141095Y0098119D01*
X0142230Y0099253D02*
X0142797Y0099253D01*
X0137412Y0098119D02*
X0137412Y0100955D01*
X0144570Y0106867D02*
X0145137Y0106300D01*
X0146271Y0106300D01*
X0146838Y0106867D01*
X0148253Y0106867D02*
X0148820Y0106300D01*
X0149954Y0106300D01*
X0150521Y0106867D01*
X0150521Y0109136D01*
X0149954Y0109703D01*
X0148820Y0109703D01*
X0148253Y0109136D01*
X0148253Y0108569D01*
X0148820Y0108001D01*
X0150521Y0108001D01*
X0146838Y0109136D02*
X0146271Y0109703D01*
X0145137Y0109703D01*
X0144570Y0109136D01*
X0144570Y0106867D01*
X0144055Y0111969D02*
X0142921Y0113104D01*
X0143488Y0113104D02*
X0141786Y0113104D01*
X0141786Y0111969D02*
X0141786Y0115372D01*
X0143488Y0115372D01*
X0144055Y0114805D01*
X0144055Y0113671D01*
X0143488Y0113104D01*
X0145469Y0114238D02*
X0146604Y0115372D01*
X0146604Y0111969D01*
X0147738Y0111969D02*
X0145469Y0111969D01*
X0149153Y0112536D02*
X0149153Y0113104D01*
X0149720Y0113671D01*
X0150854Y0113671D01*
X0151421Y0113104D01*
X0151421Y0112536D01*
X0150854Y0111969D01*
X0149720Y0111969D01*
X0149153Y0112536D01*
X0149720Y0113671D02*
X0149153Y0114238D01*
X0149153Y0114805D01*
X0149720Y0115372D01*
X0150854Y0115372D01*
X0151421Y0114805D01*
X0151421Y0114238D01*
X0150854Y0113671D01*
X0141972Y0120237D02*
X0139704Y0120237D01*
X0140838Y0120237D02*
X0140838Y0123640D01*
X0139704Y0122506D01*
X0138289Y0120237D02*
X0136021Y0120237D01*
X0137155Y0120237D02*
X0137155Y0123640D01*
X0136021Y0122506D01*
X0134606Y0123073D02*
X0134039Y0123640D01*
X0132905Y0123640D01*
X0132337Y0123073D01*
X0132337Y0120804D01*
X0132905Y0120237D01*
X0134039Y0120237D01*
X0134606Y0120804D01*
X0138851Y0126729D02*
X0141119Y0126729D01*
X0141686Y0127296D01*
X0141686Y0128431D01*
X0141119Y0128998D01*
X0141686Y0130412D02*
X0141686Y0132681D01*
X0141686Y0131547D02*
X0138283Y0131547D01*
X0139418Y0130412D01*
X0138851Y0128998D02*
X0138283Y0128431D01*
X0138283Y0127296D01*
X0138851Y0126729D01*
X0138851Y0134095D02*
X0138283Y0134663D01*
X0138283Y0135797D01*
X0138851Y0136364D01*
X0139418Y0136364D01*
X0141686Y0134095D01*
X0141686Y0136364D01*
X0154267Y0145135D02*
X0154267Y0148538D01*
X0155402Y0147404D01*
X0156536Y0148538D01*
X0156536Y0145135D01*
X0157951Y0145135D02*
X0160219Y0145135D01*
X0159085Y0145135D02*
X0159085Y0148538D01*
X0157951Y0147404D01*
X0158392Y0135538D02*
X0158392Y0132135D01*
X0160661Y0132135D01*
X0162076Y0132135D02*
X0164344Y0132135D01*
X0163210Y0132135D02*
X0163210Y0135538D01*
X0162076Y0134403D01*
X0169416Y0132388D02*
X0169416Y0129552D01*
X0169983Y0128985D01*
X0171118Y0128985D01*
X0171685Y0129552D01*
X0171685Y0132388D01*
X0173099Y0132388D02*
X0173099Y0130686D01*
X0174234Y0131254D01*
X0174801Y0131254D01*
X0175368Y0130686D01*
X0175368Y0129552D01*
X0174801Y0128985D01*
X0173666Y0128985D01*
X0173099Y0129552D01*
X0173099Y0132388D02*
X0175368Y0132388D01*
X0175424Y0138347D02*
X0176559Y0138347D01*
X0177126Y0138914D01*
X0178540Y0138347D02*
X0180809Y0138347D01*
X0179675Y0138347D02*
X0179675Y0141750D01*
X0178540Y0140616D01*
X0177126Y0141183D02*
X0176559Y0141750D01*
X0175424Y0141750D01*
X0174857Y0141183D01*
X0174857Y0138914D01*
X0175424Y0138347D01*
X0182223Y0138914D02*
X0182791Y0138347D01*
X0183925Y0138347D01*
X0184492Y0138914D01*
X0184492Y0140049D01*
X0183925Y0140616D01*
X0183358Y0140616D01*
X0182223Y0140049D01*
X0182223Y0141750D01*
X0184492Y0141750D01*
X0189071Y0142397D02*
X0189638Y0141830D01*
X0189071Y0142397D02*
X0189071Y0143531D01*
X0189638Y0144098D01*
X0190205Y0144098D01*
X0192474Y0141830D01*
X0192474Y0144098D01*
X0191907Y0145513D02*
X0192474Y0146080D01*
X0192474Y0147214D01*
X0191907Y0147781D01*
X0191339Y0147781D01*
X0190772Y0147214D01*
X0190772Y0146647D01*
X0190772Y0147214D02*
X0190205Y0147781D01*
X0189638Y0147781D01*
X0189071Y0147214D01*
X0189071Y0146080D01*
X0189638Y0145513D01*
X0189638Y0140415D02*
X0190772Y0140415D01*
X0191339Y0139848D01*
X0191339Y0138146D01*
X0192474Y0138146D02*
X0189071Y0138146D01*
X0189071Y0139848D01*
X0189638Y0140415D01*
X0191339Y0139281D02*
X0192474Y0140415D01*
X0196945Y0139848D02*
X0196945Y0138146D01*
X0200348Y0138146D01*
X0199213Y0138146D02*
X0199213Y0139848D01*
X0198646Y0140415D01*
X0197512Y0140415D01*
X0196945Y0139848D01*
X0197512Y0141830D02*
X0196945Y0142397D01*
X0196945Y0143531D01*
X0197512Y0144098D01*
X0198079Y0144098D01*
X0200348Y0141830D01*
X0200348Y0144098D01*
X0200348Y0145513D02*
X0198079Y0147781D01*
X0197512Y0147781D01*
X0196945Y0147214D01*
X0196945Y0146080D01*
X0197512Y0145513D01*
X0200348Y0145513D02*
X0200348Y0147781D01*
X0200348Y0140415D02*
X0199213Y0139281D01*
X0205060Y0120727D02*
X0206761Y0120727D01*
X0207328Y0120159D01*
X0207328Y0119025D01*
X0206761Y0118458D01*
X0205060Y0118458D01*
X0206194Y0118458D02*
X0207328Y0117324D01*
X0208743Y0117324D02*
X0211011Y0119592D01*
X0211011Y0120159D01*
X0210444Y0120727D01*
X0209310Y0120727D01*
X0208743Y0120159D01*
X0208743Y0117324D02*
X0211011Y0117324D01*
X0212426Y0117324D02*
X0214695Y0117324D01*
X0213560Y0117324D02*
X0213560Y0120727D01*
X0212426Y0119592D01*
X0210163Y0113010D02*
X0210730Y0112443D01*
X0210730Y0111876D01*
X0210163Y0111309D01*
X0209029Y0111309D01*
X0208462Y0111876D01*
X0208462Y0112443D01*
X0209029Y0113010D01*
X0210163Y0113010D01*
X0210163Y0111309D02*
X0210730Y0110741D01*
X0210730Y0110174D01*
X0210163Y0109607D01*
X0209029Y0109607D01*
X0208462Y0110174D01*
X0208462Y0110741D01*
X0209029Y0111309D01*
X0207047Y0112443D02*
X0206480Y0113010D01*
X0205346Y0113010D01*
X0204778Y0112443D01*
X0204778Y0110174D01*
X0205346Y0109607D01*
X0206480Y0109607D01*
X0207047Y0110174D01*
X0206367Y0104978D02*
X0206935Y0104411D01*
X0206935Y0103277D01*
X0206367Y0102710D01*
X0204666Y0102710D01*
X0205800Y0102710D02*
X0206935Y0101576D01*
X0208349Y0101576D02*
X0210618Y0103844D01*
X0210618Y0104411D01*
X0210051Y0104978D01*
X0208916Y0104978D01*
X0208349Y0104411D01*
X0206367Y0104978D02*
X0204666Y0104978D01*
X0204666Y0101576D01*
X0208349Y0101576D02*
X0210618Y0101576D01*
X0212032Y0102143D02*
X0214301Y0104411D01*
X0214301Y0102143D01*
X0213734Y0101576D01*
X0212599Y0101576D01*
X0212032Y0102143D01*
X0212032Y0104411D01*
X0212599Y0104978D01*
X0213734Y0104978D01*
X0214301Y0104411D01*
X0207798Y0093104D02*
X0207798Y0089702D01*
X0206664Y0089702D02*
X0208933Y0089702D01*
X0206664Y0091970D02*
X0207798Y0093104D01*
X0205250Y0092537D02*
X0205250Y0090269D01*
X0204682Y0089702D01*
X0203548Y0089702D01*
X0202981Y0090269D01*
X0202981Y0092537D01*
X0203548Y0093104D01*
X0204682Y0093104D01*
X0205250Y0092537D01*
X0204115Y0090836D02*
X0205250Y0089702D01*
X0200332Y0081133D02*
X0198063Y0081133D01*
X0197496Y0080566D01*
X0197496Y0079432D01*
X0198063Y0078865D01*
X0198630Y0078865D01*
X0199197Y0079432D01*
X0199197Y0081133D01*
X0200332Y0081133D02*
X0200899Y0080566D01*
X0200899Y0079432D01*
X0200332Y0078865D01*
X0200899Y0077450D02*
X0200899Y0075182D01*
X0200899Y0076316D02*
X0197496Y0076316D01*
X0198630Y0075182D01*
X0198063Y0073767D02*
X0199197Y0073767D01*
X0199765Y0073200D01*
X0199765Y0071499D01*
X0199765Y0072633D02*
X0200899Y0073767D01*
X0200899Y0071499D02*
X0197496Y0071499D01*
X0197496Y0073200D01*
X0198063Y0073767D01*
X0191860Y0067797D02*
X0191293Y0068364D01*
X0190159Y0068364D01*
X0189591Y0067797D01*
X0191860Y0067797D02*
X0191860Y0067230D01*
X0189591Y0064961D01*
X0191860Y0064961D01*
X0188177Y0064961D02*
X0185908Y0064961D01*
X0187043Y0064961D02*
X0187043Y0068364D01*
X0185908Y0067230D01*
X0184494Y0067797D02*
X0184494Y0066663D01*
X0183927Y0066096D01*
X0182225Y0066096D01*
X0183359Y0066096D02*
X0184494Y0064961D01*
X0182225Y0064961D02*
X0182225Y0068364D01*
X0183927Y0068364D01*
X0184494Y0067797D01*
X0184426Y0070430D02*
X0184993Y0070997D01*
X0184993Y0072131D01*
X0184426Y0072699D01*
X0184426Y0074113D02*
X0184993Y0074680D01*
X0184993Y0075815D01*
X0184426Y0076382D01*
X0183859Y0076382D01*
X0183292Y0075815D01*
X0183292Y0074113D01*
X0184426Y0074113D01*
X0183292Y0074113D02*
X0182158Y0075247D01*
X0181590Y0076382D01*
X0182158Y0072699D02*
X0181590Y0072131D01*
X0181590Y0070997D01*
X0182158Y0070430D01*
X0184426Y0070430D01*
X0182191Y0058669D02*
X0176286Y0058669D01*
X0176286Y0058670D02*
X0176220Y0058662D01*
X0176156Y0058650D01*
X0176092Y0058634D01*
X0176029Y0058615D01*
X0175968Y0058591D01*
X0175908Y0058564D01*
X0175850Y0058534D01*
X0175794Y0058500D01*
X0175740Y0058463D01*
X0175688Y0058422D01*
X0175639Y0058378D01*
X0175592Y0058332D01*
X0175549Y0058283D01*
X0175508Y0058231D01*
X0175471Y0058177D01*
X0175437Y0058121D01*
X0175407Y0058063D01*
X0175380Y0058003D01*
X0175356Y0057942D01*
X0175337Y0057879D01*
X0175321Y0057815D01*
X0175309Y0057751D01*
X0175301Y0057685D01*
X0175297Y0057620D01*
X0175297Y0057554D01*
X0175301Y0057489D01*
X0175301Y0057488D02*
X0175301Y0051189D01*
X0175297Y0051124D01*
X0175297Y0051058D01*
X0175301Y0050993D01*
X0175309Y0050927D01*
X0175321Y0050863D01*
X0175337Y0050799D01*
X0175356Y0050736D01*
X0175380Y0050675D01*
X0175407Y0050615D01*
X0175437Y0050557D01*
X0175471Y0050501D01*
X0175508Y0050447D01*
X0175549Y0050395D01*
X0175592Y0050346D01*
X0175639Y0050300D01*
X0175688Y0050256D01*
X0175740Y0050215D01*
X0175794Y0050178D01*
X0175850Y0050144D01*
X0175908Y0050114D01*
X0175968Y0050087D01*
X0176029Y0050063D01*
X0176092Y0050044D01*
X0176156Y0050028D01*
X0176220Y0050016D01*
X0176286Y0050008D01*
X0182191Y0050008D01*
X0182254Y0050016D01*
X0182316Y0050027D01*
X0182378Y0050042D01*
X0182438Y0050060D01*
X0182498Y0050082D01*
X0182556Y0050107D01*
X0182612Y0050136D01*
X0182667Y0050167D01*
X0182720Y0050202D01*
X0182770Y0050240D01*
X0182819Y0050281D01*
X0182864Y0050325D01*
X0182908Y0050371D01*
X0182948Y0050419D01*
X0182986Y0050470D01*
X0183020Y0050523D01*
X0183052Y0050578D01*
X0183080Y0050635D01*
X0183105Y0050693D01*
X0183126Y0050752D01*
X0183144Y0050813D01*
X0183158Y0050875D01*
X0183169Y0050937D01*
X0183176Y0051000D01*
X0183180Y0051063D01*
X0183179Y0051126D01*
X0183175Y0051189D01*
X0183175Y0057488D01*
X0183176Y0057489D02*
X0183179Y0057552D01*
X0183180Y0057615D01*
X0183176Y0057678D01*
X0183169Y0057741D01*
X0183158Y0057803D01*
X0183144Y0057865D01*
X0183126Y0057925D01*
X0183105Y0057985D01*
X0183080Y0058043D01*
X0183052Y0058100D01*
X0183020Y0058155D01*
X0182986Y0058207D01*
X0182948Y0058258D01*
X0182907Y0058307D01*
X0182864Y0058353D01*
X0182818Y0058397D01*
X0182770Y0058437D01*
X0182719Y0058475D01*
X0182667Y0058510D01*
X0182612Y0058542D01*
X0182556Y0058571D01*
X0182498Y0058596D01*
X0182438Y0058618D01*
X0182378Y0058636D01*
X0182316Y0058651D01*
X0182254Y0058662D01*
X0182191Y0058670D01*
X0188112Y0056457D02*
X0188112Y0054189D01*
X0188112Y0055323D02*
X0184709Y0055323D01*
X0185843Y0054189D01*
X0184709Y0052774D02*
X0184709Y0051640D01*
X0184709Y0052207D02*
X0187544Y0052207D01*
X0188112Y0051640D01*
X0188112Y0051073D01*
X0187544Y0050506D01*
X0186001Y0043167D02*
X0186001Y0039765D01*
X0184867Y0039765D02*
X0187136Y0039765D01*
X0184867Y0042033D02*
X0186001Y0043167D01*
X0182318Y0043167D02*
X0182318Y0039765D01*
X0181184Y0039765D02*
X0183452Y0039765D01*
X0181184Y0042033D02*
X0182318Y0043167D01*
X0179769Y0042600D02*
X0179769Y0041466D01*
X0179202Y0040899D01*
X0177501Y0040899D01*
X0178635Y0040899D02*
X0179769Y0039765D01*
X0177501Y0039765D02*
X0177501Y0043167D01*
X0179202Y0043167D01*
X0179769Y0042600D01*
X0171955Y0034063D02*
X0171955Y0015559D01*
X0174732Y0018666D02*
X0174165Y0019233D01*
X0174165Y0020367D01*
X0174732Y0020934D01*
X0175300Y0020934D01*
X0175867Y0020367D01*
X0176434Y0020934D01*
X0177001Y0020934D01*
X0177568Y0020367D01*
X0177568Y0019233D01*
X0177001Y0018666D01*
X0175867Y0019800D02*
X0175867Y0020367D01*
X0177001Y0022349D02*
X0177001Y0022916D01*
X0177568Y0022916D01*
X0177568Y0022349D01*
X0177001Y0022349D01*
X0177001Y0024190D02*
X0177568Y0024190D01*
X0177001Y0024190D02*
X0174732Y0026459D01*
X0174165Y0026459D01*
X0174165Y0024190D01*
X0180165Y0024497D02*
X0180165Y0026199D01*
X0180732Y0026766D01*
X0181867Y0026766D01*
X0182434Y0026199D01*
X0182434Y0024497D01*
X0183568Y0024497D02*
X0180165Y0024497D01*
X0180165Y0023176D02*
X0180165Y0022042D01*
X0180165Y0022609D02*
X0183568Y0022609D01*
X0183568Y0022042D02*
X0183568Y0023176D01*
X0183568Y0020627D02*
X0183568Y0018359D01*
X0180165Y0018359D01*
X0186165Y0017745D02*
X0186165Y0019446D01*
X0186732Y0020013D01*
X0187300Y0020013D01*
X0187867Y0019446D01*
X0187867Y0017745D01*
X0187867Y0019446D02*
X0188434Y0020013D01*
X0189001Y0020013D01*
X0189568Y0019446D01*
X0189568Y0017745D01*
X0186165Y0017745D01*
X0187300Y0021428D02*
X0186165Y0022562D01*
X0187300Y0023696D01*
X0189568Y0023696D01*
X0187867Y0023696D02*
X0187867Y0021428D01*
X0187300Y0021428D02*
X0189568Y0021428D01*
X0189568Y0026245D02*
X0186165Y0026245D01*
X0186165Y0025111D02*
X0186165Y0027380D01*
X0186165Y0028794D02*
X0186165Y0031063D01*
X0186165Y0029928D02*
X0189568Y0029928D01*
X0183568Y0029882D02*
X0183001Y0030449D01*
X0180732Y0030449D01*
X0180165Y0029882D01*
X0180165Y0028747D01*
X0180732Y0028180D01*
X0183001Y0028180D01*
X0183568Y0028747D01*
X0183568Y0029882D01*
X0177568Y0029008D02*
X0176434Y0030142D01*
X0174165Y0030142D01*
X0174165Y0027873D02*
X0176434Y0027873D01*
X0177568Y0029008D01*
X0158372Y0040362D02*
X0142034Y0040362D01*
X0142034Y0032488D01*
X0148333Y0032488D01*
X0140224Y0041891D02*
X0140224Y0045293D01*
X0138523Y0043592D01*
X0140791Y0043592D01*
X0137108Y0041891D02*
X0134840Y0041891D01*
X0135974Y0041891D02*
X0135974Y0045293D01*
X0134840Y0044159D01*
X0133425Y0044726D02*
X0133425Y0043592D01*
X0132858Y0043025D01*
X0131156Y0043025D01*
X0131156Y0041891D02*
X0131156Y0045293D01*
X0132858Y0045293D01*
X0133425Y0044726D01*
X0132291Y0043025D02*
X0133425Y0041891D01*
X0129702Y0038193D02*
X0129135Y0038193D01*
X0128568Y0037626D01*
X0128568Y0037058D01*
X0128568Y0037626D02*
X0128000Y0038193D01*
X0127433Y0038193D01*
X0126866Y0037626D01*
X0126866Y0036491D01*
X0127433Y0035924D01*
X0127433Y0034510D02*
X0128568Y0034510D01*
X0129135Y0033942D01*
X0129135Y0032241D01*
X0130269Y0032241D02*
X0126866Y0032241D01*
X0126866Y0033942D01*
X0127433Y0034510D01*
X0129135Y0033375D02*
X0130269Y0034510D01*
X0129702Y0035924D02*
X0130269Y0036491D01*
X0130269Y0037626D01*
X0129702Y0038193D01*
X0118458Y0037626D02*
X0118458Y0036491D01*
X0117891Y0035924D01*
X0116757Y0035924D02*
X0116189Y0037058D01*
X0116189Y0037626D01*
X0116757Y0038193D01*
X0117891Y0038193D01*
X0118458Y0037626D01*
X0116757Y0035924D02*
X0115055Y0035924D01*
X0115055Y0038193D01*
X0115622Y0034510D02*
X0116757Y0034510D01*
X0117324Y0033942D01*
X0117324Y0032241D01*
X0118458Y0032241D02*
X0115055Y0032241D01*
X0115055Y0033942D01*
X0115622Y0034510D01*
X0117324Y0033375D02*
X0118458Y0034510D01*
X0117303Y0024971D02*
X0117870Y0024403D01*
X0117870Y0023836D01*
X0117303Y0023269D01*
X0115601Y0023269D01*
X0115601Y0021568D02*
X0115601Y0024971D01*
X0117303Y0024971D01*
X0117303Y0023269D02*
X0117870Y0022702D01*
X0117870Y0022135D01*
X0117303Y0021568D01*
X0115601Y0021568D01*
X0119284Y0023269D02*
X0121553Y0023269D01*
X0120419Y0024403D02*
X0120419Y0022135D01*
X0109602Y0022135D02*
X0109602Y0023269D01*
X0108468Y0023269D01*
X0109602Y0022135D02*
X0109035Y0021568D01*
X0107901Y0021568D01*
X0107334Y0022135D01*
X0107334Y0024403D01*
X0107901Y0024971D01*
X0109035Y0024971D01*
X0109602Y0024403D01*
X0099366Y0024403D02*
X0098799Y0024971D01*
X0097664Y0024971D01*
X0097097Y0024403D01*
X0097097Y0022135D01*
X0097664Y0021568D01*
X0098799Y0021568D01*
X0099366Y0022135D01*
X0099366Y0023269D01*
X0098232Y0023269D01*
X0090497Y0021568D02*
X0089363Y0021568D01*
X0089930Y0021568D02*
X0089930Y0024971D01*
X0089363Y0024971D02*
X0090497Y0024971D01*
X0087949Y0024971D02*
X0087949Y0022702D01*
X0086814Y0021568D01*
X0085680Y0022702D01*
X0085680Y0024971D01*
X0086082Y0030316D02*
X0087216Y0030316D01*
X0087783Y0030883D01*
X0089198Y0030316D02*
X0091466Y0030316D01*
X0090332Y0030316D02*
X0090332Y0033719D01*
X0089198Y0032584D01*
X0087783Y0033152D02*
X0087216Y0033719D01*
X0086082Y0033719D01*
X0085515Y0033152D01*
X0085515Y0030883D01*
X0086082Y0030316D01*
X0080214Y0024971D02*
X0080214Y0021568D01*
X0079080Y0022702D01*
X0077946Y0021568D01*
X0077946Y0024971D01*
X0076531Y0024403D02*
X0075964Y0024971D01*
X0074830Y0024971D01*
X0074263Y0024403D01*
X0074263Y0023836D01*
X0074830Y0023269D01*
X0075964Y0023269D01*
X0076531Y0022702D01*
X0076531Y0022135D01*
X0075964Y0021568D01*
X0074830Y0021568D01*
X0074263Y0022135D01*
X0068893Y0022135D02*
X0068893Y0023269D01*
X0067759Y0023269D01*
X0066625Y0024403D02*
X0066625Y0022135D01*
X0067192Y0021568D01*
X0068326Y0021568D01*
X0068893Y0022135D01*
X0068893Y0024403D02*
X0068326Y0024971D01*
X0067192Y0024971D01*
X0066625Y0024403D01*
X0060766Y0024971D02*
X0060766Y0022702D01*
X0059631Y0021568D01*
X0058497Y0022702D01*
X0058497Y0024971D01*
X0057082Y0024971D02*
X0054814Y0024971D01*
X0054814Y0023269D01*
X0055948Y0023836D01*
X0056515Y0023836D01*
X0057082Y0023269D01*
X0057082Y0022135D01*
X0056515Y0021568D01*
X0055381Y0021568D01*
X0054814Y0022135D01*
X0044825Y0026292D02*
X0042556Y0026292D01*
X0043691Y0026292D02*
X0043691Y0029695D01*
X0042556Y0028561D01*
X0041142Y0029695D02*
X0041142Y0026292D01*
X0038873Y0029695D01*
X0038873Y0026292D01*
X0037459Y0026859D02*
X0037459Y0029128D01*
X0036891Y0029695D01*
X0035757Y0029695D01*
X0035190Y0029128D01*
X0035190Y0026859D01*
X0035757Y0026292D01*
X0036891Y0026292D01*
X0037459Y0026859D01*
X0033775Y0026859D02*
X0033208Y0026292D01*
X0032074Y0026292D01*
X0031507Y0026859D01*
X0031507Y0029128D01*
X0032074Y0029695D01*
X0033208Y0029695D01*
X0033775Y0029128D01*
X0069696Y0061331D02*
X0071397Y0061331D01*
X0071964Y0061899D01*
X0071964Y0064167D01*
X0071397Y0064734D01*
X0069696Y0064734D01*
X0069696Y0061331D01*
X0073379Y0061331D02*
X0075648Y0061331D01*
X0074513Y0061331D02*
X0074513Y0064734D01*
X0073379Y0063600D01*
X0086082Y0050648D02*
X0085515Y0050081D01*
X0085515Y0047812D01*
X0086082Y0047245D01*
X0087216Y0047245D01*
X0087783Y0047812D01*
X0089198Y0047245D02*
X0091466Y0049513D01*
X0091466Y0050081D01*
X0090899Y0050648D01*
X0089765Y0050648D01*
X0089198Y0050081D01*
X0087783Y0050081D02*
X0087216Y0050648D01*
X0086082Y0050648D01*
X0089198Y0047245D02*
X0091466Y0047245D01*
X0097496Y0037653D02*
X0099197Y0035952D01*
X0099197Y0038220D01*
X0100899Y0037653D02*
X0097496Y0037653D01*
X0098063Y0034537D02*
X0099197Y0034537D01*
X0099765Y0033970D01*
X0099765Y0032268D01*
X0100899Y0032268D02*
X0097496Y0032268D01*
X0097496Y0033970D01*
X0098063Y0034537D01*
X0099765Y0033403D02*
X0100899Y0034537D01*
X0100775Y0063300D02*
X0101909Y0063300D01*
X0102476Y0063867D01*
X0102476Y0066703D01*
X0103891Y0065569D02*
X0105025Y0066703D01*
X0105025Y0063300D01*
X0103891Y0063300D02*
X0106159Y0063300D01*
X0100775Y0063300D02*
X0100208Y0063867D01*
X0100208Y0066703D01*
X0122916Y0066790D02*
X0122916Y0063387D01*
X0122916Y0064521D02*
X0124618Y0064521D01*
X0125185Y0065088D01*
X0125185Y0066222D01*
X0124618Y0066790D01*
X0122916Y0066790D01*
X0124050Y0064521D02*
X0125185Y0063387D01*
X0126599Y0063954D02*
X0127166Y0063387D01*
X0128301Y0063387D01*
X0128868Y0063954D01*
X0128868Y0066222D01*
X0128301Y0066790D01*
X0127166Y0066790D01*
X0126599Y0066222D01*
X0126599Y0065655D01*
X0127166Y0065088D01*
X0128868Y0065088D01*
X0143712Y0054892D02*
X0143712Y0052056D01*
X0144279Y0051489D01*
X0145413Y0051489D01*
X0145980Y0052056D01*
X0145980Y0054892D01*
X0147395Y0054325D02*
X0147962Y0054892D01*
X0149096Y0054892D01*
X0149663Y0054325D01*
X0149663Y0053758D01*
X0147395Y0051489D01*
X0149663Y0051489D01*
X0152416Y0048049D02*
X0154118Y0048049D01*
X0154685Y0047482D01*
X0154685Y0046348D01*
X0154118Y0045781D01*
X0152416Y0045781D01*
X0153551Y0045781D02*
X0154685Y0044646D01*
X0156099Y0044646D02*
X0158368Y0044646D01*
X0157234Y0044646D02*
X0157234Y0048049D01*
X0156099Y0046915D01*
X0159783Y0047482D02*
X0160350Y0048049D01*
X0161484Y0048049D01*
X0162051Y0047482D01*
X0162051Y0046915D01*
X0161484Y0046348D01*
X0162051Y0045781D01*
X0162051Y0045214D01*
X0161484Y0044646D01*
X0160350Y0044646D01*
X0159783Y0045214D01*
X0160917Y0046348D02*
X0161484Y0046348D01*
X0152416Y0044646D02*
X0152416Y0048049D01*
X0155346Y0074174D02*
X0156480Y0074174D01*
X0157047Y0074741D01*
X0158462Y0074741D02*
X0159029Y0074174D01*
X0160163Y0074174D01*
X0160730Y0074741D01*
X0160730Y0075875D01*
X0160163Y0076443D01*
X0159596Y0076443D01*
X0158462Y0075875D01*
X0158462Y0077577D01*
X0160730Y0077577D01*
X0157047Y0077010D02*
X0156480Y0077577D01*
X0155346Y0077577D01*
X0154778Y0077010D01*
X0154778Y0074741D01*
X0155346Y0074174D01*
X0154952Y0082442D02*
X0156086Y0082442D01*
X0156653Y0083009D01*
X0154952Y0082442D02*
X0154385Y0083009D01*
X0154385Y0085277D01*
X0154952Y0085845D01*
X0156086Y0085845D01*
X0156653Y0085277D01*
X0158068Y0084143D02*
X0160336Y0084143D01*
X0159769Y0082442D02*
X0159769Y0085845D01*
X0158068Y0084143D01*
X0145494Y0081538D02*
X0143225Y0081538D01*
X0143225Y0079836D01*
X0144360Y0080403D01*
X0144927Y0080403D01*
X0145494Y0079836D01*
X0145494Y0078702D01*
X0144927Y0078135D01*
X0143792Y0078135D01*
X0143225Y0078702D01*
X0141811Y0078135D02*
X0139542Y0078135D01*
X0140676Y0078135D02*
X0140676Y0081538D01*
X0139542Y0080403D01*
X0138128Y0079836D02*
X0137560Y0079269D01*
X0135859Y0079269D01*
X0136993Y0079269D02*
X0138128Y0078135D01*
X0138128Y0079836D02*
X0138128Y0080970D01*
X0137560Y0081538D01*
X0135859Y0081538D01*
X0135859Y0078135D01*
X0162956Y0098796D02*
X0162956Y0102199D01*
X0164657Y0102199D01*
X0165224Y0101632D01*
X0165224Y0100498D01*
X0164657Y0099930D01*
X0162956Y0099930D01*
X0164090Y0099930D02*
X0165224Y0098796D01*
X0166639Y0098796D02*
X0168907Y0098796D01*
X0167773Y0098796D02*
X0167773Y0102199D01*
X0166639Y0101065D01*
X0170322Y0102199D02*
X0172590Y0102199D01*
X0172590Y0101632D01*
X0170322Y0099363D01*
X0170322Y0098796D01*
X0171720Y0109607D02*
X0171720Y0113010D01*
X0170019Y0111309D01*
X0172287Y0111309D01*
X0168604Y0109607D02*
X0166336Y0109607D01*
X0167470Y0109607D02*
X0167470Y0113010D01*
X0166336Y0111876D01*
X0164921Y0112443D02*
X0164354Y0113010D01*
X0163220Y0113010D01*
X0162652Y0112443D01*
X0162652Y0110174D01*
X0163220Y0109607D01*
X0164354Y0109607D01*
X0164921Y0110174D01*
X0205060Y0117324D02*
X0205060Y0120727D01*
X0240660Y0124792D02*
X0241227Y0124225D01*
X0242362Y0124225D01*
X0242929Y0124792D01*
X0242929Y0127628D01*
X0244343Y0127061D02*
X0244343Y0126494D01*
X0244911Y0125927D01*
X0246612Y0125927D01*
X0246612Y0127061D02*
X0246045Y0127628D01*
X0244911Y0127628D01*
X0244343Y0127061D01*
X0244343Y0124792D02*
X0244911Y0124225D01*
X0246045Y0124225D01*
X0246612Y0124792D01*
X0246612Y0127061D01*
X0240660Y0127628D02*
X0240660Y0124792D01*
X0254272Y0121340D02*
X0254272Y0119072D01*
X0254839Y0118505D01*
X0255974Y0118505D01*
X0256541Y0119072D01*
X0257955Y0118505D02*
X0260224Y0120773D01*
X0260224Y0121340D01*
X0259657Y0121908D01*
X0258523Y0121908D01*
X0257955Y0121340D01*
X0256541Y0121340D02*
X0255974Y0121908D01*
X0254839Y0121908D01*
X0254272Y0121340D01*
X0257955Y0118505D02*
X0260224Y0118505D01*
X0261639Y0120206D02*
X0263907Y0120206D01*
X0263340Y0118505D02*
X0263340Y0121908D01*
X0261639Y0120206D01*
X0246045Y0092589D02*
X0246612Y0092022D01*
X0246612Y0091454D01*
X0246045Y0090887D01*
X0244911Y0090887D01*
X0244343Y0091454D01*
X0244343Y0092022D01*
X0244911Y0092589D01*
X0246045Y0092589D01*
X0246045Y0090887D02*
X0246612Y0090320D01*
X0246612Y0089753D01*
X0246045Y0089186D01*
X0244911Y0089186D01*
X0244343Y0089753D01*
X0244343Y0090320D01*
X0244911Y0090887D01*
X0242929Y0089753D02*
X0242929Y0092589D01*
X0240660Y0092589D02*
X0240660Y0089753D01*
X0241227Y0089186D01*
X0242362Y0089186D01*
X0242929Y0089753D01*
X0257928Y0086238D02*
X0257928Y0082835D01*
X0257928Y0083970D02*
X0259629Y0083970D01*
X0260197Y0084537D01*
X0260197Y0085671D01*
X0259629Y0086238D01*
X0257928Y0086238D01*
X0259062Y0083970D02*
X0260197Y0082835D01*
X0261611Y0084537D02*
X0263880Y0084537D01*
X0265294Y0085104D02*
X0266429Y0086238D01*
X0266429Y0082835D01*
X0267563Y0082835D02*
X0265294Y0082835D01*
X0263313Y0082835D02*
X0263313Y0086238D01*
X0261611Y0084537D01*
X0250634Y0076222D02*
X0248365Y0073954D01*
X0248932Y0073387D01*
X0250067Y0073387D01*
X0250634Y0073954D01*
X0250634Y0076222D01*
X0250067Y0076790D01*
X0248932Y0076790D01*
X0248365Y0076222D01*
X0248365Y0073954D01*
X0246951Y0075088D02*
X0244682Y0075088D01*
X0246384Y0076790D01*
X0246384Y0073387D01*
X0243268Y0073387D02*
X0242133Y0074521D01*
X0242700Y0074521D02*
X0240999Y0074521D01*
X0240999Y0073387D02*
X0240999Y0076790D01*
X0242700Y0076790D01*
X0243268Y0076222D01*
X0243268Y0075088D01*
X0242700Y0074521D01*
X0232161Y0063577D02*
X0229893Y0063577D01*
X0228478Y0063010D02*
X0228478Y0060741D01*
X0227911Y0060174D01*
X0226777Y0060174D01*
X0226209Y0060741D01*
X0226209Y0063010D01*
X0226777Y0063577D01*
X0227911Y0063577D01*
X0228478Y0063010D01*
X0227344Y0061308D02*
X0228478Y0060174D01*
X0229893Y0060174D02*
X0229893Y0060741D01*
X0232161Y0063010D01*
X0232161Y0063577D01*
X0232111Y0051829D02*
X0234380Y0051829D01*
X0234380Y0051262D01*
X0232111Y0048993D01*
X0232111Y0048426D01*
X0230129Y0048426D02*
X0230129Y0051829D01*
X0228428Y0050127D01*
X0230696Y0050127D01*
X0227013Y0050127D02*
X0226446Y0049560D01*
X0224745Y0049560D01*
X0224745Y0048426D02*
X0224745Y0051829D01*
X0226446Y0051829D01*
X0227013Y0051262D01*
X0227013Y0050127D01*
X0225879Y0049560D02*
X0227013Y0048426D01*
X0226559Y0042538D02*
X0225424Y0042538D01*
X0224857Y0041970D01*
X0224857Y0039702D01*
X0225424Y0039135D01*
X0226559Y0039135D01*
X0227126Y0039702D01*
X0228540Y0039135D02*
X0230809Y0041403D01*
X0230809Y0041970D01*
X0230242Y0042538D01*
X0229107Y0042538D01*
X0228540Y0041970D01*
X0227126Y0041970D02*
X0226559Y0042538D01*
X0228540Y0039135D02*
X0230809Y0039135D01*
X0232223Y0039702D02*
X0232791Y0039135D01*
X0233925Y0039135D01*
X0234492Y0039702D01*
X0234492Y0041970D01*
X0233925Y0042538D01*
X0232791Y0042538D01*
X0232223Y0041970D01*
X0232223Y0041403D01*
X0232791Y0040836D01*
X0234492Y0040836D01*
X0231594Y0032475D02*
X0230460Y0032475D01*
X0229893Y0031907D01*
X0229893Y0031340D01*
X0230460Y0030773D01*
X0231594Y0030773D01*
X0232161Y0030206D01*
X0232161Y0029639D01*
X0231594Y0029072D01*
X0230460Y0029072D01*
X0229893Y0029639D01*
X0229893Y0030206D01*
X0230460Y0030773D01*
X0231594Y0030773D02*
X0232161Y0031340D01*
X0232161Y0031907D01*
X0231594Y0032475D01*
X0228478Y0031907D02*
X0228478Y0029639D01*
X0227911Y0029072D01*
X0226777Y0029072D01*
X0226209Y0029639D01*
X0226209Y0031907D01*
X0226777Y0032475D01*
X0227911Y0032475D01*
X0228478Y0031907D01*
X0227344Y0030206D02*
X0228478Y0029072D01*
X0228891Y0024971D02*
X0228891Y0022702D01*
X0230025Y0021568D01*
X0231159Y0022702D01*
X0231159Y0024971D01*
X0232574Y0024403D02*
X0233141Y0024971D01*
X0234275Y0024971D01*
X0234842Y0024403D01*
X0234842Y0023836D01*
X0234275Y0023269D01*
X0234842Y0022702D01*
X0234842Y0022135D01*
X0234275Y0021568D01*
X0233141Y0021568D01*
X0232574Y0022135D01*
X0233708Y0023269D02*
X0234275Y0023269D01*
X0238593Y0022135D02*
X0239161Y0021568D01*
X0240295Y0021568D01*
X0240862Y0022135D01*
X0240862Y0023269D01*
X0239728Y0023269D01*
X0240862Y0024403D02*
X0240295Y0024971D01*
X0239161Y0024971D01*
X0238593Y0024403D01*
X0238593Y0022135D01*
X0227476Y0022135D02*
X0226909Y0021568D01*
X0225775Y0021568D01*
X0225208Y0022135D01*
X0226342Y0023269D02*
X0226909Y0023269D01*
X0227476Y0022702D01*
X0227476Y0022135D01*
X0226909Y0023269D02*
X0227476Y0023836D01*
X0227476Y0024403D01*
X0226909Y0024971D01*
X0225775Y0024971D01*
X0225208Y0024403D01*
X0211442Y0015755D02*
X0209173Y0015755D01*
X0210308Y0014621D02*
X0210308Y0016890D01*
X0206009Y0016890D02*
X0204875Y0015755D01*
X0206009Y0014621D01*
X0202606Y0014621D01*
X0203173Y0013206D02*
X0202606Y0012639D01*
X0202606Y0011505D01*
X0203173Y0010938D01*
X0203741Y0010938D01*
X0204308Y0011505D01*
X0204308Y0012639D01*
X0204875Y0013206D01*
X0205442Y0013206D01*
X0206009Y0012639D01*
X0206009Y0011505D01*
X0205442Y0010938D01*
X0208606Y0010938D02*
X0210875Y0010938D01*
X0212009Y0012072D01*
X0210875Y0013206D01*
X0208606Y0013206D01*
X0206009Y0016890D02*
X0202606Y0016890D01*
X0201529Y0025154D02*
X0198126Y0025154D01*
X0198126Y0026856D01*
X0198693Y0027423D01*
X0199827Y0027423D01*
X0200395Y0026856D01*
X0200395Y0025154D01*
X0200395Y0026289D02*
X0201529Y0027423D01*
X0200962Y0028837D02*
X0200395Y0028837D01*
X0199827Y0029405D01*
X0199827Y0030539D01*
X0200395Y0031106D01*
X0200962Y0031106D01*
X0201529Y0030539D01*
X0201529Y0029405D01*
X0200962Y0028837D01*
X0199827Y0029405D02*
X0199260Y0028837D01*
X0198693Y0028837D01*
X0198126Y0029405D01*
X0198126Y0030539D01*
X0198693Y0031106D01*
X0199260Y0031106D01*
X0199827Y0030539D01*
X0199521Y0035121D02*
X0201789Y0035121D01*
X0200655Y0035121D02*
X0200655Y0038524D01*
X0199521Y0037389D01*
X0198106Y0038524D02*
X0195837Y0038524D01*
X0195837Y0035121D01*
X0195837Y0036822D02*
X0196972Y0036822D01*
X0186773Y0010396D02*
X0185639Y0010396D01*
X0185072Y0009829D01*
X0183657Y0010396D02*
X0183657Y0006993D01*
X0181389Y0010396D01*
X0181389Y0006993D01*
X0179974Y0007560D02*
X0179974Y0009829D01*
X0179407Y0010396D01*
X0178273Y0010396D01*
X0177706Y0009829D01*
X0177706Y0007560D01*
X0178273Y0006993D01*
X0179407Y0006993D01*
X0179974Y0007560D01*
X0176291Y0007560D02*
X0175724Y0006993D01*
X0174590Y0006993D01*
X0174022Y0007560D01*
X0174022Y0009829D01*
X0174590Y0010396D01*
X0175724Y0010396D01*
X0176291Y0009829D01*
X0185072Y0006993D02*
X0187340Y0009262D01*
X0187340Y0009829D01*
X0186773Y0010396D01*
X0187340Y0006993D02*
X0185072Y0006993D01*
X0158372Y0009260D02*
X0142034Y0009260D01*
X0142034Y0017134D01*
X0148333Y0017134D01*
X0246861Y0022135D02*
X0249130Y0024403D01*
X0249130Y0022135D01*
X0248563Y0021568D01*
X0247428Y0021568D01*
X0246861Y0022135D01*
X0246861Y0024403D01*
X0247428Y0024971D01*
X0248563Y0024971D01*
X0249130Y0024403D01*
X0255129Y0023836D02*
X0256263Y0024971D01*
X0256263Y0021568D01*
X0255129Y0021568D02*
X0257397Y0021568D01*
X0258812Y0022135D02*
X0259379Y0021568D01*
X0260513Y0021568D01*
X0261081Y0022135D01*
X0261081Y0024403D01*
X0260513Y0024971D01*
X0259379Y0024971D01*
X0258812Y0024403D01*
X0258812Y0023836D01*
X0259379Y0023269D01*
X0261081Y0023269D01*
X0264971Y0024403D02*
X0265538Y0024971D01*
X0266673Y0024971D01*
X0267240Y0024403D01*
X0267240Y0023836D01*
X0264971Y0021568D01*
X0267240Y0021568D01*
X0268654Y0022135D02*
X0269222Y0021568D01*
X0270356Y0021568D01*
X0270923Y0022135D01*
X0270923Y0023269D01*
X0270356Y0023836D01*
X0269789Y0023836D01*
X0268654Y0023269D01*
X0268654Y0024971D01*
X0270923Y0024971D01*
X0274814Y0024403D02*
X0275381Y0024971D01*
X0276515Y0024971D01*
X0277082Y0024403D01*
X0277082Y0023836D01*
X0274814Y0021568D01*
X0277082Y0021568D01*
X0278497Y0022135D02*
X0279064Y0021568D01*
X0280198Y0021568D01*
X0280766Y0022135D01*
X0280766Y0022702D01*
X0280198Y0023269D01*
X0278497Y0023269D01*
X0278497Y0022135D01*
X0278497Y0023269D02*
X0279631Y0024403D01*
X0280766Y0024971D01*
X0285444Y0024403D02*
X0286011Y0024971D01*
X0287145Y0024971D01*
X0287712Y0024403D01*
X0287712Y0023836D01*
X0287145Y0023269D01*
X0287712Y0022702D01*
X0287712Y0022135D01*
X0287145Y0021568D01*
X0286011Y0021568D01*
X0285444Y0022135D01*
X0286578Y0023269D02*
X0287145Y0023269D01*
X0289127Y0024403D02*
X0289694Y0024971D01*
X0290828Y0024971D01*
X0291396Y0024403D01*
X0291396Y0023836D01*
X0289127Y0021568D01*
X0291396Y0021568D01*
X0294893Y0022135D02*
X0295460Y0021568D01*
X0296594Y0021568D01*
X0297161Y0022135D01*
X0297161Y0022702D01*
X0296594Y0023269D01*
X0296027Y0023269D01*
X0296594Y0023269D02*
X0297161Y0023836D01*
X0297161Y0024403D01*
X0296594Y0024971D01*
X0295460Y0024971D01*
X0294893Y0024403D01*
X0298576Y0024403D02*
X0299143Y0024971D01*
X0300277Y0024971D01*
X0300844Y0024403D01*
X0300844Y0023836D01*
X0300277Y0023269D01*
X0300844Y0022702D01*
X0300844Y0022135D01*
X0300277Y0021568D01*
X0299143Y0021568D01*
X0298576Y0022135D01*
X0299710Y0023269D02*
X0300277Y0023269D01*
X0305129Y0022135D02*
X0305696Y0021568D01*
X0306830Y0021568D01*
X0307397Y0022135D01*
X0307397Y0022702D01*
X0306830Y0023269D01*
X0306263Y0023269D01*
X0306830Y0023269D02*
X0307397Y0023836D01*
X0307397Y0024403D01*
X0306830Y0024971D01*
X0305696Y0024971D01*
X0305129Y0024403D01*
X0308812Y0023269D02*
X0311081Y0023269D01*
X0310513Y0021568D02*
X0310513Y0024971D01*
X0308812Y0023269D01*
X0315365Y0022135D02*
X0315932Y0021568D01*
X0317066Y0021568D01*
X0317634Y0022135D01*
X0317634Y0022702D01*
X0317066Y0023269D01*
X0316499Y0023269D01*
X0317066Y0023269D02*
X0317634Y0023836D01*
X0317634Y0024403D01*
X0317066Y0024971D01*
X0315932Y0024971D01*
X0315365Y0024403D01*
X0319048Y0024971D02*
X0319048Y0023269D01*
X0320182Y0023836D01*
X0320750Y0023836D01*
X0321317Y0023269D01*
X0321317Y0022135D01*
X0320750Y0021568D01*
X0319615Y0021568D01*
X0319048Y0022135D01*
X0319048Y0024971D02*
X0321317Y0024971D01*
X0324814Y0024403D02*
X0325381Y0024971D01*
X0326515Y0024971D01*
X0327082Y0024403D01*
X0327082Y0023836D01*
X0326515Y0023269D01*
X0327082Y0022702D01*
X0327082Y0022135D01*
X0326515Y0021568D01*
X0325381Y0021568D01*
X0324814Y0022135D01*
X0325948Y0023269D02*
X0326515Y0023269D01*
X0328497Y0023269D02*
X0328497Y0022135D01*
X0329064Y0021568D01*
X0330198Y0021568D01*
X0330766Y0022135D01*
X0330766Y0022702D01*
X0330198Y0023269D01*
X0328497Y0023269D01*
X0329631Y0024403D01*
X0330766Y0024971D01*
X0335444Y0024403D02*
X0336011Y0024971D01*
X0337145Y0024971D01*
X0337712Y0024403D01*
X0337712Y0023836D01*
X0337145Y0023269D01*
X0337712Y0022702D01*
X0337712Y0022135D01*
X0337145Y0021568D01*
X0336011Y0021568D01*
X0335444Y0022135D01*
X0336578Y0023269D02*
X0337145Y0023269D01*
X0339127Y0023836D02*
X0339694Y0023269D01*
X0341396Y0023269D01*
X0341396Y0022135D02*
X0341396Y0024403D01*
X0340828Y0024971D01*
X0339694Y0024971D01*
X0339127Y0024403D01*
X0339127Y0023836D01*
X0339127Y0022135D02*
X0339694Y0021568D01*
X0340828Y0021568D01*
X0341396Y0022135D01*
X0346861Y0022135D02*
X0346861Y0024403D01*
X0347428Y0024971D01*
X0348563Y0024971D01*
X0349130Y0024403D01*
X0349130Y0022135D02*
X0348563Y0021568D01*
X0347428Y0021568D01*
X0346861Y0022135D01*
X0348830Y0027080D02*
X0349964Y0027080D01*
X0349397Y0027080D02*
X0349397Y0030482D01*
X0348830Y0030482D02*
X0349964Y0030482D01*
X0351285Y0029915D02*
X0351852Y0030482D01*
X0352986Y0030482D01*
X0353554Y0029915D01*
X0353554Y0029348D01*
X0351285Y0027080D01*
X0353554Y0027080D01*
X0354968Y0027647D02*
X0355535Y0027080D01*
X0356670Y0027080D01*
X0357237Y0027647D01*
X0357237Y0029915D02*
X0356670Y0030482D01*
X0355535Y0030482D01*
X0354968Y0029915D01*
X0354968Y0027647D01*
X0357097Y0024971D02*
X0358799Y0024971D01*
X0359366Y0024403D01*
X0359366Y0022135D01*
X0358799Y0021568D01*
X0357097Y0021568D01*
X0357097Y0024971D01*
X0366940Y0024403D02*
X0366940Y0022135D01*
X0367507Y0021568D01*
X0368641Y0021568D01*
X0369208Y0022135D01*
X0369208Y0023269D01*
X0368074Y0023269D01*
X0366940Y0024403D02*
X0367507Y0024971D01*
X0368641Y0024971D01*
X0369208Y0024403D01*
X0329374Y0042064D02*
X0328807Y0041497D01*
X0327673Y0041497D01*
X0327105Y0042064D01*
X0328240Y0043198D02*
X0328807Y0043198D01*
X0329374Y0042631D01*
X0329374Y0042064D01*
X0328807Y0043198D02*
X0329374Y0043765D01*
X0329374Y0044333D01*
X0328807Y0044900D01*
X0327673Y0044900D01*
X0327105Y0044333D01*
X0325691Y0043198D02*
X0323422Y0043198D01*
X0325124Y0044900D01*
X0325124Y0041497D01*
X0322008Y0041497D02*
X0320873Y0042631D01*
X0321441Y0042631D02*
X0319739Y0042631D01*
X0319739Y0041497D02*
X0319739Y0044900D01*
X0321441Y0044900D01*
X0322008Y0044333D01*
X0322008Y0043198D01*
X0321441Y0042631D01*
X0309689Y0041497D02*
X0307420Y0041497D01*
X0309689Y0043765D01*
X0309689Y0044333D01*
X0309122Y0044900D01*
X0307987Y0044900D01*
X0307420Y0044333D01*
X0306006Y0043198D02*
X0303737Y0043198D01*
X0305439Y0044900D01*
X0305439Y0041497D01*
X0302323Y0041497D02*
X0301188Y0042631D01*
X0301755Y0042631D02*
X0300054Y0042631D01*
X0300054Y0041497D02*
X0300054Y0044900D01*
X0301755Y0044900D01*
X0302323Y0044333D01*
X0302323Y0043198D01*
X0301755Y0042631D01*
X0291119Y0055469D02*
X0291686Y0056036D01*
X0291686Y0057171D01*
X0291119Y0057738D01*
X0291686Y0059152D02*
X0289418Y0061421D01*
X0288851Y0061421D01*
X0288283Y0060854D01*
X0288283Y0059720D01*
X0288851Y0059152D01*
X0288851Y0057738D02*
X0288283Y0057171D01*
X0288283Y0056036D01*
X0288851Y0055469D01*
X0291119Y0055469D01*
X0291686Y0059152D02*
X0291686Y0061421D01*
X0291119Y0062836D02*
X0291686Y0063403D01*
X0291686Y0064537D01*
X0291119Y0065104D01*
X0290552Y0065104D01*
X0289985Y0064537D01*
X0289985Y0063403D01*
X0289418Y0062836D01*
X0288851Y0062836D01*
X0288283Y0063403D01*
X0288283Y0064537D01*
X0288851Y0065104D01*
X0289418Y0065104D01*
X0289985Y0064537D01*
X0289985Y0063403D02*
X0290552Y0062836D01*
X0291119Y0062836D01*
X0295834Y0068044D02*
X0295267Y0068611D01*
X0295267Y0070880D01*
X0295834Y0071447D01*
X0296968Y0071447D01*
X0297535Y0070880D01*
X0297535Y0068611D01*
X0296968Y0068044D01*
X0295834Y0068044D01*
X0296401Y0069178D02*
X0297535Y0068044D01*
X0298950Y0068611D02*
X0299517Y0068044D01*
X0300651Y0068044D01*
X0301218Y0068611D01*
X0301218Y0069746D01*
X0300651Y0070313D01*
X0300084Y0070313D01*
X0298950Y0069746D01*
X0298950Y0071447D01*
X0301218Y0071447D01*
X0314952Y0070880D02*
X0314952Y0068611D01*
X0315519Y0068044D01*
X0316653Y0068044D01*
X0317220Y0068611D01*
X0317220Y0070880D01*
X0316653Y0071447D01*
X0315519Y0071447D01*
X0314952Y0070880D01*
X0316086Y0069178D02*
X0317220Y0068044D01*
X0318635Y0068611D02*
X0319202Y0068044D01*
X0320336Y0068044D01*
X0320903Y0068611D01*
X0320903Y0069178D01*
X0320336Y0069746D01*
X0318635Y0069746D01*
X0318635Y0068611D01*
X0318635Y0069746D02*
X0319769Y0070880D01*
X0320903Y0071447D01*
X0259100Y0065448D02*
X0259100Y0063180D01*
X0259100Y0064314D02*
X0255697Y0064314D01*
X0256831Y0063180D01*
X0259100Y0061765D02*
X0259100Y0059497D01*
X0259100Y0060631D02*
X0255697Y0060631D01*
X0256831Y0059497D01*
X0255697Y0058082D02*
X0258533Y0058082D01*
X0259100Y0057515D01*
X0259100Y0056381D01*
X0258533Y0055814D01*
X0255697Y0055814D01*
X0077405Y0192064D02*
X0076838Y0191497D01*
X0075704Y0191497D01*
X0075137Y0192064D01*
X0077405Y0194333D01*
X0077405Y0192064D01*
X0075137Y0192064D02*
X0075137Y0194333D01*
X0075704Y0194900D01*
X0076838Y0194900D01*
X0077405Y0194333D01*
X0073722Y0194333D02*
X0073722Y0193765D01*
X0073155Y0193198D01*
X0073722Y0192631D01*
X0073722Y0192064D01*
X0073155Y0191497D01*
X0072021Y0191497D01*
X0071454Y0192064D01*
X0070039Y0191497D02*
X0068905Y0192631D01*
X0069472Y0192631D02*
X0067771Y0192631D01*
X0067771Y0191497D02*
X0067771Y0194900D01*
X0069472Y0194900D01*
X0070039Y0194333D01*
X0070039Y0193198D01*
X0069472Y0192631D01*
X0071454Y0194333D02*
X0072021Y0194900D01*
X0073155Y0194900D01*
X0073722Y0194333D01*
X0073155Y0193198D02*
X0072588Y0193198D01*
X0066269Y0199213D02*
X0064001Y0199213D01*
X0065135Y0199213D02*
X0065135Y0202616D01*
X0064001Y0201482D01*
X0062586Y0201482D02*
X0062019Y0200915D01*
X0062586Y0200348D01*
X0062586Y0199781D01*
X0062019Y0199213D01*
X0060885Y0199213D01*
X0060318Y0199781D01*
X0058903Y0199213D02*
X0057769Y0200348D01*
X0058336Y0200348D02*
X0056635Y0200348D01*
X0056635Y0199213D02*
X0056635Y0202616D01*
X0058336Y0202616D01*
X0058903Y0202049D01*
X0058903Y0200915D01*
X0058336Y0200348D01*
X0060318Y0202049D02*
X0060885Y0202616D01*
X0062019Y0202616D01*
X0062586Y0202049D01*
X0062586Y0201482D01*
X0062019Y0200915D02*
X0061452Y0200915D01*
X0057978Y0191112D02*
X0057978Y0187709D01*
X0059112Y0187709D02*
X0056843Y0187709D01*
X0055429Y0188277D02*
X0054862Y0187709D01*
X0053727Y0187709D01*
X0053160Y0188277D01*
X0053727Y0189411D02*
X0054862Y0189411D01*
X0055429Y0188844D01*
X0055429Y0188277D01*
X0053727Y0189411D02*
X0053160Y0189978D01*
X0053160Y0190545D01*
X0053727Y0191112D01*
X0054862Y0191112D01*
X0055429Y0190545D01*
X0056843Y0189978D02*
X0057978Y0191112D01*
X0041596Y0204619D02*
X0041596Y0208022D01*
X0039895Y0206320D01*
X0042163Y0206320D01*
X0038480Y0205186D02*
X0037913Y0204619D01*
X0036779Y0204619D01*
X0036212Y0205186D01*
X0036212Y0207455D01*
X0036779Y0208022D01*
X0037913Y0208022D01*
X0038480Y0207455D01*
X0038480Y0205186D01*
X0038480Y0204619D02*
X0037346Y0205753D01*
X0056353Y0216694D02*
X0056353Y0220097D01*
X0058055Y0220097D01*
X0058622Y0219529D01*
X0058622Y0218395D01*
X0058055Y0217828D01*
X0056353Y0217828D01*
X0057488Y0217828D02*
X0058622Y0216694D01*
X0060036Y0216694D02*
X0062305Y0218962D01*
X0062305Y0219529D01*
X0061738Y0220097D01*
X0060604Y0220097D01*
X0060036Y0219529D01*
X0060036Y0216694D02*
X0062305Y0216694D01*
X0063720Y0217261D02*
X0064287Y0216694D01*
X0065421Y0216694D01*
X0065988Y0217261D01*
X0065988Y0219529D01*
X0065421Y0220097D01*
X0064287Y0220097D01*
X0063720Y0219529D01*
X0063720Y0218962D01*
X0064287Y0218395D01*
X0065988Y0218395D01*
X0076802Y0217430D02*
X0077369Y0216863D01*
X0078504Y0216863D01*
X0079071Y0217430D01*
X0079071Y0219699D01*
X0078504Y0220266D01*
X0077369Y0220266D01*
X0076802Y0219699D01*
X0076802Y0217430D01*
X0077936Y0217997D02*
X0079071Y0216863D01*
X0080485Y0216863D02*
X0082754Y0219132D01*
X0082754Y0219699D01*
X0082187Y0220266D01*
X0081052Y0220266D01*
X0080485Y0219699D01*
X0080485Y0216863D02*
X0082754Y0216863D01*
X0087737Y0221828D02*
X0088304Y0221261D01*
X0089438Y0221261D01*
X0090005Y0221828D01*
X0091420Y0221261D02*
X0093689Y0221261D01*
X0092554Y0221261D02*
X0092554Y0224664D01*
X0091420Y0223529D01*
X0090005Y0224096D02*
X0089438Y0224664D01*
X0088304Y0224664D01*
X0087737Y0224096D01*
X0087737Y0221828D01*
X0087737Y0227954D02*
X0087737Y0231356D01*
X0089438Y0231356D01*
X0090005Y0230789D01*
X0090005Y0229655D01*
X0089438Y0229088D01*
X0087737Y0229088D01*
X0088871Y0229088D02*
X0090005Y0227954D01*
X0091420Y0228521D02*
X0091987Y0227954D01*
X0093121Y0227954D01*
X0093689Y0228521D01*
X0093689Y0229088D01*
X0093121Y0229655D01*
X0092554Y0229655D01*
X0093121Y0229655D02*
X0093689Y0230222D01*
X0093689Y0230789D01*
X0093121Y0231356D01*
X0091987Y0231356D01*
X0091420Y0230789D01*
X0095103Y0230789D02*
X0095670Y0231356D01*
X0096805Y0231356D01*
X0097372Y0230789D01*
X0097372Y0230222D01*
X0095103Y0227954D01*
X0097372Y0227954D01*
X0096805Y0224664D02*
X0095670Y0224664D01*
X0095103Y0224096D01*
X0095103Y0223529D01*
X0095670Y0222962D01*
X0097372Y0222962D01*
X0097372Y0221828D02*
X0097372Y0224096D01*
X0096805Y0224664D01*
X0097372Y0221828D02*
X0096805Y0221261D01*
X0095670Y0221261D01*
X0095103Y0221828D01*
X0060497Y0238471D02*
X0057094Y0238471D01*
X0057094Y0240172D01*
X0057662Y0240740D01*
X0058796Y0240740D01*
X0059363Y0240172D01*
X0059363Y0238471D01*
X0058796Y0242154D02*
X0058796Y0243856D01*
X0059363Y0244423D01*
X0059930Y0244423D01*
X0060497Y0243856D01*
X0060497Y0242154D01*
X0057094Y0242154D01*
X0057094Y0243856D01*
X0057662Y0244423D01*
X0058229Y0244423D01*
X0058796Y0243856D01*
X0057662Y0245837D02*
X0057094Y0246404D01*
X0057094Y0247539D01*
X0057662Y0248106D01*
X0058229Y0248106D01*
X0060497Y0245837D01*
X0060497Y0248106D01*
X0063878Y0249457D02*
X0063878Y0252860D01*
X0065580Y0252860D01*
X0066147Y0252293D01*
X0066147Y0251159D01*
X0065580Y0250592D01*
X0063878Y0250592D01*
X0065013Y0250592D02*
X0066147Y0249457D01*
X0067562Y0249457D02*
X0069830Y0249457D01*
X0071245Y0250025D02*
X0071812Y0249457D01*
X0072946Y0249457D01*
X0073513Y0250025D01*
X0073513Y0250592D01*
X0072946Y0251159D01*
X0071812Y0251159D01*
X0071245Y0251726D01*
X0071245Y0252293D01*
X0071812Y0252860D01*
X0072946Y0252860D01*
X0073513Y0252293D01*
X0074928Y0252860D02*
X0074928Y0249457D01*
X0077196Y0249457D01*
X0076062Y0251159D02*
X0074928Y0251159D01*
X0074928Y0252860D02*
X0077196Y0252860D01*
X0078611Y0252860D02*
X0080880Y0252860D01*
X0079745Y0252860D02*
X0079745Y0249457D01*
X0069830Y0252860D02*
X0067562Y0252860D01*
X0067562Y0249457D01*
X0067562Y0251159D02*
X0068696Y0251159D01*
X0056560Y0234326D02*
X0056560Y0232058D01*
X0056560Y0233192D02*
X0053157Y0233192D01*
X0054292Y0232058D01*
X0054292Y0230643D02*
X0054859Y0230076D01*
X0054859Y0228375D01*
X0054859Y0226960D02*
X0055426Y0226393D01*
X0055426Y0224692D01*
X0056560Y0224692D02*
X0053157Y0224692D01*
X0053157Y0226393D01*
X0053725Y0226960D01*
X0054859Y0226960D01*
X0056560Y0228375D02*
X0056560Y0230076D01*
X0055993Y0230643D01*
X0055426Y0230643D01*
X0054859Y0230076D01*
X0054292Y0230643D02*
X0053725Y0230643D01*
X0053157Y0230076D01*
X0053157Y0228375D01*
X0056560Y0228375D01*
X0100094Y0248950D02*
X0100662Y0248383D01*
X0102930Y0248383D01*
X0103497Y0248950D01*
X0103497Y0250084D01*
X0102930Y0250651D01*
X0103497Y0252066D02*
X0101229Y0254334D01*
X0100662Y0254334D01*
X0100094Y0253767D01*
X0100094Y0252633D01*
X0100662Y0252066D01*
X0100662Y0250651D02*
X0100094Y0250084D01*
X0100094Y0248950D01*
X0103497Y0252066D02*
X0103497Y0254334D01*
X0103497Y0255749D02*
X0103497Y0258018D01*
X0103497Y0256883D02*
X0100094Y0256883D01*
X0101229Y0255749D01*
X0108362Y0256316D02*
X0108362Y0257450D01*
X0108929Y0258018D01*
X0111198Y0255749D01*
X0111765Y0256316D01*
X0111765Y0257450D01*
X0111198Y0258018D01*
X0108929Y0258018D01*
X0108362Y0256316D02*
X0108929Y0255749D01*
X0111198Y0255749D01*
X0111765Y0254334D02*
X0111765Y0252066D01*
X0109496Y0254334D01*
X0108929Y0254334D01*
X0108362Y0253767D01*
X0108362Y0252633D01*
X0108929Y0252066D01*
X0108929Y0250651D02*
X0108362Y0250084D01*
X0108362Y0248950D01*
X0108929Y0248383D01*
X0111198Y0248383D01*
X0111765Y0248950D01*
X0111765Y0250084D01*
X0111198Y0250651D01*
X0295614Y0232663D02*
X0295614Y0230395D01*
X0295614Y0231529D02*
X0299017Y0231529D01*
X0299017Y0228980D02*
X0299017Y0226712D01*
X0295614Y0226712D01*
X0295614Y0228980D01*
X0297316Y0227846D02*
X0297316Y0226712D01*
X0297883Y0225297D02*
X0298450Y0225297D01*
X0299017Y0224730D01*
X0299017Y0223596D01*
X0298450Y0223028D01*
X0297316Y0223596D02*
X0297316Y0224730D01*
X0297883Y0225297D01*
X0296181Y0225297D02*
X0295614Y0224730D01*
X0295614Y0223596D01*
X0296181Y0223028D01*
X0296748Y0223028D01*
X0297316Y0223596D01*
X0299017Y0221614D02*
X0299017Y0219345D01*
X0295614Y0219345D01*
X0295614Y0221614D01*
X0297316Y0220480D02*
X0297316Y0219345D01*
X0297316Y0217931D02*
X0297883Y0217364D01*
X0297883Y0215662D01*
X0299017Y0215662D02*
X0295614Y0215662D01*
X0295614Y0217364D01*
X0296181Y0217931D01*
X0297316Y0217931D01*
X0297883Y0216797D02*
X0299017Y0217931D01*
X0307031Y0217931D02*
X0307031Y0215662D01*
X0307031Y0216797D02*
X0310434Y0216797D01*
X0309867Y0219345D02*
X0310434Y0219912D01*
X0310434Y0221047D01*
X0309867Y0221614D01*
X0309300Y0221614D01*
X0308733Y0221047D01*
X0308733Y0219912D01*
X0308166Y0219345D01*
X0307599Y0219345D01*
X0307031Y0219912D01*
X0307031Y0221047D01*
X0307599Y0221614D01*
X0311001Y0223028D02*
X0311001Y0225297D01*
X0310434Y0226712D02*
X0310434Y0227846D01*
X0310434Y0227279D02*
X0307031Y0227279D01*
X0307031Y0226712D02*
X0307031Y0227846D01*
X0307031Y0229167D02*
X0307031Y0230869D01*
X0307599Y0231436D01*
X0308733Y0231436D01*
X0309300Y0230869D01*
X0309300Y0229167D01*
X0310434Y0229167D02*
X0307031Y0229167D01*
X0309300Y0230301D02*
X0310434Y0231436D01*
X0309867Y0232850D02*
X0310434Y0233417D01*
X0310434Y0234552D01*
X0309867Y0235119D01*
X0307599Y0235119D01*
X0307031Y0234552D01*
X0307031Y0233417D01*
X0307599Y0232850D01*
X0309867Y0232850D01*
X0309300Y0233985D02*
X0310434Y0235119D01*
X0318842Y0234078D02*
X0322245Y0234078D01*
X0322245Y0236347D01*
X0320544Y0235212D02*
X0320544Y0234078D01*
X0318842Y0234078D02*
X0318842Y0236347D01*
X0318842Y0232663D02*
X0318842Y0230395D01*
X0318842Y0231529D02*
X0322245Y0231529D01*
X0322813Y0228980D02*
X0322813Y0226712D01*
X0321678Y0225297D02*
X0319410Y0225297D01*
X0318842Y0224730D01*
X0318842Y0223028D01*
X0322245Y0223028D01*
X0322245Y0224730D01*
X0321678Y0225297D01*
X0321678Y0221614D02*
X0322245Y0221047D01*
X0322245Y0219912D01*
X0321678Y0219345D01*
X0319410Y0219345D01*
X0318842Y0219912D01*
X0318842Y0221047D01*
X0319410Y0221614D01*
X0322245Y0217931D02*
X0322245Y0215662D01*
X0318842Y0215662D01*
X0052602Y0092931D02*
X0050334Y0092931D01*
X0044265Y0099064D02*
X0041997Y0099064D01*
X0044265Y0101332D01*
X0044265Y0101900D01*
X0043698Y0102467D01*
X0042564Y0102467D01*
X0041997Y0101900D01*
X0040582Y0101900D02*
X0040015Y0102467D01*
X0038314Y0102467D01*
X0038314Y0099064D01*
X0040015Y0099064D01*
X0040582Y0099631D01*
X0040582Y0101900D01*
D14*
X0080419Y0108866D02*
X0081797Y0107488D01*
X0094789Y0107488D02*
X0096167Y0107488D01*
X0096167Y0108866D01*
X0096167Y0121858D02*
X0096167Y0123236D01*
X0094789Y0123236D01*
X0081797Y0123236D02*
X0080419Y0123236D01*
X0080419Y0121858D01*
X0101482Y0060244D02*
X0100104Y0058866D01*
X0114474Y0060244D02*
X0115852Y0060244D01*
X0115852Y0058866D01*
X0115852Y0045874D02*
X0115852Y0044496D01*
X0114474Y0044496D01*
X0101482Y0044496D02*
X0100104Y0044496D01*
X0100104Y0045874D01*
X0233378Y0129542D02*
X0233378Y0148427D01*
X0250295Y0148427D01*
X0250295Y0129542D01*
X0233378Y0129542D01*
X0239284Y0112994D02*
X0239284Y0094109D01*
X0256200Y0094109D01*
X0256200Y0112994D01*
X0239284Y0112994D01*
X0234750Y0172843D02*
X0248923Y0172843D01*
X0248923Y0191740D01*
X0243805Y0191740D01*
X0239868Y0191740D01*
X0234750Y0191740D01*
X0234750Y0172843D01*
X0239868Y0191740D02*
X0239870Y0191653D01*
X0239876Y0191566D01*
X0239885Y0191479D01*
X0239899Y0191393D01*
X0239916Y0191308D01*
X0239937Y0191223D01*
X0239962Y0191140D01*
X0239990Y0191057D01*
X0240022Y0190976D01*
X0240058Y0190897D01*
X0240097Y0190819D01*
X0240139Y0190743D01*
X0240185Y0190669D01*
X0240234Y0190597D01*
X0240286Y0190527D01*
X0240341Y0190460D01*
X0240399Y0190395D01*
X0240460Y0190332D01*
X0240524Y0190273D01*
X0240590Y0190216D01*
X0240659Y0190163D01*
X0240730Y0190112D01*
X0240803Y0190065D01*
X0240878Y0190020D01*
X0240955Y0189980D01*
X0241033Y0189942D01*
X0241114Y0189909D01*
X0241195Y0189878D01*
X0241278Y0189852D01*
X0241363Y0189829D01*
X0241448Y0189810D01*
X0241533Y0189795D01*
X0241620Y0189783D01*
X0241706Y0189775D01*
X0241793Y0189771D01*
X0241881Y0189771D01*
X0241968Y0189775D01*
X0242054Y0189783D01*
X0242141Y0189795D01*
X0242226Y0189810D01*
X0242311Y0189829D01*
X0242396Y0189852D01*
X0242479Y0189878D01*
X0242560Y0189909D01*
X0242641Y0189942D01*
X0242719Y0189980D01*
X0242796Y0190020D01*
X0242871Y0190065D01*
X0242944Y0190112D01*
X0243015Y0190163D01*
X0243084Y0190216D01*
X0243150Y0190273D01*
X0243214Y0190332D01*
X0243275Y0190395D01*
X0243333Y0190460D01*
X0243388Y0190527D01*
X0243440Y0190597D01*
X0243489Y0190669D01*
X0243535Y0190743D01*
X0243577Y0190819D01*
X0243616Y0190897D01*
X0243652Y0190976D01*
X0243684Y0191057D01*
X0243712Y0191140D01*
X0243737Y0191223D01*
X0243758Y0191308D01*
X0243775Y0191393D01*
X0243789Y0191479D01*
X0243798Y0191566D01*
X0243804Y0191653D01*
X0243806Y0191740D01*
X0264985Y0227573D02*
X0264284Y0228274D01*
X0264284Y0231076D01*
X0264985Y0231777D01*
X0266386Y0231777D01*
X0267086Y0231076D01*
X0267086Y0228274D01*
X0266386Y0227573D01*
X0264985Y0227573D01*
X0265685Y0228974D02*
X0267086Y0227573D01*
X0268888Y0227573D02*
X0270289Y0228974D01*
X0271690Y0227573D01*
X0271690Y0231777D01*
X0273492Y0231777D02*
X0274893Y0231777D01*
X0274192Y0231777D02*
X0274192Y0227573D01*
X0273492Y0227573D02*
X0274893Y0227573D01*
X0276561Y0227573D02*
X0277962Y0227573D01*
X0277262Y0227573D02*
X0277262Y0231777D01*
X0277962Y0231777D02*
X0276561Y0231777D01*
X0279630Y0231076D02*
X0279630Y0228274D01*
X0280331Y0227573D01*
X0281732Y0227573D01*
X0282433Y0228274D01*
X0282433Y0231076D02*
X0281732Y0231777D01*
X0280331Y0231777D01*
X0279630Y0231076D01*
X0268888Y0231777D02*
X0268888Y0227573D01*
X0254880Y0251195D02*
X0253479Y0251195D01*
X0252778Y0251896D01*
X0254180Y0253297D02*
X0254880Y0253297D01*
X0255581Y0252596D01*
X0255581Y0251896D01*
X0254880Y0251195D01*
X0254880Y0253297D02*
X0255581Y0253998D01*
X0255581Y0254698D01*
X0254880Y0255399D01*
X0253479Y0255399D01*
X0252778Y0254698D01*
X0252905Y0259463D02*
X0250103Y0259463D01*
X0252905Y0262265D01*
X0252905Y0262966D01*
X0252205Y0263667D01*
X0250803Y0263667D01*
X0250103Y0262966D01*
X0254707Y0262966D02*
X0254707Y0260164D01*
X0257509Y0262966D01*
X0257509Y0260164D01*
X0256809Y0259463D01*
X0255407Y0259463D01*
X0254707Y0260164D01*
X0254707Y0262966D02*
X0255407Y0263667D01*
X0256809Y0263667D01*
X0257509Y0262966D01*
X0259311Y0262966D02*
X0260011Y0263667D01*
X0261412Y0263667D01*
X0262113Y0262966D01*
X0262113Y0262265D01*
X0259311Y0259463D01*
X0262113Y0259463D01*
X0263915Y0259463D02*
X0266717Y0259463D01*
X0265316Y0259463D02*
X0265316Y0263667D01*
X0263915Y0262265D01*
X0268518Y0261565D02*
X0271321Y0261565D01*
X0273122Y0262966D02*
X0273823Y0263667D01*
X0275224Y0263667D01*
X0275925Y0262966D01*
X0275925Y0262265D01*
X0273122Y0259463D01*
X0275925Y0259463D01*
X0277726Y0260164D02*
X0280529Y0262966D01*
X0280529Y0260164D01*
X0279828Y0259463D01*
X0278427Y0259463D01*
X0277726Y0260164D01*
X0277726Y0262966D01*
X0278427Y0263667D01*
X0279828Y0263667D01*
X0280529Y0262966D01*
X0282330Y0262966D02*
X0283031Y0263667D01*
X0284432Y0263667D01*
X0285133Y0262966D01*
X0285133Y0262265D01*
X0282330Y0259463D01*
X0285133Y0259463D01*
X0286934Y0259463D02*
X0289737Y0262265D01*
X0289737Y0262966D01*
X0289036Y0263667D01*
X0287635Y0263667D01*
X0286934Y0262966D01*
X0286934Y0259463D02*
X0289737Y0259463D01*
X0296142Y0260164D02*
X0296142Y0261565D01*
X0296843Y0262265D01*
X0298944Y0262265D01*
X0298944Y0263667D02*
X0298944Y0259463D01*
X0296843Y0259463D01*
X0296142Y0260164D01*
X0300746Y0260164D02*
X0301447Y0260864D01*
X0303548Y0260864D01*
X0303548Y0261565D02*
X0303548Y0259463D01*
X0301447Y0259463D01*
X0300746Y0260164D01*
X0301447Y0262265D02*
X0302848Y0262265D01*
X0303548Y0261565D01*
X0305350Y0262265D02*
X0305350Y0259463D01*
X0308152Y0259463D02*
X0308152Y0261565D01*
X0307452Y0262265D01*
X0305350Y0262265D01*
X0311355Y0262265D02*
X0311355Y0258762D01*
X0310654Y0258062D01*
X0309954Y0258062D01*
X0313023Y0260164D02*
X0313724Y0259463D01*
X0315825Y0259463D01*
X0315825Y0262265D01*
X0317627Y0263667D02*
X0318328Y0263667D01*
X0318328Y0259463D01*
X0319028Y0259463D02*
X0317627Y0259463D01*
X0320696Y0259463D02*
X0322097Y0259463D01*
X0321397Y0259463D02*
X0321397Y0262265D01*
X0320696Y0262265D01*
X0321397Y0263667D02*
X0321397Y0264367D01*
X0323766Y0261565D02*
X0323766Y0260164D01*
X0324466Y0259463D01*
X0325867Y0259463D01*
X0326568Y0260164D01*
X0326568Y0261565D01*
X0325867Y0262265D01*
X0324466Y0262265D01*
X0323766Y0261565D01*
X0328370Y0261565D02*
X0329070Y0262265D01*
X0331172Y0262265D01*
X0331172Y0263667D02*
X0331172Y0259463D01*
X0329070Y0259463D01*
X0328370Y0260164D01*
X0328370Y0261565D01*
X0332973Y0261565D02*
X0333674Y0262265D01*
X0335075Y0262265D01*
X0335776Y0261565D01*
X0335776Y0260864D01*
X0332973Y0260864D01*
X0332973Y0260164D02*
X0332973Y0261565D01*
X0332973Y0260164D02*
X0333674Y0259463D01*
X0335075Y0259463D01*
X0337577Y0259463D02*
X0339679Y0259463D01*
X0340380Y0260164D01*
X0339679Y0260864D01*
X0338278Y0260864D01*
X0337577Y0261565D01*
X0338278Y0262265D01*
X0340380Y0262265D01*
X0342181Y0262265D02*
X0342882Y0262265D01*
X0342882Y0259463D01*
X0343582Y0259463D02*
X0342181Y0259463D01*
X0345251Y0260164D02*
X0345951Y0259463D01*
X0348053Y0259463D01*
X0348053Y0258762D02*
X0347352Y0258062D01*
X0346652Y0258062D01*
X0348053Y0258762D02*
X0348053Y0262265D01*
X0345951Y0262265D01*
X0345251Y0261565D01*
X0345251Y0260164D01*
X0342882Y0263667D02*
X0342882Y0264367D01*
X0349854Y0262265D02*
X0349854Y0259463D01*
X0349854Y0262265D02*
X0351956Y0262265D01*
X0352657Y0261565D01*
X0352657Y0259463D01*
X0354458Y0259463D02*
X0356560Y0259463D01*
X0357261Y0260164D01*
X0356560Y0260864D01*
X0355159Y0260864D01*
X0354458Y0261565D01*
X0355159Y0262265D01*
X0357261Y0262265D01*
X0359763Y0260164D02*
X0359763Y0259463D01*
X0360464Y0259463D01*
X0360464Y0260164D01*
X0359763Y0260164D01*
X0360464Y0259463D02*
X0359062Y0258062D01*
X0366736Y0259463D02*
X0366736Y0263667D01*
X0366736Y0259463D02*
X0369538Y0259463D01*
X0371339Y0259463D02*
X0374142Y0259463D01*
X0375943Y0260164D02*
X0376644Y0259463D01*
X0378045Y0259463D01*
X0378746Y0260164D01*
X0378746Y0262966D02*
X0378045Y0263667D01*
X0376644Y0263667D01*
X0375943Y0262966D01*
X0375943Y0260164D01*
X0371339Y0259463D02*
X0371339Y0263667D01*
X0313023Y0262265D02*
X0313023Y0260164D01*
X0311355Y0263667D02*
X0311355Y0264367D01*
X0246373Y0253998D02*
X0244972Y0251195D01*
X0243571Y0253998D01*
X0241769Y0253297D02*
X0241769Y0252596D01*
X0238967Y0252596D01*
X0238967Y0251896D02*
X0238967Y0253297D01*
X0239667Y0253998D01*
X0241068Y0253998D01*
X0241769Y0253297D01*
X0241068Y0251195D02*
X0239667Y0251195D01*
X0238967Y0251896D01*
X0237165Y0251195D02*
X0235764Y0252596D01*
X0236464Y0252596D02*
X0234363Y0252596D01*
X0234363Y0251195D02*
X0234363Y0255399D01*
X0236464Y0255399D01*
X0237165Y0254698D01*
X0237165Y0253297D01*
X0236464Y0252596D01*
X0236158Y0259463D02*
X0234756Y0260864D01*
X0234756Y0262265D01*
X0236158Y0263667D01*
X0237826Y0261565D02*
X0238526Y0262265D01*
X0240628Y0262265D01*
X0242430Y0263667D02*
X0243831Y0262265D01*
X0243831Y0260864D01*
X0242430Y0259463D01*
X0240628Y0259463D02*
X0238526Y0259463D01*
X0237826Y0260164D01*
X0237826Y0261565D01*
X0079632Y0240953D02*
X0079632Y0233866D01*
X0077270Y0233866D01*
X0066977Y0237409D02*
X0066979Y0237558D01*
X0066985Y0237707D01*
X0066995Y0237855D01*
X0067009Y0238003D01*
X0067027Y0238151D01*
X0067048Y0238298D01*
X0067074Y0238445D01*
X0067104Y0238591D01*
X0067137Y0238736D01*
X0067175Y0238880D01*
X0067216Y0239023D01*
X0067261Y0239165D01*
X0067310Y0239306D01*
X0067363Y0239445D01*
X0067419Y0239583D01*
X0067479Y0239719D01*
X0067542Y0239854D01*
X0067609Y0239986D01*
X0067680Y0240117D01*
X0067754Y0240247D01*
X0067832Y0240374D01*
X0067913Y0240499D01*
X0067997Y0240621D01*
X0068085Y0240742D01*
X0068175Y0240860D01*
X0068269Y0240975D01*
X0068366Y0241088D01*
X0068466Y0241199D01*
X0068569Y0241306D01*
X0068674Y0241411D01*
X0068783Y0241513D01*
X0068894Y0241613D01*
X0069007Y0241709D01*
X0069124Y0241802D01*
X0069242Y0241892D01*
X0069363Y0241978D01*
X0069486Y0242062D01*
X0069612Y0242142D01*
X0069740Y0242219D01*
X0069869Y0242292D01*
X0070001Y0242362D01*
X0070134Y0242428D01*
X0070269Y0242491D01*
X0070406Y0242550D01*
X0070544Y0242605D01*
X0070683Y0242657D01*
X0070824Y0242704D01*
X0070967Y0242749D01*
X0071110Y0242789D01*
X0071254Y0242825D01*
X0071399Y0242858D01*
X0071546Y0242887D01*
X0071692Y0242911D01*
X0071840Y0242932D01*
X0071988Y0242949D01*
X0072136Y0242962D01*
X0072285Y0242971D01*
X0072433Y0242976D01*
X0072582Y0242977D01*
X0072731Y0242974D01*
X0072880Y0242967D01*
X0073028Y0242956D01*
X0073176Y0242941D01*
X0073324Y0242922D01*
X0073471Y0242899D01*
X0073618Y0242873D01*
X0073763Y0242842D01*
X0073908Y0242808D01*
X0074052Y0242769D01*
X0074195Y0242727D01*
X0074336Y0242681D01*
X0074477Y0242631D01*
X0074615Y0242578D01*
X0074753Y0242521D01*
X0074889Y0242460D01*
X0075023Y0242395D01*
X0075155Y0242327D01*
X0075286Y0242256D01*
X0075415Y0242181D01*
X0075541Y0242102D01*
X0075665Y0242020D01*
X0075788Y0241935D01*
X0075907Y0241847D01*
X0076025Y0241756D01*
X0076140Y0241661D01*
X0076252Y0241563D01*
X0076362Y0241463D01*
X0076469Y0241359D01*
X0076573Y0241253D01*
X0076675Y0241144D01*
X0076773Y0241032D01*
X0076868Y0240918D01*
X0076961Y0240801D01*
X0077050Y0240682D01*
X0077135Y0240560D01*
X0077218Y0240436D01*
X0077297Y0240310D01*
X0077373Y0240182D01*
X0077446Y0240052D01*
X0077515Y0239920D01*
X0077580Y0239786D01*
X0077642Y0239651D01*
X0077700Y0239514D01*
X0077754Y0239375D01*
X0077805Y0239235D01*
X0077852Y0239094D01*
X0077895Y0238952D01*
X0077934Y0238808D01*
X0077970Y0238664D01*
X0078001Y0238518D01*
X0078029Y0238372D01*
X0078053Y0238225D01*
X0078073Y0238077D01*
X0078089Y0237929D01*
X0078101Y0237781D01*
X0078109Y0237632D01*
X0078113Y0237483D01*
X0078113Y0237335D01*
X0078109Y0237186D01*
X0078101Y0237037D01*
X0078089Y0236889D01*
X0078073Y0236741D01*
X0078053Y0236593D01*
X0078029Y0236446D01*
X0078001Y0236300D01*
X0077970Y0236154D01*
X0077934Y0236010D01*
X0077895Y0235866D01*
X0077852Y0235724D01*
X0077805Y0235583D01*
X0077754Y0235443D01*
X0077700Y0235304D01*
X0077642Y0235167D01*
X0077580Y0235032D01*
X0077515Y0234898D01*
X0077446Y0234766D01*
X0077373Y0234636D01*
X0077297Y0234508D01*
X0077218Y0234382D01*
X0077135Y0234258D01*
X0077050Y0234136D01*
X0076961Y0234017D01*
X0076868Y0233900D01*
X0076773Y0233786D01*
X0076675Y0233674D01*
X0076573Y0233565D01*
X0076469Y0233459D01*
X0076362Y0233355D01*
X0076252Y0233255D01*
X0076140Y0233157D01*
X0076025Y0233062D01*
X0075907Y0232971D01*
X0075788Y0232883D01*
X0075665Y0232798D01*
X0075541Y0232716D01*
X0075415Y0232637D01*
X0075286Y0232562D01*
X0075155Y0232491D01*
X0075023Y0232423D01*
X0074889Y0232358D01*
X0074753Y0232297D01*
X0074615Y0232240D01*
X0074477Y0232187D01*
X0074336Y0232137D01*
X0074195Y0232091D01*
X0074052Y0232049D01*
X0073908Y0232010D01*
X0073763Y0231976D01*
X0073618Y0231945D01*
X0073471Y0231919D01*
X0073324Y0231896D01*
X0073176Y0231877D01*
X0073028Y0231862D01*
X0072880Y0231851D01*
X0072731Y0231844D01*
X0072582Y0231841D01*
X0072433Y0231842D01*
X0072285Y0231847D01*
X0072136Y0231856D01*
X0071988Y0231869D01*
X0071840Y0231886D01*
X0071692Y0231907D01*
X0071546Y0231931D01*
X0071399Y0231960D01*
X0071254Y0231993D01*
X0071110Y0232029D01*
X0070967Y0232069D01*
X0070824Y0232114D01*
X0070683Y0232161D01*
X0070544Y0232213D01*
X0070406Y0232268D01*
X0070269Y0232327D01*
X0070134Y0232390D01*
X0070001Y0232456D01*
X0069869Y0232526D01*
X0069740Y0232599D01*
X0069612Y0232676D01*
X0069486Y0232756D01*
X0069363Y0232840D01*
X0069242Y0232926D01*
X0069124Y0233016D01*
X0069007Y0233109D01*
X0068894Y0233205D01*
X0068783Y0233305D01*
X0068674Y0233407D01*
X0068569Y0233512D01*
X0068466Y0233619D01*
X0068366Y0233730D01*
X0068269Y0233843D01*
X0068175Y0233958D01*
X0068085Y0234076D01*
X0067997Y0234197D01*
X0067913Y0234319D01*
X0067832Y0234444D01*
X0067754Y0234571D01*
X0067680Y0234701D01*
X0067609Y0234832D01*
X0067542Y0234964D01*
X0067479Y0235099D01*
X0067419Y0235235D01*
X0067363Y0235373D01*
X0067310Y0235512D01*
X0067261Y0235653D01*
X0067216Y0235795D01*
X0067175Y0235938D01*
X0067137Y0236082D01*
X0067104Y0236227D01*
X0067074Y0236373D01*
X0067048Y0236520D01*
X0067027Y0236667D01*
X0067009Y0236815D01*
X0066995Y0236963D01*
X0066985Y0237111D01*
X0066979Y0237260D01*
X0066977Y0237409D01*
X0068215Y0240953D02*
X0065065Y0240953D01*
X0065065Y0233866D01*
X0067821Y0233866D01*
X0077270Y0240953D02*
X0079632Y0240953D01*
D15*
X0083569Y0248433D02*
X0083569Y0226386D01*
X0061522Y0226386D01*
X0061522Y0248433D01*
X0083569Y0248433D01*
X0084356Y0227961D02*
X0084356Y0225598D01*
X0081994Y0225598D01*
X0119789Y0247055D02*
X0119789Y0273630D01*
X0190656Y0273630D01*
X0190656Y0247055D01*
X0261522Y0216150D02*
X0261522Y0207193D01*
X0264671Y0207193D01*
X0281994Y0207193D02*
X0285144Y0207193D01*
X0285144Y0216150D01*
X0280419Y0223925D02*
X0266246Y0223925D01*
X0295183Y0196465D02*
X0299514Y0196465D01*
X0299514Y0075598D01*
X0295183Y0075598D01*
X0281010Y0078157D02*
X0279829Y0078157D01*
X0279829Y0085835D01*
X0279052Y0070480D02*
X0279054Y0070564D01*
X0279060Y0070647D01*
X0279070Y0070731D01*
X0279084Y0070813D01*
X0279102Y0070895D01*
X0279123Y0070976D01*
X0279149Y0071056D01*
X0279178Y0071134D01*
X0279211Y0071212D01*
X0279248Y0071287D01*
X0279288Y0071360D01*
X0279332Y0071432D01*
X0279379Y0071501D01*
X0279429Y0071569D01*
X0279482Y0071633D01*
X0279539Y0071695D01*
X0279598Y0071754D01*
X0279660Y0071811D01*
X0279724Y0071864D01*
X0279792Y0071914D01*
X0279861Y0071961D01*
X0279932Y0072005D01*
X0280006Y0072045D01*
X0280081Y0072082D01*
X0280159Y0072115D01*
X0280237Y0072144D01*
X0280317Y0072170D01*
X0280398Y0072191D01*
X0280480Y0072209D01*
X0280562Y0072223D01*
X0280646Y0072233D01*
X0280729Y0072239D01*
X0280813Y0072241D01*
X0280897Y0072239D01*
X0280980Y0072233D01*
X0281064Y0072223D01*
X0281146Y0072209D01*
X0281228Y0072191D01*
X0281309Y0072170D01*
X0281389Y0072144D01*
X0281467Y0072115D01*
X0281545Y0072082D01*
X0281620Y0072045D01*
X0281693Y0072005D01*
X0281765Y0071961D01*
X0281834Y0071914D01*
X0281902Y0071864D01*
X0281966Y0071811D01*
X0282028Y0071754D01*
X0282087Y0071695D01*
X0282144Y0071633D01*
X0282197Y0071569D01*
X0282247Y0071501D01*
X0282294Y0071432D01*
X0282338Y0071361D01*
X0282378Y0071287D01*
X0282415Y0071212D01*
X0282448Y0071134D01*
X0282477Y0071056D01*
X0282503Y0070976D01*
X0282524Y0070895D01*
X0282542Y0070813D01*
X0282556Y0070731D01*
X0282566Y0070647D01*
X0282572Y0070564D01*
X0282574Y0070480D01*
X0282572Y0070396D01*
X0282566Y0070313D01*
X0282556Y0070229D01*
X0282542Y0070147D01*
X0282524Y0070065D01*
X0282503Y0069984D01*
X0282477Y0069904D01*
X0282448Y0069826D01*
X0282415Y0069748D01*
X0282378Y0069673D01*
X0282338Y0069600D01*
X0282294Y0069528D01*
X0282247Y0069459D01*
X0282197Y0069391D01*
X0282144Y0069327D01*
X0282087Y0069265D01*
X0282028Y0069206D01*
X0281966Y0069149D01*
X0281902Y0069096D01*
X0281834Y0069046D01*
X0281765Y0068999D01*
X0281694Y0068955D01*
X0281620Y0068915D01*
X0281545Y0068878D01*
X0281467Y0068845D01*
X0281389Y0068816D01*
X0281309Y0068790D01*
X0281228Y0068769D01*
X0281146Y0068751D01*
X0281064Y0068737D01*
X0280980Y0068727D01*
X0280897Y0068721D01*
X0280813Y0068719D01*
X0280729Y0068721D01*
X0280646Y0068727D01*
X0280562Y0068737D01*
X0280480Y0068751D01*
X0280398Y0068769D01*
X0280317Y0068790D01*
X0280237Y0068816D01*
X0280159Y0068845D01*
X0280081Y0068878D01*
X0280006Y0068915D01*
X0279933Y0068955D01*
X0279861Y0068999D01*
X0279792Y0069046D01*
X0279724Y0069096D01*
X0279660Y0069149D01*
X0279598Y0069206D01*
X0279539Y0069265D01*
X0279482Y0069327D01*
X0279429Y0069391D01*
X0279379Y0069459D01*
X0279332Y0069528D01*
X0279288Y0069599D01*
X0279248Y0069673D01*
X0279211Y0069748D01*
X0279178Y0069826D01*
X0279149Y0069904D01*
X0279123Y0069984D01*
X0279102Y0070065D01*
X0279084Y0070147D01*
X0279070Y0070229D01*
X0279060Y0070313D01*
X0279054Y0070396D01*
X0279052Y0070480D01*
X0278057Y0064575D02*
X0260734Y0064575D01*
X0260734Y0055520D01*
X0278057Y0055520D01*
X0278057Y0064575D01*
X0224908Y0065756D02*
X0224908Y0058276D01*
X0220971Y0058276D01*
X0215459Y0058276D02*
X0211522Y0058276D01*
X0211522Y0065756D01*
X0211915Y0065756D01*
X0217034Y0065756D02*
X0219396Y0065756D01*
X0224514Y0065756D02*
X0224908Y0065756D01*
X0205267Y0063395D02*
X0205267Y0041345D01*
X0211522Y0032291D02*
X0211915Y0032291D01*
X0211522Y0032291D02*
X0211522Y0024811D01*
X0215459Y0024811D01*
X0213215Y0020500D02*
X0213215Y0005500D01*
X0223215Y0005500D01*
X0223215Y0020500D01*
X0233215Y0020500D01*
X0233215Y0005500D01*
X0243215Y0005500D01*
X0243215Y0020500D01*
X0253215Y0020500D01*
X0253215Y0005500D01*
X0263215Y0005500D01*
X0263215Y0020500D01*
X0273215Y0020500D01*
X0273215Y0005500D01*
X0283215Y0005500D01*
X0283215Y0020500D01*
X0293215Y0020500D01*
X0293215Y0005500D01*
X0303215Y0005500D01*
X0303215Y0020500D01*
X0313215Y0020500D01*
X0313215Y0005500D01*
X0323215Y0005500D01*
X0323215Y0020500D01*
X0333215Y0020500D01*
X0333215Y0005500D01*
X0343215Y0005500D01*
X0343215Y0020500D01*
X0353215Y0020500D01*
X0353215Y0005500D01*
X0363215Y0005500D01*
X0363215Y0020500D01*
X0373215Y0020500D01*
X0373215Y0005500D01*
X0363215Y0005500D01*
X0363215Y0020500D01*
X0353215Y0020500D01*
X0353215Y0005500D01*
X0343215Y0005500D01*
X0343215Y0020500D01*
X0333215Y0020500D01*
X0333215Y0005500D01*
X0323215Y0005500D01*
X0323215Y0020500D01*
X0313215Y0020500D01*
X0313215Y0005500D01*
X0303215Y0005500D01*
X0303215Y0020500D01*
X0293215Y0020500D01*
X0293215Y0005500D01*
X0283215Y0005500D01*
X0283215Y0020500D01*
X0273215Y0020500D01*
X0273215Y0005500D01*
X0263215Y0005500D01*
X0263215Y0020500D01*
X0253215Y0020500D01*
X0253215Y0005500D01*
X0243215Y0005500D01*
X0243215Y0020500D01*
X0233215Y0020500D01*
X0233215Y0005500D01*
X0223215Y0005500D01*
X0223215Y0020500D01*
X0213215Y0020500D01*
X0220971Y0024811D02*
X0224908Y0024811D01*
X0224908Y0032291D01*
X0224514Y0032291D01*
X0219396Y0032291D02*
X0217034Y0032291D01*
X0191792Y0041345D02*
X0191792Y0063395D01*
X0167034Y0068118D02*
X0167034Y0052370D01*
X0151286Y0052370D01*
X0151286Y0068118D01*
X0167034Y0068118D01*
X0148437Y0066937D02*
X0148439Y0066996D01*
X0148445Y0067054D01*
X0148455Y0067112D01*
X0148468Y0067169D01*
X0148486Y0067226D01*
X0148507Y0067281D01*
X0148532Y0067334D01*
X0148560Y0067385D01*
X0148591Y0067435D01*
X0148626Y0067482D01*
X0148664Y0067527D01*
X0148705Y0067570D01*
X0148749Y0067609D01*
X0148795Y0067645D01*
X0148843Y0067679D01*
X0148894Y0067709D01*
X0148947Y0067735D01*
X0149001Y0067758D01*
X0149056Y0067777D01*
X0149113Y0067793D01*
X0149171Y0067805D01*
X0149229Y0067813D01*
X0149288Y0067817D01*
X0149346Y0067817D01*
X0149405Y0067813D01*
X0149463Y0067805D01*
X0149521Y0067793D01*
X0149578Y0067777D01*
X0149633Y0067758D01*
X0149687Y0067735D01*
X0149740Y0067709D01*
X0149791Y0067679D01*
X0149839Y0067645D01*
X0149885Y0067609D01*
X0149929Y0067570D01*
X0149970Y0067527D01*
X0150008Y0067482D01*
X0150043Y0067435D01*
X0150074Y0067385D01*
X0150102Y0067334D01*
X0150127Y0067281D01*
X0150148Y0067226D01*
X0150166Y0067169D01*
X0150179Y0067112D01*
X0150189Y0067054D01*
X0150195Y0066996D01*
X0150197Y0066937D01*
X0150195Y0066878D01*
X0150189Y0066820D01*
X0150179Y0066762D01*
X0150166Y0066705D01*
X0150148Y0066648D01*
X0150127Y0066593D01*
X0150102Y0066540D01*
X0150074Y0066489D01*
X0150043Y0066439D01*
X0150008Y0066392D01*
X0149970Y0066347D01*
X0149929Y0066304D01*
X0149885Y0066265D01*
X0149839Y0066229D01*
X0149791Y0066195D01*
X0149740Y0066165D01*
X0149687Y0066139D01*
X0149633Y0066116D01*
X0149578Y0066097D01*
X0149521Y0066081D01*
X0149463Y0066069D01*
X0149405Y0066061D01*
X0149346Y0066057D01*
X0149288Y0066057D01*
X0149229Y0066061D01*
X0149171Y0066069D01*
X0149113Y0066081D01*
X0149056Y0066097D01*
X0149001Y0066116D01*
X0148947Y0066139D01*
X0148894Y0066165D01*
X0148843Y0066195D01*
X0148795Y0066229D01*
X0148749Y0066265D01*
X0148705Y0066304D01*
X0148664Y0066347D01*
X0148626Y0066392D01*
X0148591Y0066439D01*
X0148560Y0066489D01*
X0148532Y0066540D01*
X0148507Y0066593D01*
X0148486Y0066648D01*
X0148468Y0066705D01*
X0148455Y0066762D01*
X0148445Y0066820D01*
X0148439Y0066878D01*
X0148437Y0066937D01*
X0148439Y0066996D01*
X0148445Y0067054D01*
X0148455Y0067112D01*
X0148468Y0067169D01*
X0148486Y0067226D01*
X0148507Y0067281D01*
X0148532Y0067334D01*
X0148560Y0067385D01*
X0148591Y0067435D01*
X0148626Y0067482D01*
X0148664Y0067527D01*
X0148705Y0067570D01*
X0148749Y0067609D01*
X0148795Y0067645D01*
X0148843Y0067679D01*
X0148894Y0067709D01*
X0148947Y0067735D01*
X0149001Y0067758D01*
X0149056Y0067777D01*
X0149113Y0067793D01*
X0149171Y0067805D01*
X0149229Y0067813D01*
X0149288Y0067817D01*
X0149346Y0067817D01*
X0149405Y0067813D01*
X0149463Y0067805D01*
X0149521Y0067793D01*
X0149578Y0067777D01*
X0149633Y0067758D01*
X0149687Y0067735D01*
X0149740Y0067709D01*
X0149791Y0067679D01*
X0149839Y0067645D01*
X0149885Y0067609D01*
X0149929Y0067570D01*
X0149970Y0067527D01*
X0150008Y0067482D01*
X0150043Y0067435D01*
X0150074Y0067385D01*
X0150102Y0067334D01*
X0150127Y0067281D01*
X0150148Y0067226D01*
X0150166Y0067169D01*
X0150179Y0067112D01*
X0150189Y0067054D01*
X0150195Y0066996D01*
X0150197Y0066937D01*
X0150195Y0066878D01*
X0150189Y0066820D01*
X0150179Y0066762D01*
X0150166Y0066705D01*
X0150148Y0066648D01*
X0150127Y0066593D01*
X0150102Y0066540D01*
X0150074Y0066489D01*
X0150043Y0066439D01*
X0150008Y0066392D01*
X0149970Y0066347D01*
X0149929Y0066304D01*
X0149885Y0066265D01*
X0149839Y0066229D01*
X0149791Y0066195D01*
X0149740Y0066165D01*
X0149687Y0066139D01*
X0149633Y0066116D01*
X0149578Y0066097D01*
X0149521Y0066081D01*
X0149463Y0066069D01*
X0149405Y0066061D01*
X0149346Y0066057D01*
X0149288Y0066057D01*
X0149229Y0066061D01*
X0149171Y0066069D01*
X0149113Y0066081D01*
X0149056Y0066097D01*
X0149001Y0066116D01*
X0148947Y0066139D01*
X0148894Y0066165D01*
X0148843Y0066195D01*
X0148795Y0066229D01*
X0148749Y0066265D01*
X0148705Y0066304D01*
X0148664Y0066347D01*
X0148626Y0066392D01*
X0148591Y0066439D01*
X0148560Y0066489D01*
X0148532Y0066540D01*
X0148507Y0066593D01*
X0148486Y0066648D01*
X0148468Y0066705D01*
X0148455Y0066762D01*
X0148445Y0066820D01*
X0148439Y0066878D01*
X0148437Y0066937D01*
X0146017Y0068751D02*
X0144215Y0066949D01*
X0144215Y0066499D01*
X0143070Y0066949D02*
X0142620Y0066499D01*
X0141719Y0066499D01*
X0141268Y0066949D01*
X0141268Y0068751D01*
X0141719Y0069201D01*
X0142620Y0069201D01*
X0143070Y0068751D01*
X0144215Y0069201D02*
X0146017Y0069201D01*
X0146017Y0068751D01*
X0134356Y0075992D02*
X0134356Y0083866D01*
X0120971Y0083866D01*
X0120971Y0075992D01*
X0134356Y0075992D01*
X0141443Y0087016D02*
X0141443Y0096465D01*
X0153254Y0096465D01*
X0153254Y0087016D01*
X0141443Y0087016D01*
X0160341Y0089772D02*
X0160341Y0097646D01*
X0173726Y0097646D01*
X0173726Y0089772D01*
X0160341Y0089772D01*
X0187900Y0087803D02*
X0191837Y0087803D01*
X0187900Y0087803D02*
X0187900Y0095283D01*
X0188293Y0095283D01*
X0193412Y0095283D02*
X0195774Y0095283D01*
X0200892Y0095283D02*
X0201286Y0095283D01*
X0201286Y0087803D01*
X0197349Y0087803D01*
X0184750Y0118512D02*
X0172939Y0118512D01*
X0172939Y0127961D01*
X0184750Y0127961D01*
X0184750Y0118512D01*
X0190656Y0150008D02*
X0190656Y0150795D01*
X0190656Y0150008D02*
X0119789Y0150008D01*
X0119789Y0150598D01*
X0116640Y0136819D02*
X0116640Y0125402D01*
X0122939Y0125402D01*
X0122939Y0136819D01*
X0116640Y0136819D01*
X0120289Y0127110D02*
X0120291Y0127173D01*
X0120297Y0127235D01*
X0120307Y0127297D01*
X0120320Y0127359D01*
X0120338Y0127419D01*
X0120359Y0127478D01*
X0120384Y0127536D01*
X0120413Y0127592D01*
X0120445Y0127646D01*
X0120480Y0127698D01*
X0120518Y0127747D01*
X0120560Y0127795D01*
X0120604Y0127839D01*
X0120652Y0127881D01*
X0120701Y0127919D01*
X0120753Y0127954D01*
X0120807Y0127986D01*
X0120863Y0128015D01*
X0120921Y0128040D01*
X0120980Y0128061D01*
X0121040Y0128079D01*
X0121102Y0128092D01*
X0121164Y0128102D01*
X0121226Y0128108D01*
X0121289Y0128110D01*
X0121352Y0128108D01*
X0121414Y0128102D01*
X0121476Y0128092D01*
X0121538Y0128079D01*
X0121598Y0128061D01*
X0121657Y0128040D01*
X0121715Y0128015D01*
X0121771Y0127986D01*
X0121825Y0127954D01*
X0121877Y0127919D01*
X0121926Y0127881D01*
X0121974Y0127839D01*
X0122018Y0127795D01*
X0122060Y0127747D01*
X0122098Y0127698D01*
X0122133Y0127646D01*
X0122165Y0127592D01*
X0122194Y0127536D01*
X0122219Y0127478D01*
X0122240Y0127419D01*
X0122258Y0127359D01*
X0122271Y0127297D01*
X0122281Y0127235D01*
X0122287Y0127173D01*
X0122289Y0127110D01*
X0122287Y0127047D01*
X0122281Y0126985D01*
X0122271Y0126923D01*
X0122258Y0126861D01*
X0122240Y0126801D01*
X0122219Y0126742D01*
X0122194Y0126684D01*
X0122165Y0126628D01*
X0122133Y0126574D01*
X0122098Y0126522D01*
X0122060Y0126473D01*
X0122018Y0126425D01*
X0121974Y0126381D01*
X0121926Y0126339D01*
X0121877Y0126301D01*
X0121825Y0126266D01*
X0121771Y0126234D01*
X0121715Y0126205D01*
X0121657Y0126180D01*
X0121598Y0126159D01*
X0121538Y0126141D01*
X0121476Y0126128D01*
X0121414Y0126118D01*
X0121352Y0126112D01*
X0121289Y0126110D01*
X0121226Y0126112D01*
X0121164Y0126118D01*
X0121102Y0126128D01*
X0121040Y0126141D01*
X0120980Y0126159D01*
X0120921Y0126180D01*
X0120863Y0126205D01*
X0120807Y0126234D01*
X0120753Y0126266D01*
X0120701Y0126301D01*
X0120652Y0126339D01*
X0120604Y0126381D01*
X0120560Y0126425D01*
X0120518Y0126473D01*
X0120480Y0126522D01*
X0120445Y0126574D01*
X0120413Y0126628D01*
X0120384Y0126684D01*
X0120359Y0126742D01*
X0120338Y0126801D01*
X0120320Y0126861D01*
X0120307Y0126923D01*
X0120297Y0126985D01*
X0120291Y0127047D01*
X0120289Y0127110D01*
X0116784Y0120145D02*
X0116784Y0118343D01*
X0116784Y0119244D02*
X0114081Y0119244D01*
X0114982Y0118343D01*
X0116784Y0117198D02*
X0116784Y0115397D01*
X0114081Y0115397D01*
X0114982Y0114252D02*
X0116784Y0114252D01*
X0115432Y0114252D02*
X0115432Y0112450D01*
X0114982Y0112450D02*
X0114081Y0113351D01*
X0114982Y0114252D01*
X0114982Y0112450D02*
X0116784Y0112450D01*
X0116784Y0110404D02*
X0114081Y0110404D01*
X0114081Y0109504D02*
X0114081Y0111305D01*
X0114081Y0108359D02*
X0116784Y0106557D01*
X0116784Y0108359D02*
X0114081Y0106557D01*
X0090111Y0096760D02*
X0089210Y0096310D01*
X0088309Y0095409D01*
X0089661Y0095409D01*
X0090111Y0094959D01*
X0090111Y0094508D01*
X0089661Y0094058D01*
X0088760Y0094058D01*
X0088309Y0094508D01*
X0088309Y0095409D01*
X0087164Y0095859D02*
X0087164Y0096310D01*
X0086714Y0096760D01*
X0085813Y0096760D01*
X0085363Y0096310D01*
X0084218Y0096310D02*
X0084218Y0095409D01*
X0083768Y0094959D01*
X0082416Y0094959D01*
X0082416Y0094058D02*
X0082416Y0096760D01*
X0083768Y0096760D01*
X0084218Y0096310D01*
X0083317Y0094959D02*
X0084218Y0094058D01*
X0085363Y0094058D02*
X0087164Y0095859D01*
X0087164Y0094058D02*
X0085363Y0094058D01*
X0061915Y0105520D02*
X0060931Y0104142D01*
X0059947Y0105520D01*
X0061915Y0105520D01*
X0059160Y0105520D02*
X0059160Y0105126D01*
X0050498Y0105126D01*
X0050498Y0105520D01*
X0040555Y0107838D02*
X0040555Y0108739D01*
X0040105Y0109189D01*
X0040555Y0110334D02*
X0040555Y0112136D01*
X0040555Y0111235D02*
X0037853Y0111235D01*
X0038754Y0110334D01*
X0038303Y0109189D02*
X0037853Y0108739D01*
X0037853Y0107838D01*
X0038303Y0107388D01*
X0040105Y0107388D01*
X0040555Y0107838D01*
X0040555Y0113281D02*
X0040105Y0113281D01*
X0038303Y0115082D01*
X0037853Y0115082D01*
X0037853Y0113281D01*
X0032776Y0114038D02*
X0032776Y0114939D01*
X0032325Y0115389D01*
X0031875Y0115389D01*
X0031425Y0114939D01*
X0031425Y0114038D01*
X0030974Y0113588D01*
X0030524Y0113588D01*
X0030073Y0114038D01*
X0030073Y0114939D01*
X0030524Y0115389D01*
X0030974Y0115389D01*
X0031425Y0114939D01*
X0031425Y0114038D02*
X0031875Y0113588D01*
X0032325Y0113588D01*
X0032776Y0114038D01*
X0032776Y0112443D02*
X0032776Y0110641D01*
X0030974Y0112443D01*
X0030524Y0112443D01*
X0030073Y0111993D01*
X0030073Y0111092D01*
X0030524Y0110641D01*
X0030524Y0109496D02*
X0031425Y0109496D01*
X0031875Y0109046D01*
X0031875Y0107695D01*
X0031875Y0108596D02*
X0032776Y0109496D01*
X0032776Y0107695D02*
X0030073Y0107695D01*
X0030073Y0109046D01*
X0030524Y0109496D01*
X0050498Y0117331D02*
X0050498Y0117724D01*
X0059160Y0117724D01*
X0059160Y0117331D01*
X0069002Y0059850D02*
X0069002Y0059063D01*
X0069002Y0059850D02*
X0076089Y0059850D01*
X0076089Y0059063D01*
X0076089Y0053551D02*
X0076089Y0051189D01*
X0076089Y0045677D02*
X0076089Y0044890D01*
X0069002Y0044890D01*
X0069002Y0045677D01*
X0073215Y0020500D02*
X0063215Y0020500D01*
X0063215Y0005500D01*
X0073215Y0005500D01*
X0073215Y0020500D01*
X0073215Y0005500D01*
X0083215Y0005500D01*
X0083215Y0020500D01*
X0073215Y0020500D01*
X0083215Y0020500D02*
X0083215Y0005500D01*
X0093215Y0005500D01*
X0093215Y0020500D01*
X0083215Y0020500D01*
X0093215Y0020500D02*
X0093215Y0005500D01*
X0103215Y0005500D01*
X0103215Y0020500D01*
X0093215Y0020500D01*
X0103215Y0020500D02*
X0103215Y0005500D01*
X0113215Y0005500D01*
X0113215Y0020500D01*
X0103215Y0020500D01*
X0113215Y0020500D02*
X0113215Y0005500D01*
X0123215Y0005500D01*
X0123215Y0020500D01*
X0113215Y0020500D01*
X0132287Y0050896D02*
X0132287Y0053598D01*
X0133639Y0053598D01*
X0134089Y0053148D01*
X0134089Y0052247D01*
X0133639Y0051796D01*
X0132287Y0051796D01*
X0133188Y0051796D02*
X0134089Y0050896D01*
X0135234Y0050896D02*
X0137036Y0050896D01*
X0136135Y0050896D02*
X0136135Y0053598D01*
X0135234Y0052697D01*
X0138181Y0053148D02*
X0138631Y0053598D01*
X0139532Y0053598D01*
X0139982Y0053148D01*
X0138181Y0051346D01*
X0138631Y0050896D01*
X0139532Y0050896D01*
X0139982Y0051346D01*
X0139982Y0053148D01*
X0138181Y0053148D02*
X0138181Y0051346D01*
X0063215Y0020500D02*
X0063215Y0005500D01*
X0053215Y0005500D01*
X0053215Y0020500D01*
X0063215Y0020500D01*
X0279829Y0186228D02*
X0279829Y0193906D01*
X0281010Y0193906D01*
D16*
X0114987Y0244890D02*
X0114989Y0244933D01*
X0114995Y0244975D01*
X0115005Y0245017D01*
X0115018Y0245058D01*
X0115035Y0245098D01*
X0115056Y0245135D01*
X0115080Y0245171D01*
X0115107Y0245204D01*
X0115137Y0245235D01*
X0115170Y0245263D01*
X0115205Y0245288D01*
X0115242Y0245309D01*
X0115281Y0245327D01*
X0115321Y0245341D01*
X0115363Y0245352D01*
X0115405Y0245359D01*
X0115448Y0245362D01*
X0115491Y0245361D01*
X0115534Y0245356D01*
X0115576Y0245347D01*
X0115617Y0245335D01*
X0115657Y0245319D01*
X0115695Y0245299D01*
X0115731Y0245276D01*
X0115765Y0245249D01*
X0115797Y0245220D01*
X0115825Y0245188D01*
X0115851Y0245153D01*
X0115873Y0245117D01*
X0115892Y0245078D01*
X0115907Y0245038D01*
X0115919Y0244997D01*
X0115927Y0244954D01*
X0115931Y0244911D01*
X0115931Y0244869D01*
X0115927Y0244826D01*
X0115919Y0244783D01*
X0115907Y0244742D01*
X0115892Y0244702D01*
X0115873Y0244663D01*
X0115851Y0244627D01*
X0115825Y0244592D01*
X0115797Y0244560D01*
X0115765Y0244531D01*
X0115731Y0244504D01*
X0115695Y0244481D01*
X0115657Y0244461D01*
X0115617Y0244445D01*
X0115576Y0244433D01*
X0115534Y0244424D01*
X0115491Y0244419D01*
X0115448Y0244418D01*
X0115405Y0244421D01*
X0115363Y0244428D01*
X0115321Y0244439D01*
X0115281Y0244453D01*
X0115242Y0244471D01*
X0115205Y0244492D01*
X0115170Y0244517D01*
X0115137Y0244545D01*
X0115107Y0244576D01*
X0115080Y0244609D01*
X0115056Y0244645D01*
X0115035Y0244682D01*
X0115018Y0244722D01*
X0115005Y0244763D01*
X0114995Y0244805D01*
X0114989Y0244847D01*
X0114987Y0244890D01*
D17*
X0110067Y0241346D02*
X0109827Y0241346D01*
X0102193Y0241346D02*
X0101953Y0241346D01*
X0107978Y0221781D02*
X0107978Y0221541D01*
X0043018Y0135167D02*
X0043018Y0134927D01*
X0043018Y0127293D02*
X0043018Y0127053D01*
X0042898Y0111425D02*
X0043138Y0111425D01*
X0066520Y0111425D02*
X0066760Y0111425D01*
X0090262Y0099734D02*
X0090262Y0099494D01*
X0066760Y0091740D02*
X0066520Y0091740D01*
X0103921Y0131110D02*
X0104162Y0131110D01*
X0135417Y0131110D02*
X0135658Y0131110D01*
X0135537Y0117451D02*
X0135537Y0117211D01*
X0147349Y0103671D02*
X0147349Y0103431D01*
X0129632Y0101703D02*
X0129632Y0101463D01*
X0167034Y0083986D02*
X0167034Y0083746D01*
X0167034Y0076112D02*
X0167034Y0075872D01*
X0178724Y0072055D02*
X0178965Y0072055D01*
X0143412Y0071935D02*
X0143412Y0072175D01*
X0178845Y0111305D02*
X0178845Y0111545D01*
X0194593Y0111545D02*
X0194593Y0111305D01*
X0178845Y0134927D02*
X0178845Y0135167D01*
X0241837Y0154612D02*
X0241837Y0154852D01*
X0253648Y0168392D02*
X0253648Y0168632D01*
X0241837Y0197919D02*
X0241837Y0198159D01*
X0247742Y0119419D02*
X0247742Y0119179D01*
X0285024Y0060244D02*
X0285264Y0060244D01*
X0218215Y0040679D02*
X0218215Y0040439D01*
X0088293Y0036742D02*
X0088293Y0036502D01*
X0088293Y0044376D02*
X0088293Y0044616D01*
D18*
X0049514Y0033512D02*
X0044593Y0033512D01*
X0033884Y0033512D02*
X0028845Y0033512D01*
X0028845Y0071228D01*
X0033884Y0071228D01*
X0044593Y0071228D02*
X0049514Y0071228D01*
X0273529Y0087213D02*
X0273531Y0087252D01*
X0273537Y0087291D01*
X0273547Y0087329D01*
X0273560Y0087366D01*
X0273577Y0087401D01*
X0273597Y0087435D01*
X0273621Y0087466D01*
X0273648Y0087495D01*
X0273677Y0087521D01*
X0273709Y0087544D01*
X0273743Y0087564D01*
X0273779Y0087580D01*
X0273816Y0087592D01*
X0273855Y0087601D01*
X0273894Y0087606D01*
X0273933Y0087607D01*
X0273972Y0087604D01*
X0274011Y0087597D01*
X0274048Y0087586D01*
X0274085Y0087572D01*
X0274120Y0087554D01*
X0274153Y0087533D01*
X0274184Y0087508D01*
X0274212Y0087481D01*
X0274237Y0087451D01*
X0274259Y0087418D01*
X0274278Y0087384D01*
X0274293Y0087348D01*
X0274305Y0087310D01*
X0274313Y0087272D01*
X0274317Y0087233D01*
X0274317Y0087193D01*
X0274313Y0087154D01*
X0274305Y0087116D01*
X0274293Y0087078D01*
X0274278Y0087042D01*
X0274259Y0087008D01*
X0274237Y0086975D01*
X0274212Y0086945D01*
X0274184Y0086918D01*
X0274153Y0086893D01*
X0274120Y0086872D01*
X0274085Y0086854D01*
X0274048Y0086840D01*
X0274011Y0086829D01*
X0273972Y0086822D01*
X0273933Y0086819D01*
X0273894Y0086820D01*
X0273855Y0086825D01*
X0273816Y0086834D01*
X0273779Y0086846D01*
X0273743Y0086862D01*
X0273709Y0086882D01*
X0273677Y0086905D01*
X0273648Y0086931D01*
X0273621Y0086960D01*
X0273597Y0086991D01*
X0273577Y0087025D01*
X0273560Y0087060D01*
X0273547Y0087097D01*
X0273537Y0087135D01*
X0273531Y0087174D01*
X0273529Y0087213D01*
D19*
X0148845Y0066937D02*
X0148847Y0066980D01*
X0148853Y0067022D01*
X0148863Y0067064D01*
X0148876Y0067105D01*
X0148893Y0067145D01*
X0148914Y0067182D01*
X0148938Y0067218D01*
X0148965Y0067251D01*
X0148995Y0067282D01*
X0149028Y0067310D01*
X0149063Y0067335D01*
X0149100Y0067356D01*
X0149139Y0067374D01*
X0149179Y0067388D01*
X0149221Y0067399D01*
X0149263Y0067406D01*
X0149306Y0067409D01*
X0149349Y0067408D01*
X0149392Y0067403D01*
X0149434Y0067394D01*
X0149475Y0067382D01*
X0149515Y0067366D01*
X0149553Y0067346D01*
X0149589Y0067323D01*
X0149623Y0067296D01*
X0149655Y0067267D01*
X0149683Y0067235D01*
X0149709Y0067200D01*
X0149731Y0067164D01*
X0149750Y0067125D01*
X0149765Y0067085D01*
X0149777Y0067044D01*
X0149785Y0067001D01*
X0149789Y0066958D01*
X0149789Y0066916D01*
X0149785Y0066873D01*
X0149777Y0066830D01*
X0149765Y0066789D01*
X0149750Y0066749D01*
X0149731Y0066710D01*
X0149709Y0066674D01*
X0149683Y0066639D01*
X0149655Y0066607D01*
X0149623Y0066578D01*
X0149589Y0066551D01*
X0149553Y0066528D01*
X0149515Y0066508D01*
X0149475Y0066492D01*
X0149434Y0066480D01*
X0149392Y0066471D01*
X0149349Y0066466D01*
X0149306Y0066465D01*
X0149263Y0066468D01*
X0149221Y0066475D01*
X0149179Y0066486D01*
X0149139Y0066500D01*
X0149100Y0066518D01*
X0149063Y0066539D01*
X0149028Y0066564D01*
X0148995Y0066592D01*
X0148965Y0066623D01*
X0148938Y0066656D01*
X0148914Y0066692D01*
X0148893Y0066729D01*
X0148876Y0066769D01*
X0148863Y0066810D01*
X0148853Y0066852D01*
X0148847Y0066894D01*
X0148845Y0066937D01*
X0031994Y0092528D02*
X0031994Y0098827D01*
D20*
X0031404Y0093906D03*
D21*
X0195380Y0058669D02*
X0195380Y0046071D01*
X0201679Y0046071D02*
X0201679Y0058669D01*
D22*
X0198530Y0052370D03*
D23*
X0198530Y0052173D03*
D24*
X0138883Y0095283D02*
X0138885Y0095331D01*
X0138891Y0095379D01*
X0138901Y0095426D01*
X0138914Y0095472D01*
X0138932Y0095517D01*
X0138952Y0095561D01*
X0138977Y0095603D01*
X0139005Y0095642D01*
X0139035Y0095679D01*
X0139069Y0095713D01*
X0139106Y0095745D01*
X0139144Y0095774D01*
X0139185Y0095799D01*
X0139228Y0095821D01*
X0139273Y0095839D01*
X0139319Y0095853D01*
X0139366Y0095864D01*
X0139414Y0095871D01*
X0139462Y0095874D01*
X0139510Y0095873D01*
X0139558Y0095868D01*
X0139606Y0095859D01*
X0139652Y0095847D01*
X0139697Y0095830D01*
X0139741Y0095810D01*
X0139783Y0095787D01*
X0139823Y0095760D01*
X0139861Y0095730D01*
X0139896Y0095697D01*
X0139928Y0095661D01*
X0139958Y0095623D01*
X0139984Y0095582D01*
X0140006Y0095539D01*
X0140026Y0095495D01*
X0140041Y0095450D01*
X0140053Y0095403D01*
X0140061Y0095355D01*
X0140065Y0095307D01*
X0140065Y0095259D01*
X0140061Y0095211D01*
X0140053Y0095163D01*
X0140041Y0095116D01*
X0140026Y0095071D01*
X0140006Y0095027D01*
X0139984Y0094984D01*
X0139958Y0094943D01*
X0139928Y0094905D01*
X0139896Y0094869D01*
X0139861Y0094836D01*
X0139823Y0094806D01*
X0139783Y0094779D01*
X0139741Y0094756D01*
X0139697Y0094736D01*
X0139652Y0094719D01*
X0139606Y0094707D01*
X0139558Y0094698D01*
X0139510Y0094693D01*
X0139462Y0094692D01*
X0139414Y0094695D01*
X0139366Y0094702D01*
X0139319Y0094713D01*
X0139273Y0094727D01*
X0139228Y0094745D01*
X0139185Y0094767D01*
X0139144Y0094792D01*
X0139106Y0094821D01*
X0139069Y0094853D01*
X0139035Y0094887D01*
X0139005Y0094924D01*
X0138977Y0094963D01*
X0138952Y0095005D01*
X0138932Y0095049D01*
X0138914Y0095094D01*
X0138901Y0095140D01*
X0138891Y0095187D01*
X0138885Y0095235D01*
X0138883Y0095283D01*
X0138361Y0095283D02*
X0138363Y0095350D01*
X0138369Y0095416D01*
X0138379Y0095482D01*
X0138393Y0095547D01*
X0138410Y0095611D01*
X0138432Y0095674D01*
X0138457Y0095736D01*
X0138486Y0095796D01*
X0138519Y0095854D01*
X0138554Y0095910D01*
X0138594Y0095964D01*
X0138636Y0096015D01*
X0138681Y0096064D01*
X0138729Y0096110D01*
X0138780Y0096153D01*
X0138833Y0096193D01*
X0138889Y0096230D01*
X0138947Y0096263D01*
X0139006Y0096293D01*
X0139067Y0096319D01*
X0139130Y0096342D01*
X0139194Y0096360D01*
X0139259Y0096375D01*
X0139325Y0096386D01*
X0139391Y0096393D01*
X0139457Y0096396D01*
X0139524Y0096395D01*
X0139590Y0096390D01*
X0139656Y0096381D01*
X0139722Y0096368D01*
X0139786Y0096351D01*
X0139849Y0096331D01*
X0139911Y0096306D01*
X0139972Y0096278D01*
X0140031Y0096247D01*
X0140087Y0096212D01*
X0140142Y0096174D01*
X0140194Y0096132D01*
X0140243Y0096087D01*
X0140290Y0096040D01*
X0140334Y0095990D01*
X0140374Y0095937D01*
X0140412Y0095882D01*
X0140446Y0095825D01*
X0140477Y0095766D01*
X0140504Y0095705D01*
X0140527Y0095643D01*
X0140547Y0095579D01*
X0140563Y0095514D01*
X0140575Y0095449D01*
X0140583Y0095383D01*
X0140587Y0095316D01*
X0140587Y0095250D01*
X0140583Y0095183D01*
X0140575Y0095117D01*
X0140563Y0095052D01*
X0140547Y0094987D01*
X0140527Y0094923D01*
X0140504Y0094861D01*
X0140477Y0094800D01*
X0140446Y0094741D01*
X0140412Y0094684D01*
X0140374Y0094629D01*
X0140334Y0094576D01*
X0140290Y0094526D01*
X0140243Y0094479D01*
X0140194Y0094434D01*
X0140142Y0094392D01*
X0140087Y0094354D01*
X0140030Y0094319D01*
X0139972Y0094288D01*
X0139911Y0094260D01*
X0139849Y0094235D01*
X0139786Y0094215D01*
X0139722Y0094198D01*
X0139656Y0094185D01*
X0139590Y0094176D01*
X0139524Y0094171D01*
X0139457Y0094170D01*
X0139391Y0094173D01*
X0139325Y0094180D01*
X0139259Y0094191D01*
X0139194Y0094206D01*
X0139130Y0094224D01*
X0139067Y0094247D01*
X0139006Y0094273D01*
X0138947Y0094303D01*
X0138889Y0094336D01*
X0138833Y0094373D01*
X0138780Y0094413D01*
X0138729Y0094456D01*
X0138681Y0094502D01*
X0138636Y0094551D01*
X0138594Y0094602D01*
X0138554Y0094656D01*
X0138519Y0094712D01*
X0138486Y0094770D01*
X0138457Y0094830D01*
X0138432Y0094892D01*
X0138410Y0094955D01*
X0138393Y0095019D01*
X0138379Y0095084D01*
X0138369Y0095150D01*
X0138363Y0095216D01*
X0138361Y0095283D01*
X0154435Y0115756D02*
X0154435Y0130717D01*
X0167821Y0130717D01*
X0167821Y0115756D01*
X0154435Y0115756D01*
X0186128Y0119693D02*
X0186130Y0119741D01*
X0186136Y0119789D01*
X0186146Y0119836D01*
X0186159Y0119882D01*
X0186177Y0119927D01*
X0186197Y0119971D01*
X0186222Y0120013D01*
X0186250Y0120052D01*
X0186280Y0120089D01*
X0186314Y0120123D01*
X0186351Y0120155D01*
X0186389Y0120184D01*
X0186430Y0120209D01*
X0186473Y0120231D01*
X0186518Y0120249D01*
X0186564Y0120263D01*
X0186611Y0120274D01*
X0186659Y0120281D01*
X0186707Y0120284D01*
X0186755Y0120283D01*
X0186803Y0120278D01*
X0186851Y0120269D01*
X0186897Y0120257D01*
X0186942Y0120240D01*
X0186986Y0120220D01*
X0187028Y0120197D01*
X0187068Y0120170D01*
X0187106Y0120140D01*
X0187141Y0120107D01*
X0187173Y0120071D01*
X0187203Y0120033D01*
X0187229Y0119992D01*
X0187251Y0119949D01*
X0187271Y0119905D01*
X0187286Y0119860D01*
X0187298Y0119813D01*
X0187306Y0119765D01*
X0187310Y0119717D01*
X0187310Y0119669D01*
X0187306Y0119621D01*
X0187298Y0119573D01*
X0187286Y0119526D01*
X0187271Y0119481D01*
X0187251Y0119437D01*
X0187229Y0119394D01*
X0187203Y0119353D01*
X0187173Y0119315D01*
X0187141Y0119279D01*
X0187106Y0119246D01*
X0187068Y0119216D01*
X0187028Y0119189D01*
X0186986Y0119166D01*
X0186942Y0119146D01*
X0186897Y0119129D01*
X0186851Y0119117D01*
X0186803Y0119108D01*
X0186755Y0119103D01*
X0186707Y0119102D01*
X0186659Y0119105D01*
X0186611Y0119112D01*
X0186564Y0119123D01*
X0186518Y0119137D01*
X0186473Y0119155D01*
X0186430Y0119177D01*
X0186389Y0119202D01*
X0186351Y0119231D01*
X0186314Y0119263D01*
X0186280Y0119297D01*
X0186250Y0119334D01*
X0186222Y0119373D01*
X0186197Y0119415D01*
X0186177Y0119459D01*
X0186159Y0119504D01*
X0186146Y0119550D01*
X0186136Y0119597D01*
X0186130Y0119645D01*
X0186128Y0119693D01*
X0185606Y0119693D02*
X0185608Y0119760D01*
X0185614Y0119826D01*
X0185624Y0119892D01*
X0185638Y0119957D01*
X0185655Y0120021D01*
X0185677Y0120084D01*
X0185702Y0120146D01*
X0185731Y0120206D01*
X0185764Y0120264D01*
X0185799Y0120320D01*
X0185839Y0120374D01*
X0185881Y0120425D01*
X0185926Y0120474D01*
X0185974Y0120520D01*
X0186025Y0120563D01*
X0186078Y0120603D01*
X0186134Y0120640D01*
X0186192Y0120673D01*
X0186251Y0120703D01*
X0186312Y0120729D01*
X0186375Y0120752D01*
X0186439Y0120770D01*
X0186504Y0120785D01*
X0186570Y0120796D01*
X0186636Y0120803D01*
X0186702Y0120806D01*
X0186769Y0120805D01*
X0186835Y0120800D01*
X0186901Y0120791D01*
X0186967Y0120778D01*
X0187031Y0120761D01*
X0187094Y0120741D01*
X0187156Y0120716D01*
X0187217Y0120688D01*
X0187276Y0120657D01*
X0187332Y0120622D01*
X0187387Y0120584D01*
X0187439Y0120542D01*
X0187488Y0120497D01*
X0187535Y0120450D01*
X0187579Y0120400D01*
X0187619Y0120347D01*
X0187657Y0120292D01*
X0187691Y0120235D01*
X0187722Y0120176D01*
X0187749Y0120115D01*
X0187772Y0120053D01*
X0187792Y0119989D01*
X0187808Y0119924D01*
X0187820Y0119859D01*
X0187828Y0119793D01*
X0187832Y0119726D01*
X0187832Y0119660D01*
X0187828Y0119593D01*
X0187820Y0119527D01*
X0187808Y0119462D01*
X0187792Y0119397D01*
X0187772Y0119333D01*
X0187749Y0119271D01*
X0187722Y0119210D01*
X0187691Y0119151D01*
X0187657Y0119094D01*
X0187619Y0119039D01*
X0187579Y0118986D01*
X0187535Y0118936D01*
X0187488Y0118889D01*
X0187439Y0118844D01*
X0187387Y0118802D01*
X0187332Y0118764D01*
X0187275Y0118729D01*
X0187217Y0118698D01*
X0187156Y0118670D01*
X0187094Y0118645D01*
X0187031Y0118625D01*
X0186967Y0118608D01*
X0186901Y0118595D01*
X0186835Y0118586D01*
X0186769Y0118581D01*
X0186702Y0118580D01*
X0186636Y0118583D01*
X0186570Y0118590D01*
X0186504Y0118601D01*
X0186439Y0118616D01*
X0186375Y0118634D01*
X0186312Y0118657D01*
X0186251Y0118683D01*
X0186192Y0118713D01*
X0186134Y0118746D01*
X0186078Y0118783D01*
X0186025Y0118823D01*
X0185974Y0118866D01*
X0185926Y0118912D01*
X0185881Y0118961D01*
X0185839Y0119012D01*
X0185799Y0119066D01*
X0185764Y0119122D01*
X0185731Y0119180D01*
X0185702Y0119240D01*
X0185677Y0119302D01*
X0185655Y0119365D01*
X0185638Y0119429D01*
X0185624Y0119494D01*
X0185614Y0119560D01*
X0185608Y0119626D01*
X0185606Y0119693D01*
X0051679Y0215756D02*
X0051679Y0235441D01*
X0043805Y0235441D02*
X0038293Y0235441D01*
X0030419Y0235441D02*
X0030419Y0215756D01*
X0038293Y0215756D02*
X0043805Y0215756D01*
D25*
X0060734Y0213787D03*
X0060734Y0205913D03*
X0072545Y0198039D03*
X0107978Y0184260D03*
X0107978Y0168512D03*
X0076482Y0131110D03*
X0044986Y0095677D03*
X0039081Y0085835D03*
X0039081Y0077961D03*
X0084356Y0091740D03*
X0100104Y0091740D03*
X0129632Y0093709D03*
X0135537Y0109457D03*
X0194593Y0103551D03*
X0194593Y0119299D03*
X0245774Y0079929D03*
X0265459Y0079929D03*
X0304829Y0048433D03*
X0324514Y0048433D03*
X0218215Y0050402D03*
X0182782Y0046465D03*
X0169002Y0046465D03*
X0182782Y0062213D03*
X0135537Y0064181D03*
X0135537Y0056307D03*
X0135537Y0048433D03*
X0202467Y0168512D03*
X0202467Y0176386D03*
X0202467Y0184260D03*
X0202467Y0203945D03*
X0202467Y0239378D03*
X0107978Y0229535D03*
X0237900Y0168512D03*
D26*
X0198530Y0131110D03*
X0190656Y0131110D03*
X0194593Y0075992D03*
X0204435Y0030717D03*
X0123726Y0032685D03*
X0111915Y0032685D03*
X0104041Y0032685D03*
X0068608Y0075992D03*
X0058766Y0091740D03*
X0035144Y0111425D03*
X0237900Y0213787D03*
X0245774Y0213787D03*
D27*
X0231601Y0193315D02*
X0231603Y0193371D01*
X0231609Y0193426D01*
X0231619Y0193480D01*
X0231632Y0193534D01*
X0231650Y0193587D01*
X0231671Y0193638D01*
X0231695Y0193688D01*
X0231723Y0193736D01*
X0231755Y0193782D01*
X0231789Y0193826D01*
X0231827Y0193867D01*
X0231867Y0193905D01*
X0231910Y0193940D01*
X0231955Y0193972D01*
X0232003Y0194001D01*
X0232052Y0194027D01*
X0232103Y0194049D01*
X0232155Y0194067D01*
X0232209Y0194081D01*
X0232264Y0194092D01*
X0232319Y0194099D01*
X0232374Y0194102D01*
X0232430Y0194101D01*
X0232485Y0194096D01*
X0232540Y0194087D01*
X0232594Y0194075D01*
X0232647Y0194058D01*
X0232699Y0194038D01*
X0232749Y0194014D01*
X0232797Y0193987D01*
X0232844Y0193957D01*
X0232888Y0193923D01*
X0232930Y0193886D01*
X0232968Y0193846D01*
X0233005Y0193804D01*
X0233038Y0193759D01*
X0233067Y0193713D01*
X0233094Y0193664D01*
X0233116Y0193613D01*
X0233136Y0193561D01*
X0233151Y0193507D01*
X0233163Y0193453D01*
X0233171Y0193398D01*
X0233175Y0193343D01*
X0233175Y0193287D01*
X0233171Y0193232D01*
X0233163Y0193177D01*
X0233151Y0193123D01*
X0233136Y0193069D01*
X0233116Y0193017D01*
X0233094Y0192966D01*
X0233067Y0192917D01*
X0233038Y0192871D01*
X0233005Y0192826D01*
X0232968Y0192784D01*
X0232930Y0192744D01*
X0232888Y0192707D01*
X0232844Y0192673D01*
X0232797Y0192643D01*
X0232749Y0192616D01*
X0232699Y0192592D01*
X0232647Y0192572D01*
X0232594Y0192555D01*
X0232540Y0192543D01*
X0232485Y0192534D01*
X0232430Y0192529D01*
X0232374Y0192528D01*
X0232319Y0192531D01*
X0232264Y0192538D01*
X0232209Y0192549D01*
X0232155Y0192563D01*
X0232103Y0192581D01*
X0232052Y0192603D01*
X0232003Y0192629D01*
X0231955Y0192658D01*
X0231910Y0192690D01*
X0231867Y0192725D01*
X0231827Y0192763D01*
X0231789Y0192804D01*
X0231755Y0192848D01*
X0231723Y0192894D01*
X0231695Y0192942D01*
X0231671Y0192992D01*
X0231650Y0193043D01*
X0231632Y0193096D01*
X0231619Y0193150D01*
X0231609Y0193204D01*
X0231603Y0193259D01*
X0231601Y0193315D01*
D28*
X0234455Y0150106D03*
X0240360Y0114673D03*
D29*
X0282584Y0204398D02*
X0282586Y0204437D01*
X0282592Y0204476D01*
X0282602Y0204514D01*
X0282615Y0204551D01*
X0282632Y0204586D01*
X0282652Y0204620D01*
X0282676Y0204651D01*
X0282703Y0204680D01*
X0282732Y0204706D01*
X0282764Y0204729D01*
X0282798Y0204749D01*
X0282834Y0204765D01*
X0282871Y0204777D01*
X0282910Y0204786D01*
X0282949Y0204791D01*
X0282988Y0204792D01*
X0283027Y0204789D01*
X0283066Y0204782D01*
X0283103Y0204771D01*
X0283140Y0204757D01*
X0283175Y0204739D01*
X0283208Y0204718D01*
X0283239Y0204693D01*
X0283267Y0204666D01*
X0283292Y0204636D01*
X0283314Y0204603D01*
X0283333Y0204569D01*
X0283348Y0204533D01*
X0283360Y0204495D01*
X0283368Y0204457D01*
X0283372Y0204418D01*
X0283372Y0204378D01*
X0283368Y0204339D01*
X0283360Y0204301D01*
X0283348Y0204263D01*
X0283333Y0204227D01*
X0283314Y0204193D01*
X0283292Y0204160D01*
X0283267Y0204130D01*
X0283239Y0204103D01*
X0283208Y0204078D01*
X0283175Y0204057D01*
X0283140Y0204039D01*
X0283103Y0204025D01*
X0283066Y0204014D01*
X0283027Y0204007D01*
X0282988Y0204004D01*
X0282949Y0204005D01*
X0282910Y0204010D01*
X0282871Y0204019D01*
X0282834Y0204031D01*
X0282798Y0204047D01*
X0282764Y0204067D01*
X0282732Y0204090D01*
X0282703Y0204116D01*
X0282676Y0204145D01*
X0282652Y0204176D01*
X0282632Y0204210D01*
X0282615Y0204245D01*
X0282602Y0204282D01*
X0282592Y0204320D01*
X0282586Y0204359D01*
X0282584Y0204398D01*
M02*
