G75*
%MOIN*%
%OFA0B0*%
%FSLAX25Y25*%
%IPPOS*%
%LPD*%
%AMOC8*
5,1,8,0,0,1.08239X$1,22.5*
%
%ADD10C,0.00000*%
%ADD11C,0.11424*%
%ADD12C,0.04337*%
%ADD13C,0.04762*%
%ADD14C,0.02959*%
%ADD15C,0.03943*%
%ADD16C,0.05550*%
D10*
X0029238Y0009063D02*
X0029238Y0272843D01*
X0029240Y0272967D01*
X0029246Y0273090D01*
X0029255Y0273214D01*
X0029269Y0273336D01*
X0029286Y0273459D01*
X0029308Y0273581D01*
X0029333Y0273702D01*
X0029362Y0273822D01*
X0029394Y0273941D01*
X0029431Y0274060D01*
X0029471Y0274177D01*
X0029514Y0274292D01*
X0029562Y0274407D01*
X0029613Y0274519D01*
X0029667Y0274630D01*
X0029725Y0274740D01*
X0029786Y0274847D01*
X0029851Y0274953D01*
X0029919Y0275056D01*
X0029990Y0275157D01*
X0030064Y0275256D01*
X0030141Y0275353D01*
X0030222Y0275447D01*
X0030305Y0275538D01*
X0030391Y0275627D01*
X0030480Y0275713D01*
X0030571Y0275796D01*
X0030665Y0275877D01*
X0030762Y0275954D01*
X0030861Y0276028D01*
X0030962Y0276099D01*
X0031065Y0276167D01*
X0031171Y0276232D01*
X0031278Y0276293D01*
X0031388Y0276351D01*
X0031499Y0276405D01*
X0031611Y0276456D01*
X0031726Y0276504D01*
X0031841Y0276547D01*
X0031958Y0276587D01*
X0032077Y0276624D01*
X0032196Y0276656D01*
X0032316Y0276685D01*
X0032437Y0276710D01*
X0032559Y0276732D01*
X0032682Y0276749D01*
X0032804Y0276763D01*
X0032928Y0276772D01*
X0033051Y0276778D01*
X0033175Y0276780D01*
X0399317Y0276780D01*
X0399441Y0276778D01*
X0399564Y0276772D01*
X0399688Y0276763D01*
X0399810Y0276749D01*
X0399933Y0276732D01*
X0400055Y0276710D01*
X0400176Y0276685D01*
X0400296Y0276656D01*
X0400415Y0276624D01*
X0400534Y0276587D01*
X0400651Y0276547D01*
X0400766Y0276504D01*
X0400881Y0276456D01*
X0400993Y0276405D01*
X0401104Y0276351D01*
X0401214Y0276293D01*
X0401321Y0276232D01*
X0401427Y0276167D01*
X0401530Y0276099D01*
X0401631Y0276028D01*
X0401730Y0275954D01*
X0401827Y0275877D01*
X0401921Y0275796D01*
X0402012Y0275713D01*
X0402101Y0275627D01*
X0402187Y0275538D01*
X0402270Y0275447D01*
X0402351Y0275353D01*
X0402428Y0275256D01*
X0402502Y0275157D01*
X0402573Y0275056D01*
X0402641Y0274953D01*
X0402706Y0274847D01*
X0402767Y0274740D01*
X0402825Y0274630D01*
X0402879Y0274519D01*
X0402930Y0274407D01*
X0402978Y0274292D01*
X0403021Y0274177D01*
X0403061Y0274060D01*
X0403098Y0273941D01*
X0403130Y0273822D01*
X0403159Y0273702D01*
X0403184Y0273581D01*
X0403206Y0273459D01*
X0403223Y0273336D01*
X0403237Y0273214D01*
X0403246Y0273090D01*
X0403252Y0272967D01*
X0403254Y0272843D01*
X0403254Y0209850D01*
X0403255Y0209850D02*
X0403253Y0209764D01*
X0403248Y0209678D01*
X0403238Y0209593D01*
X0403225Y0209508D01*
X0403208Y0209424D01*
X0403188Y0209340D01*
X0403164Y0209258D01*
X0403136Y0209177D01*
X0403105Y0209096D01*
X0403071Y0209018D01*
X0403033Y0208941D01*
X0402991Y0208866D01*
X0402947Y0208792D01*
X0402899Y0208721D01*
X0402848Y0208651D01*
X0402794Y0208584D01*
X0402738Y0208520D01*
X0402678Y0208458D01*
X0402616Y0208398D01*
X0402552Y0208342D01*
X0402485Y0208288D01*
X0402415Y0208237D01*
X0402344Y0208189D01*
X0402271Y0208145D01*
X0402195Y0208103D01*
X0402118Y0208065D01*
X0402040Y0208031D01*
X0401959Y0208000D01*
X0401878Y0207972D01*
X0401796Y0207948D01*
X0401712Y0207928D01*
X0401628Y0207911D01*
X0401543Y0207898D01*
X0401458Y0207888D01*
X0401372Y0207883D01*
X0401286Y0207881D01*
X0401286Y0207882D02*
X0389474Y0207882D01*
X0389388Y0207880D01*
X0389302Y0207875D01*
X0389217Y0207865D01*
X0389132Y0207852D01*
X0389048Y0207835D01*
X0388964Y0207815D01*
X0388882Y0207791D01*
X0388801Y0207763D01*
X0388720Y0207732D01*
X0388642Y0207698D01*
X0388565Y0207660D01*
X0388490Y0207618D01*
X0388416Y0207574D01*
X0388345Y0207526D01*
X0388275Y0207475D01*
X0388208Y0207421D01*
X0388144Y0207365D01*
X0388082Y0207305D01*
X0388022Y0207243D01*
X0387966Y0207179D01*
X0387912Y0207112D01*
X0387861Y0207042D01*
X0387813Y0206971D01*
X0387769Y0206898D01*
X0387727Y0206822D01*
X0387689Y0206745D01*
X0387655Y0206667D01*
X0387624Y0206586D01*
X0387596Y0206505D01*
X0387572Y0206423D01*
X0387552Y0206339D01*
X0387535Y0206255D01*
X0387522Y0206170D01*
X0387512Y0206085D01*
X0387507Y0205999D01*
X0387505Y0205913D01*
X0387506Y0205913D02*
X0387506Y0034654D01*
X0387505Y0034654D02*
X0387507Y0034568D01*
X0387512Y0034482D01*
X0387522Y0034397D01*
X0387535Y0034312D01*
X0387552Y0034228D01*
X0387572Y0034144D01*
X0387596Y0034062D01*
X0387624Y0033981D01*
X0387655Y0033900D01*
X0387689Y0033822D01*
X0387727Y0033745D01*
X0387769Y0033670D01*
X0387813Y0033596D01*
X0387861Y0033525D01*
X0387912Y0033455D01*
X0387966Y0033388D01*
X0388022Y0033324D01*
X0388082Y0033262D01*
X0388144Y0033202D01*
X0388208Y0033146D01*
X0388275Y0033092D01*
X0388345Y0033041D01*
X0388416Y0032993D01*
X0388490Y0032949D01*
X0388565Y0032907D01*
X0388642Y0032869D01*
X0388720Y0032835D01*
X0388801Y0032804D01*
X0388882Y0032776D01*
X0388964Y0032752D01*
X0389048Y0032732D01*
X0389132Y0032715D01*
X0389217Y0032702D01*
X0389302Y0032692D01*
X0389388Y0032687D01*
X0389474Y0032685D01*
X0401286Y0032685D01*
X0401286Y0032686D02*
X0401372Y0032684D01*
X0401458Y0032679D01*
X0401543Y0032669D01*
X0401628Y0032656D01*
X0401712Y0032639D01*
X0401796Y0032619D01*
X0401878Y0032595D01*
X0401959Y0032567D01*
X0402040Y0032536D01*
X0402118Y0032502D01*
X0402195Y0032464D01*
X0402271Y0032422D01*
X0402344Y0032378D01*
X0402415Y0032330D01*
X0402485Y0032279D01*
X0402552Y0032225D01*
X0402616Y0032169D01*
X0402678Y0032109D01*
X0402738Y0032047D01*
X0402794Y0031983D01*
X0402848Y0031916D01*
X0402899Y0031846D01*
X0402947Y0031775D01*
X0402991Y0031702D01*
X0403033Y0031626D01*
X0403071Y0031549D01*
X0403105Y0031471D01*
X0403136Y0031390D01*
X0403164Y0031309D01*
X0403188Y0031227D01*
X0403208Y0031143D01*
X0403225Y0031059D01*
X0403238Y0030974D01*
X0403248Y0030889D01*
X0403253Y0030803D01*
X0403255Y0030717D01*
X0403254Y0030717D02*
X0403254Y0009063D01*
X0403252Y0008939D01*
X0403246Y0008816D01*
X0403237Y0008692D01*
X0403223Y0008570D01*
X0403206Y0008447D01*
X0403184Y0008325D01*
X0403159Y0008204D01*
X0403130Y0008084D01*
X0403098Y0007965D01*
X0403061Y0007846D01*
X0403021Y0007729D01*
X0402978Y0007614D01*
X0402930Y0007499D01*
X0402879Y0007387D01*
X0402825Y0007276D01*
X0402767Y0007166D01*
X0402706Y0007059D01*
X0402641Y0006953D01*
X0402573Y0006850D01*
X0402502Y0006749D01*
X0402428Y0006650D01*
X0402351Y0006553D01*
X0402270Y0006459D01*
X0402187Y0006368D01*
X0402101Y0006279D01*
X0402012Y0006193D01*
X0401921Y0006110D01*
X0401827Y0006029D01*
X0401730Y0005952D01*
X0401631Y0005878D01*
X0401530Y0005807D01*
X0401427Y0005739D01*
X0401321Y0005674D01*
X0401214Y0005613D01*
X0401104Y0005555D01*
X0400993Y0005501D01*
X0400881Y0005450D01*
X0400766Y0005402D01*
X0400651Y0005359D01*
X0400534Y0005319D01*
X0400415Y0005282D01*
X0400296Y0005250D01*
X0400176Y0005221D01*
X0400055Y0005196D01*
X0399933Y0005174D01*
X0399810Y0005157D01*
X0399688Y0005143D01*
X0399564Y0005134D01*
X0399441Y0005128D01*
X0399317Y0005126D01*
X0033175Y0005126D01*
X0033051Y0005128D01*
X0032928Y0005134D01*
X0032804Y0005143D01*
X0032682Y0005157D01*
X0032559Y0005174D01*
X0032437Y0005196D01*
X0032316Y0005221D01*
X0032196Y0005250D01*
X0032077Y0005282D01*
X0031958Y0005319D01*
X0031841Y0005359D01*
X0031726Y0005402D01*
X0031611Y0005450D01*
X0031499Y0005501D01*
X0031388Y0005555D01*
X0031278Y0005613D01*
X0031171Y0005674D01*
X0031065Y0005739D01*
X0030962Y0005807D01*
X0030861Y0005878D01*
X0030762Y0005952D01*
X0030665Y0006029D01*
X0030571Y0006110D01*
X0030480Y0006193D01*
X0030391Y0006279D01*
X0030305Y0006368D01*
X0030222Y0006459D01*
X0030141Y0006553D01*
X0030064Y0006650D01*
X0029990Y0006749D01*
X0029919Y0006850D01*
X0029851Y0006953D01*
X0029786Y0007059D01*
X0029725Y0007166D01*
X0029667Y0007276D01*
X0029613Y0007387D01*
X0029562Y0007499D01*
X0029514Y0007614D01*
X0029471Y0007729D01*
X0029431Y0007846D01*
X0029394Y0007965D01*
X0029362Y0008084D01*
X0029333Y0008204D01*
X0029308Y0008325D01*
X0029286Y0008447D01*
X0029269Y0008570D01*
X0029255Y0008692D01*
X0029246Y0008816D01*
X0029240Y0008939D01*
X0029238Y0009063D01*
X0033569Y0014969D02*
X0033571Y0015117D01*
X0033577Y0015265D01*
X0033587Y0015413D01*
X0033601Y0015560D01*
X0033619Y0015707D01*
X0033640Y0015853D01*
X0033666Y0015999D01*
X0033696Y0016144D01*
X0033729Y0016288D01*
X0033767Y0016431D01*
X0033808Y0016573D01*
X0033853Y0016714D01*
X0033901Y0016854D01*
X0033954Y0016993D01*
X0034010Y0017130D01*
X0034070Y0017265D01*
X0034133Y0017399D01*
X0034200Y0017531D01*
X0034271Y0017661D01*
X0034345Y0017789D01*
X0034422Y0017915D01*
X0034503Y0018039D01*
X0034587Y0018161D01*
X0034674Y0018280D01*
X0034765Y0018397D01*
X0034859Y0018512D01*
X0034955Y0018624D01*
X0035055Y0018734D01*
X0035157Y0018840D01*
X0035263Y0018944D01*
X0035371Y0019045D01*
X0035482Y0019143D01*
X0035595Y0019239D01*
X0035711Y0019331D01*
X0035829Y0019420D01*
X0035950Y0019505D01*
X0036073Y0019588D01*
X0036198Y0019667D01*
X0036325Y0019743D01*
X0036454Y0019815D01*
X0036585Y0019884D01*
X0036718Y0019949D01*
X0036853Y0020010D01*
X0036989Y0020068D01*
X0037126Y0020123D01*
X0037265Y0020173D01*
X0037406Y0020220D01*
X0037547Y0020263D01*
X0037690Y0020303D01*
X0037834Y0020338D01*
X0037978Y0020370D01*
X0038124Y0020397D01*
X0038270Y0020421D01*
X0038417Y0020441D01*
X0038564Y0020457D01*
X0038711Y0020469D01*
X0038859Y0020477D01*
X0039007Y0020481D01*
X0039155Y0020481D01*
X0039303Y0020477D01*
X0039451Y0020469D01*
X0039598Y0020457D01*
X0039745Y0020441D01*
X0039892Y0020421D01*
X0040038Y0020397D01*
X0040184Y0020370D01*
X0040328Y0020338D01*
X0040472Y0020303D01*
X0040615Y0020263D01*
X0040756Y0020220D01*
X0040897Y0020173D01*
X0041036Y0020123D01*
X0041173Y0020068D01*
X0041309Y0020010D01*
X0041444Y0019949D01*
X0041577Y0019884D01*
X0041708Y0019815D01*
X0041837Y0019743D01*
X0041964Y0019667D01*
X0042089Y0019588D01*
X0042212Y0019505D01*
X0042333Y0019420D01*
X0042451Y0019331D01*
X0042567Y0019239D01*
X0042680Y0019143D01*
X0042791Y0019045D01*
X0042899Y0018944D01*
X0043005Y0018840D01*
X0043107Y0018734D01*
X0043207Y0018624D01*
X0043303Y0018512D01*
X0043397Y0018397D01*
X0043488Y0018280D01*
X0043575Y0018161D01*
X0043659Y0018039D01*
X0043740Y0017915D01*
X0043817Y0017789D01*
X0043891Y0017661D01*
X0043962Y0017531D01*
X0044029Y0017399D01*
X0044092Y0017265D01*
X0044152Y0017130D01*
X0044208Y0016993D01*
X0044261Y0016854D01*
X0044309Y0016714D01*
X0044354Y0016573D01*
X0044395Y0016431D01*
X0044433Y0016288D01*
X0044466Y0016144D01*
X0044496Y0015999D01*
X0044522Y0015853D01*
X0044543Y0015707D01*
X0044561Y0015560D01*
X0044575Y0015413D01*
X0044585Y0015265D01*
X0044591Y0015117D01*
X0044593Y0014969D01*
X0044591Y0014821D01*
X0044585Y0014673D01*
X0044575Y0014525D01*
X0044561Y0014378D01*
X0044543Y0014231D01*
X0044522Y0014085D01*
X0044496Y0013939D01*
X0044466Y0013794D01*
X0044433Y0013650D01*
X0044395Y0013507D01*
X0044354Y0013365D01*
X0044309Y0013224D01*
X0044261Y0013084D01*
X0044208Y0012945D01*
X0044152Y0012808D01*
X0044092Y0012673D01*
X0044029Y0012539D01*
X0043962Y0012407D01*
X0043891Y0012277D01*
X0043817Y0012149D01*
X0043740Y0012023D01*
X0043659Y0011899D01*
X0043575Y0011777D01*
X0043488Y0011658D01*
X0043397Y0011541D01*
X0043303Y0011426D01*
X0043207Y0011314D01*
X0043107Y0011204D01*
X0043005Y0011098D01*
X0042899Y0010994D01*
X0042791Y0010893D01*
X0042680Y0010795D01*
X0042567Y0010699D01*
X0042451Y0010607D01*
X0042333Y0010518D01*
X0042212Y0010433D01*
X0042089Y0010350D01*
X0041964Y0010271D01*
X0041837Y0010195D01*
X0041708Y0010123D01*
X0041577Y0010054D01*
X0041444Y0009989D01*
X0041309Y0009928D01*
X0041173Y0009870D01*
X0041036Y0009815D01*
X0040897Y0009765D01*
X0040756Y0009718D01*
X0040615Y0009675D01*
X0040472Y0009635D01*
X0040328Y0009600D01*
X0040184Y0009568D01*
X0040038Y0009541D01*
X0039892Y0009517D01*
X0039745Y0009497D01*
X0039598Y0009481D01*
X0039451Y0009469D01*
X0039303Y0009461D01*
X0039155Y0009457D01*
X0039007Y0009457D01*
X0038859Y0009461D01*
X0038711Y0009469D01*
X0038564Y0009481D01*
X0038417Y0009497D01*
X0038270Y0009517D01*
X0038124Y0009541D01*
X0037978Y0009568D01*
X0037834Y0009600D01*
X0037690Y0009635D01*
X0037547Y0009675D01*
X0037406Y0009718D01*
X0037265Y0009765D01*
X0037126Y0009815D01*
X0036989Y0009870D01*
X0036853Y0009928D01*
X0036718Y0009989D01*
X0036585Y0010054D01*
X0036454Y0010123D01*
X0036325Y0010195D01*
X0036198Y0010271D01*
X0036073Y0010350D01*
X0035950Y0010433D01*
X0035829Y0010518D01*
X0035711Y0010607D01*
X0035595Y0010699D01*
X0035482Y0010795D01*
X0035371Y0010893D01*
X0035263Y0010994D01*
X0035157Y0011098D01*
X0035055Y0011204D01*
X0034955Y0011314D01*
X0034859Y0011426D01*
X0034765Y0011541D01*
X0034674Y0011658D01*
X0034587Y0011777D01*
X0034503Y0011899D01*
X0034422Y0012023D01*
X0034345Y0012149D01*
X0034271Y0012277D01*
X0034200Y0012407D01*
X0034133Y0012539D01*
X0034070Y0012673D01*
X0034010Y0012808D01*
X0033954Y0012945D01*
X0033901Y0013084D01*
X0033853Y0013224D01*
X0033808Y0013365D01*
X0033767Y0013507D01*
X0033729Y0013650D01*
X0033696Y0013794D01*
X0033666Y0013939D01*
X0033640Y0014085D01*
X0033619Y0014231D01*
X0033601Y0014378D01*
X0033587Y0014525D01*
X0033577Y0014673D01*
X0033571Y0014821D01*
X0033569Y0014969D01*
X0048923Y0026780D02*
X0048925Y0026868D01*
X0048931Y0026956D01*
X0048941Y0027044D01*
X0048955Y0027132D01*
X0048972Y0027218D01*
X0048994Y0027304D01*
X0049019Y0027388D01*
X0049049Y0027472D01*
X0049081Y0027554D01*
X0049118Y0027634D01*
X0049158Y0027713D01*
X0049202Y0027790D01*
X0049249Y0027865D01*
X0049299Y0027937D01*
X0049353Y0028008D01*
X0049409Y0028075D01*
X0049469Y0028141D01*
X0049531Y0028203D01*
X0049597Y0028263D01*
X0049664Y0028319D01*
X0049735Y0028373D01*
X0049807Y0028423D01*
X0049882Y0028470D01*
X0049959Y0028514D01*
X0050038Y0028554D01*
X0050118Y0028591D01*
X0050200Y0028623D01*
X0050284Y0028653D01*
X0050368Y0028678D01*
X0050454Y0028700D01*
X0050540Y0028717D01*
X0050628Y0028731D01*
X0050716Y0028741D01*
X0050804Y0028747D01*
X0050892Y0028749D01*
X0050980Y0028747D01*
X0051068Y0028741D01*
X0051156Y0028731D01*
X0051244Y0028717D01*
X0051330Y0028700D01*
X0051416Y0028678D01*
X0051500Y0028653D01*
X0051584Y0028623D01*
X0051666Y0028591D01*
X0051746Y0028554D01*
X0051825Y0028514D01*
X0051902Y0028470D01*
X0051977Y0028423D01*
X0052049Y0028373D01*
X0052120Y0028319D01*
X0052187Y0028263D01*
X0052253Y0028203D01*
X0052315Y0028141D01*
X0052375Y0028075D01*
X0052431Y0028008D01*
X0052485Y0027937D01*
X0052535Y0027865D01*
X0052582Y0027790D01*
X0052626Y0027713D01*
X0052666Y0027634D01*
X0052703Y0027554D01*
X0052735Y0027472D01*
X0052765Y0027388D01*
X0052790Y0027304D01*
X0052812Y0027218D01*
X0052829Y0027132D01*
X0052843Y0027044D01*
X0052853Y0026956D01*
X0052859Y0026868D01*
X0052861Y0026780D01*
X0052859Y0026692D01*
X0052853Y0026604D01*
X0052843Y0026516D01*
X0052829Y0026428D01*
X0052812Y0026342D01*
X0052790Y0026256D01*
X0052765Y0026172D01*
X0052735Y0026088D01*
X0052703Y0026006D01*
X0052666Y0025926D01*
X0052626Y0025847D01*
X0052582Y0025770D01*
X0052535Y0025695D01*
X0052485Y0025623D01*
X0052431Y0025552D01*
X0052375Y0025485D01*
X0052315Y0025419D01*
X0052253Y0025357D01*
X0052187Y0025297D01*
X0052120Y0025241D01*
X0052049Y0025187D01*
X0051977Y0025137D01*
X0051902Y0025090D01*
X0051825Y0025046D01*
X0051746Y0025006D01*
X0051666Y0024969D01*
X0051584Y0024937D01*
X0051500Y0024907D01*
X0051416Y0024882D01*
X0051330Y0024860D01*
X0051244Y0024843D01*
X0051156Y0024829D01*
X0051068Y0024819D01*
X0050980Y0024813D01*
X0050892Y0024811D01*
X0050804Y0024813D01*
X0050716Y0024819D01*
X0050628Y0024829D01*
X0050540Y0024843D01*
X0050454Y0024860D01*
X0050368Y0024882D01*
X0050284Y0024907D01*
X0050200Y0024937D01*
X0050118Y0024969D01*
X0050038Y0025006D01*
X0049959Y0025046D01*
X0049882Y0025090D01*
X0049807Y0025137D01*
X0049735Y0025187D01*
X0049664Y0025241D01*
X0049597Y0025297D01*
X0049531Y0025357D01*
X0049469Y0025419D01*
X0049409Y0025485D01*
X0049353Y0025552D01*
X0049299Y0025623D01*
X0049249Y0025695D01*
X0049202Y0025770D01*
X0049158Y0025847D01*
X0049118Y0025926D01*
X0049081Y0026006D01*
X0049049Y0026088D01*
X0049019Y0026172D01*
X0048994Y0026256D01*
X0048972Y0026342D01*
X0048955Y0026428D01*
X0048941Y0026516D01*
X0048931Y0026604D01*
X0048925Y0026692D01*
X0048923Y0026780D01*
X0052289Y0040992D02*
X0052291Y0041063D01*
X0052297Y0041134D01*
X0052307Y0041205D01*
X0052321Y0041274D01*
X0052338Y0041343D01*
X0052360Y0041411D01*
X0052385Y0041478D01*
X0052414Y0041543D01*
X0052446Y0041606D01*
X0052482Y0041668D01*
X0052521Y0041727D01*
X0052564Y0041784D01*
X0052609Y0041839D01*
X0052658Y0041891D01*
X0052709Y0041940D01*
X0052763Y0041986D01*
X0052820Y0042030D01*
X0052878Y0042070D01*
X0052939Y0042106D01*
X0053002Y0042140D01*
X0053067Y0042169D01*
X0053133Y0042195D01*
X0053201Y0042218D01*
X0053269Y0042236D01*
X0053339Y0042251D01*
X0053409Y0042262D01*
X0053480Y0042269D01*
X0053551Y0042272D01*
X0053622Y0042271D01*
X0053693Y0042266D01*
X0053764Y0042257D01*
X0053834Y0042244D01*
X0053903Y0042228D01*
X0053971Y0042207D01*
X0054038Y0042183D01*
X0054104Y0042155D01*
X0054167Y0042123D01*
X0054229Y0042088D01*
X0054289Y0042050D01*
X0054347Y0042008D01*
X0054402Y0041964D01*
X0054455Y0041916D01*
X0054505Y0041865D01*
X0054552Y0041812D01*
X0054596Y0041756D01*
X0054637Y0041698D01*
X0054675Y0041637D01*
X0054709Y0041575D01*
X0054739Y0041510D01*
X0054766Y0041445D01*
X0054790Y0041377D01*
X0054809Y0041309D01*
X0054825Y0041240D01*
X0054837Y0041169D01*
X0054845Y0041099D01*
X0054849Y0041028D01*
X0054849Y0040956D01*
X0054845Y0040885D01*
X0054837Y0040815D01*
X0054825Y0040744D01*
X0054809Y0040675D01*
X0054790Y0040607D01*
X0054766Y0040539D01*
X0054739Y0040474D01*
X0054709Y0040409D01*
X0054675Y0040347D01*
X0054637Y0040286D01*
X0054596Y0040228D01*
X0054552Y0040172D01*
X0054505Y0040119D01*
X0054455Y0040068D01*
X0054402Y0040020D01*
X0054347Y0039976D01*
X0054289Y0039934D01*
X0054229Y0039896D01*
X0054167Y0039861D01*
X0054104Y0039829D01*
X0054038Y0039801D01*
X0053971Y0039777D01*
X0053903Y0039756D01*
X0053834Y0039740D01*
X0053764Y0039727D01*
X0053693Y0039718D01*
X0053622Y0039713D01*
X0053551Y0039712D01*
X0053480Y0039715D01*
X0053409Y0039722D01*
X0053339Y0039733D01*
X0053269Y0039748D01*
X0053201Y0039766D01*
X0053133Y0039789D01*
X0053067Y0039815D01*
X0053002Y0039844D01*
X0052939Y0039878D01*
X0052878Y0039914D01*
X0052820Y0039954D01*
X0052763Y0039998D01*
X0052709Y0040044D01*
X0052658Y0040093D01*
X0052609Y0040145D01*
X0052564Y0040200D01*
X0052521Y0040257D01*
X0052482Y0040316D01*
X0052446Y0040378D01*
X0052414Y0040441D01*
X0052385Y0040506D01*
X0052360Y0040573D01*
X0052338Y0040641D01*
X0052321Y0040710D01*
X0052307Y0040779D01*
X0052297Y0040850D01*
X0052291Y0040921D01*
X0052289Y0040992D01*
X0052289Y0063748D02*
X0052291Y0063819D01*
X0052297Y0063890D01*
X0052307Y0063961D01*
X0052321Y0064030D01*
X0052338Y0064099D01*
X0052360Y0064167D01*
X0052385Y0064234D01*
X0052414Y0064299D01*
X0052446Y0064362D01*
X0052482Y0064424D01*
X0052521Y0064483D01*
X0052564Y0064540D01*
X0052609Y0064595D01*
X0052658Y0064647D01*
X0052709Y0064696D01*
X0052763Y0064742D01*
X0052820Y0064786D01*
X0052878Y0064826D01*
X0052939Y0064862D01*
X0053002Y0064896D01*
X0053067Y0064925D01*
X0053133Y0064951D01*
X0053201Y0064974D01*
X0053269Y0064992D01*
X0053339Y0065007D01*
X0053409Y0065018D01*
X0053480Y0065025D01*
X0053551Y0065028D01*
X0053622Y0065027D01*
X0053693Y0065022D01*
X0053764Y0065013D01*
X0053834Y0065000D01*
X0053903Y0064984D01*
X0053971Y0064963D01*
X0054038Y0064939D01*
X0054104Y0064911D01*
X0054167Y0064879D01*
X0054229Y0064844D01*
X0054289Y0064806D01*
X0054347Y0064764D01*
X0054402Y0064720D01*
X0054455Y0064672D01*
X0054505Y0064621D01*
X0054552Y0064568D01*
X0054596Y0064512D01*
X0054637Y0064454D01*
X0054675Y0064393D01*
X0054709Y0064331D01*
X0054739Y0064266D01*
X0054766Y0064201D01*
X0054790Y0064133D01*
X0054809Y0064065D01*
X0054825Y0063996D01*
X0054837Y0063925D01*
X0054845Y0063855D01*
X0054849Y0063784D01*
X0054849Y0063712D01*
X0054845Y0063641D01*
X0054837Y0063571D01*
X0054825Y0063500D01*
X0054809Y0063431D01*
X0054790Y0063363D01*
X0054766Y0063295D01*
X0054739Y0063230D01*
X0054709Y0063165D01*
X0054675Y0063103D01*
X0054637Y0063042D01*
X0054596Y0062984D01*
X0054552Y0062928D01*
X0054505Y0062875D01*
X0054455Y0062824D01*
X0054402Y0062776D01*
X0054347Y0062732D01*
X0054289Y0062690D01*
X0054229Y0062652D01*
X0054167Y0062617D01*
X0054104Y0062585D01*
X0054038Y0062557D01*
X0053971Y0062533D01*
X0053903Y0062512D01*
X0053834Y0062496D01*
X0053764Y0062483D01*
X0053693Y0062474D01*
X0053622Y0062469D01*
X0053551Y0062468D01*
X0053480Y0062471D01*
X0053409Y0062478D01*
X0053339Y0062489D01*
X0053269Y0062504D01*
X0053201Y0062522D01*
X0053133Y0062545D01*
X0053067Y0062571D01*
X0053002Y0062600D01*
X0052939Y0062634D01*
X0052878Y0062670D01*
X0052820Y0062710D01*
X0052763Y0062754D01*
X0052709Y0062800D01*
X0052658Y0062849D01*
X0052609Y0062901D01*
X0052564Y0062956D01*
X0052521Y0063013D01*
X0052482Y0063072D01*
X0052446Y0063134D01*
X0052414Y0063197D01*
X0052385Y0063262D01*
X0052360Y0063329D01*
X0052338Y0063397D01*
X0052321Y0063466D01*
X0052307Y0063535D01*
X0052297Y0063606D01*
X0052291Y0063677D01*
X0052289Y0063748D01*
X0045183Y0225598D02*
X0045185Y0225682D01*
X0045191Y0225765D01*
X0045201Y0225848D01*
X0045215Y0225931D01*
X0045232Y0226013D01*
X0045254Y0226094D01*
X0045279Y0226173D01*
X0045308Y0226252D01*
X0045341Y0226329D01*
X0045377Y0226404D01*
X0045417Y0226478D01*
X0045460Y0226550D01*
X0045507Y0226619D01*
X0045557Y0226686D01*
X0045610Y0226751D01*
X0045666Y0226813D01*
X0045724Y0226873D01*
X0045786Y0226930D01*
X0045850Y0226983D01*
X0045917Y0227034D01*
X0045986Y0227081D01*
X0046057Y0227126D01*
X0046130Y0227166D01*
X0046205Y0227203D01*
X0046282Y0227237D01*
X0046360Y0227267D01*
X0046439Y0227293D01*
X0046520Y0227316D01*
X0046602Y0227334D01*
X0046684Y0227349D01*
X0046767Y0227360D01*
X0046850Y0227367D01*
X0046934Y0227370D01*
X0047018Y0227369D01*
X0047101Y0227364D01*
X0047185Y0227355D01*
X0047267Y0227342D01*
X0047349Y0227326D01*
X0047430Y0227305D01*
X0047511Y0227281D01*
X0047589Y0227253D01*
X0047667Y0227221D01*
X0047743Y0227185D01*
X0047817Y0227146D01*
X0047889Y0227104D01*
X0047959Y0227058D01*
X0048027Y0227009D01*
X0048092Y0226957D01*
X0048155Y0226902D01*
X0048215Y0226844D01*
X0048273Y0226783D01*
X0048327Y0226719D01*
X0048379Y0226653D01*
X0048427Y0226585D01*
X0048472Y0226514D01*
X0048513Y0226441D01*
X0048552Y0226367D01*
X0048586Y0226291D01*
X0048617Y0226213D01*
X0048644Y0226134D01*
X0048668Y0226053D01*
X0048687Y0225972D01*
X0048703Y0225890D01*
X0048715Y0225807D01*
X0048723Y0225723D01*
X0048727Y0225640D01*
X0048727Y0225556D01*
X0048723Y0225473D01*
X0048715Y0225389D01*
X0048703Y0225306D01*
X0048687Y0225224D01*
X0048668Y0225143D01*
X0048644Y0225062D01*
X0048617Y0224983D01*
X0048586Y0224905D01*
X0048552Y0224829D01*
X0048513Y0224755D01*
X0048472Y0224682D01*
X0048427Y0224611D01*
X0048379Y0224543D01*
X0048327Y0224477D01*
X0048273Y0224413D01*
X0048215Y0224352D01*
X0048155Y0224294D01*
X0048092Y0224239D01*
X0048027Y0224187D01*
X0047959Y0224138D01*
X0047889Y0224092D01*
X0047817Y0224050D01*
X0047743Y0224011D01*
X0047667Y0223975D01*
X0047589Y0223943D01*
X0047511Y0223915D01*
X0047430Y0223891D01*
X0047349Y0223870D01*
X0047267Y0223854D01*
X0047185Y0223841D01*
X0047101Y0223832D01*
X0047018Y0223827D01*
X0046934Y0223826D01*
X0046850Y0223829D01*
X0046767Y0223836D01*
X0046684Y0223847D01*
X0046602Y0223862D01*
X0046520Y0223880D01*
X0046439Y0223903D01*
X0046360Y0223929D01*
X0046282Y0223959D01*
X0046205Y0223993D01*
X0046130Y0224030D01*
X0046057Y0224070D01*
X0045986Y0224115D01*
X0045917Y0224162D01*
X0045850Y0224213D01*
X0045786Y0224266D01*
X0045724Y0224323D01*
X0045666Y0224383D01*
X0045610Y0224445D01*
X0045557Y0224510D01*
X0045507Y0224577D01*
X0045460Y0224646D01*
X0045417Y0224718D01*
X0045377Y0224792D01*
X0045341Y0224867D01*
X0045308Y0224944D01*
X0045279Y0225023D01*
X0045254Y0225102D01*
X0045232Y0225183D01*
X0045215Y0225265D01*
X0045201Y0225348D01*
X0045191Y0225431D01*
X0045185Y0225514D01*
X0045183Y0225598D01*
X0033372Y0225598D02*
X0033374Y0225682D01*
X0033380Y0225765D01*
X0033390Y0225848D01*
X0033404Y0225931D01*
X0033421Y0226013D01*
X0033443Y0226094D01*
X0033468Y0226173D01*
X0033497Y0226252D01*
X0033530Y0226329D01*
X0033566Y0226404D01*
X0033606Y0226478D01*
X0033649Y0226550D01*
X0033696Y0226619D01*
X0033746Y0226686D01*
X0033799Y0226751D01*
X0033855Y0226813D01*
X0033913Y0226873D01*
X0033975Y0226930D01*
X0034039Y0226983D01*
X0034106Y0227034D01*
X0034175Y0227081D01*
X0034246Y0227126D01*
X0034319Y0227166D01*
X0034394Y0227203D01*
X0034471Y0227237D01*
X0034549Y0227267D01*
X0034628Y0227293D01*
X0034709Y0227316D01*
X0034791Y0227334D01*
X0034873Y0227349D01*
X0034956Y0227360D01*
X0035039Y0227367D01*
X0035123Y0227370D01*
X0035207Y0227369D01*
X0035290Y0227364D01*
X0035374Y0227355D01*
X0035456Y0227342D01*
X0035538Y0227326D01*
X0035619Y0227305D01*
X0035700Y0227281D01*
X0035778Y0227253D01*
X0035856Y0227221D01*
X0035932Y0227185D01*
X0036006Y0227146D01*
X0036078Y0227104D01*
X0036148Y0227058D01*
X0036216Y0227009D01*
X0036281Y0226957D01*
X0036344Y0226902D01*
X0036404Y0226844D01*
X0036462Y0226783D01*
X0036516Y0226719D01*
X0036568Y0226653D01*
X0036616Y0226585D01*
X0036661Y0226514D01*
X0036702Y0226441D01*
X0036741Y0226367D01*
X0036775Y0226291D01*
X0036806Y0226213D01*
X0036833Y0226134D01*
X0036857Y0226053D01*
X0036876Y0225972D01*
X0036892Y0225890D01*
X0036904Y0225807D01*
X0036912Y0225723D01*
X0036916Y0225640D01*
X0036916Y0225556D01*
X0036912Y0225473D01*
X0036904Y0225389D01*
X0036892Y0225306D01*
X0036876Y0225224D01*
X0036857Y0225143D01*
X0036833Y0225062D01*
X0036806Y0224983D01*
X0036775Y0224905D01*
X0036741Y0224829D01*
X0036702Y0224755D01*
X0036661Y0224682D01*
X0036616Y0224611D01*
X0036568Y0224543D01*
X0036516Y0224477D01*
X0036462Y0224413D01*
X0036404Y0224352D01*
X0036344Y0224294D01*
X0036281Y0224239D01*
X0036216Y0224187D01*
X0036148Y0224138D01*
X0036078Y0224092D01*
X0036006Y0224050D01*
X0035932Y0224011D01*
X0035856Y0223975D01*
X0035778Y0223943D01*
X0035700Y0223915D01*
X0035619Y0223891D01*
X0035538Y0223870D01*
X0035456Y0223854D01*
X0035374Y0223841D01*
X0035290Y0223832D01*
X0035207Y0223827D01*
X0035123Y0223826D01*
X0035039Y0223829D01*
X0034956Y0223836D01*
X0034873Y0223847D01*
X0034791Y0223862D01*
X0034709Y0223880D01*
X0034628Y0223903D01*
X0034549Y0223929D01*
X0034471Y0223959D01*
X0034394Y0223993D01*
X0034319Y0224030D01*
X0034246Y0224070D01*
X0034175Y0224115D01*
X0034106Y0224162D01*
X0034039Y0224213D01*
X0033975Y0224266D01*
X0033913Y0224323D01*
X0033855Y0224383D01*
X0033799Y0224445D01*
X0033746Y0224510D01*
X0033696Y0224577D01*
X0033649Y0224646D01*
X0033606Y0224718D01*
X0033566Y0224792D01*
X0033530Y0224867D01*
X0033497Y0224944D01*
X0033468Y0225023D01*
X0033443Y0225102D01*
X0033421Y0225183D01*
X0033404Y0225265D01*
X0033390Y0225348D01*
X0033380Y0225431D01*
X0033374Y0225514D01*
X0033372Y0225598D01*
X0048923Y0245283D02*
X0048925Y0245371D01*
X0048931Y0245459D01*
X0048941Y0245547D01*
X0048955Y0245635D01*
X0048972Y0245721D01*
X0048994Y0245807D01*
X0049019Y0245891D01*
X0049049Y0245975D01*
X0049081Y0246057D01*
X0049118Y0246137D01*
X0049158Y0246216D01*
X0049202Y0246293D01*
X0049249Y0246368D01*
X0049299Y0246440D01*
X0049353Y0246511D01*
X0049409Y0246578D01*
X0049469Y0246644D01*
X0049531Y0246706D01*
X0049597Y0246766D01*
X0049664Y0246822D01*
X0049735Y0246876D01*
X0049807Y0246926D01*
X0049882Y0246973D01*
X0049959Y0247017D01*
X0050038Y0247057D01*
X0050118Y0247094D01*
X0050200Y0247126D01*
X0050284Y0247156D01*
X0050368Y0247181D01*
X0050454Y0247203D01*
X0050540Y0247220D01*
X0050628Y0247234D01*
X0050716Y0247244D01*
X0050804Y0247250D01*
X0050892Y0247252D01*
X0050980Y0247250D01*
X0051068Y0247244D01*
X0051156Y0247234D01*
X0051244Y0247220D01*
X0051330Y0247203D01*
X0051416Y0247181D01*
X0051500Y0247156D01*
X0051584Y0247126D01*
X0051666Y0247094D01*
X0051746Y0247057D01*
X0051825Y0247017D01*
X0051902Y0246973D01*
X0051977Y0246926D01*
X0052049Y0246876D01*
X0052120Y0246822D01*
X0052187Y0246766D01*
X0052253Y0246706D01*
X0052315Y0246644D01*
X0052375Y0246578D01*
X0052431Y0246511D01*
X0052485Y0246440D01*
X0052535Y0246368D01*
X0052582Y0246293D01*
X0052626Y0246216D01*
X0052666Y0246137D01*
X0052703Y0246057D01*
X0052735Y0245975D01*
X0052765Y0245891D01*
X0052790Y0245807D01*
X0052812Y0245721D01*
X0052829Y0245635D01*
X0052843Y0245547D01*
X0052853Y0245459D01*
X0052859Y0245371D01*
X0052861Y0245283D01*
X0052859Y0245195D01*
X0052853Y0245107D01*
X0052843Y0245019D01*
X0052829Y0244931D01*
X0052812Y0244845D01*
X0052790Y0244759D01*
X0052765Y0244675D01*
X0052735Y0244591D01*
X0052703Y0244509D01*
X0052666Y0244429D01*
X0052626Y0244350D01*
X0052582Y0244273D01*
X0052535Y0244198D01*
X0052485Y0244126D01*
X0052431Y0244055D01*
X0052375Y0243988D01*
X0052315Y0243922D01*
X0052253Y0243860D01*
X0052187Y0243800D01*
X0052120Y0243744D01*
X0052049Y0243690D01*
X0051977Y0243640D01*
X0051902Y0243593D01*
X0051825Y0243549D01*
X0051746Y0243509D01*
X0051666Y0243472D01*
X0051584Y0243440D01*
X0051500Y0243410D01*
X0051416Y0243385D01*
X0051330Y0243363D01*
X0051244Y0243346D01*
X0051156Y0243332D01*
X0051068Y0243322D01*
X0050980Y0243316D01*
X0050892Y0243314D01*
X0050804Y0243316D01*
X0050716Y0243322D01*
X0050628Y0243332D01*
X0050540Y0243346D01*
X0050454Y0243363D01*
X0050368Y0243385D01*
X0050284Y0243410D01*
X0050200Y0243440D01*
X0050118Y0243472D01*
X0050038Y0243509D01*
X0049959Y0243549D01*
X0049882Y0243593D01*
X0049807Y0243640D01*
X0049735Y0243690D01*
X0049664Y0243744D01*
X0049597Y0243800D01*
X0049531Y0243860D01*
X0049469Y0243922D01*
X0049409Y0243988D01*
X0049353Y0244055D01*
X0049299Y0244126D01*
X0049249Y0244198D01*
X0049202Y0244273D01*
X0049158Y0244350D01*
X0049118Y0244429D01*
X0049081Y0244509D01*
X0049049Y0244591D01*
X0049019Y0244675D01*
X0048994Y0244759D01*
X0048972Y0244845D01*
X0048955Y0244931D01*
X0048941Y0245019D01*
X0048931Y0245107D01*
X0048925Y0245195D01*
X0048923Y0245283D01*
X0033569Y0266937D02*
X0033571Y0267085D01*
X0033577Y0267233D01*
X0033587Y0267381D01*
X0033601Y0267528D01*
X0033619Y0267675D01*
X0033640Y0267821D01*
X0033666Y0267967D01*
X0033696Y0268112D01*
X0033729Y0268256D01*
X0033767Y0268399D01*
X0033808Y0268541D01*
X0033853Y0268682D01*
X0033901Y0268822D01*
X0033954Y0268961D01*
X0034010Y0269098D01*
X0034070Y0269233D01*
X0034133Y0269367D01*
X0034200Y0269499D01*
X0034271Y0269629D01*
X0034345Y0269757D01*
X0034422Y0269883D01*
X0034503Y0270007D01*
X0034587Y0270129D01*
X0034674Y0270248D01*
X0034765Y0270365D01*
X0034859Y0270480D01*
X0034955Y0270592D01*
X0035055Y0270702D01*
X0035157Y0270808D01*
X0035263Y0270912D01*
X0035371Y0271013D01*
X0035482Y0271111D01*
X0035595Y0271207D01*
X0035711Y0271299D01*
X0035829Y0271388D01*
X0035950Y0271473D01*
X0036073Y0271556D01*
X0036198Y0271635D01*
X0036325Y0271711D01*
X0036454Y0271783D01*
X0036585Y0271852D01*
X0036718Y0271917D01*
X0036853Y0271978D01*
X0036989Y0272036D01*
X0037126Y0272091D01*
X0037265Y0272141D01*
X0037406Y0272188D01*
X0037547Y0272231D01*
X0037690Y0272271D01*
X0037834Y0272306D01*
X0037978Y0272338D01*
X0038124Y0272365D01*
X0038270Y0272389D01*
X0038417Y0272409D01*
X0038564Y0272425D01*
X0038711Y0272437D01*
X0038859Y0272445D01*
X0039007Y0272449D01*
X0039155Y0272449D01*
X0039303Y0272445D01*
X0039451Y0272437D01*
X0039598Y0272425D01*
X0039745Y0272409D01*
X0039892Y0272389D01*
X0040038Y0272365D01*
X0040184Y0272338D01*
X0040328Y0272306D01*
X0040472Y0272271D01*
X0040615Y0272231D01*
X0040756Y0272188D01*
X0040897Y0272141D01*
X0041036Y0272091D01*
X0041173Y0272036D01*
X0041309Y0271978D01*
X0041444Y0271917D01*
X0041577Y0271852D01*
X0041708Y0271783D01*
X0041837Y0271711D01*
X0041964Y0271635D01*
X0042089Y0271556D01*
X0042212Y0271473D01*
X0042333Y0271388D01*
X0042451Y0271299D01*
X0042567Y0271207D01*
X0042680Y0271111D01*
X0042791Y0271013D01*
X0042899Y0270912D01*
X0043005Y0270808D01*
X0043107Y0270702D01*
X0043207Y0270592D01*
X0043303Y0270480D01*
X0043397Y0270365D01*
X0043488Y0270248D01*
X0043575Y0270129D01*
X0043659Y0270007D01*
X0043740Y0269883D01*
X0043817Y0269757D01*
X0043891Y0269629D01*
X0043962Y0269499D01*
X0044029Y0269367D01*
X0044092Y0269233D01*
X0044152Y0269098D01*
X0044208Y0268961D01*
X0044261Y0268822D01*
X0044309Y0268682D01*
X0044354Y0268541D01*
X0044395Y0268399D01*
X0044433Y0268256D01*
X0044466Y0268112D01*
X0044496Y0267967D01*
X0044522Y0267821D01*
X0044543Y0267675D01*
X0044561Y0267528D01*
X0044575Y0267381D01*
X0044585Y0267233D01*
X0044591Y0267085D01*
X0044593Y0266937D01*
X0044591Y0266789D01*
X0044585Y0266641D01*
X0044575Y0266493D01*
X0044561Y0266346D01*
X0044543Y0266199D01*
X0044522Y0266053D01*
X0044496Y0265907D01*
X0044466Y0265762D01*
X0044433Y0265618D01*
X0044395Y0265475D01*
X0044354Y0265333D01*
X0044309Y0265192D01*
X0044261Y0265052D01*
X0044208Y0264913D01*
X0044152Y0264776D01*
X0044092Y0264641D01*
X0044029Y0264507D01*
X0043962Y0264375D01*
X0043891Y0264245D01*
X0043817Y0264117D01*
X0043740Y0263991D01*
X0043659Y0263867D01*
X0043575Y0263745D01*
X0043488Y0263626D01*
X0043397Y0263509D01*
X0043303Y0263394D01*
X0043207Y0263282D01*
X0043107Y0263172D01*
X0043005Y0263066D01*
X0042899Y0262962D01*
X0042791Y0262861D01*
X0042680Y0262763D01*
X0042567Y0262667D01*
X0042451Y0262575D01*
X0042333Y0262486D01*
X0042212Y0262401D01*
X0042089Y0262318D01*
X0041964Y0262239D01*
X0041837Y0262163D01*
X0041708Y0262091D01*
X0041577Y0262022D01*
X0041444Y0261957D01*
X0041309Y0261896D01*
X0041173Y0261838D01*
X0041036Y0261783D01*
X0040897Y0261733D01*
X0040756Y0261686D01*
X0040615Y0261643D01*
X0040472Y0261603D01*
X0040328Y0261568D01*
X0040184Y0261536D01*
X0040038Y0261509D01*
X0039892Y0261485D01*
X0039745Y0261465D01*
X0039598Y0261449D01*
X0039451Y0261437D01*
X0039303Y0261429D01*
X0039155Y0261425D01*
X0039007Y0261425D01*
X0038859Y0261429D01*
X0038711Y0261437D01*
X0038564Y0261449D01*
X0038417Y0261465D01*
X0038270Y0261485D01*
X0038124Y0261509D01*
X0037978Y0261536D01*
X0037834Y0261568D01*
X0037690Y0261603D01*
X0037547Y0261643D01*
X0037406Y0261686D01*
X0037265Y0261733D01*
X0037126Y0261783D01*
X0036989Y0261838D01*
X0036853Y0261896D01*
X0036718Y0261957D01*
X0036585Y0262022D01*
X0036454Y0262091D01*
X0036325Y0262163D01*
X0036198Y0262239D01*
X0036073Y0262318D01*
X0035950Y0262401D01*
X0035829Y0262486D01*
X0035711Y0262575D01*
X0035595Y0262667D01*
X0035482Y0262763D01*
X0035371Y0262861D01*
X0035263Y0262962D01*
X0035157Y0263066D01*
X0035055Y0263172D01*
X0034955Y0263282D01*
X0034859Y0263394D01*
X0034765Y0263509D01*
X0034674Y0263626D01*
X0034587Y0263745D01*
X0034503Y0263867D01*
X0034422Y0263991D01*
X0034345Y0264117D01*
X0034271Y0264245D01*
X0034200Y0264375D01*
X0034133Y0264507D01*
X0034070Y0264641D01*
X0034010Y0264776D01*
X0033954Y0264913D01*
X0033901Y0265052D01*
X0033853Y0265192D01*
X0033808Y0265333D01*
X0033767Y0265475D01*
X0033729Y0265618D01*
X0033696Y0265762D01*
X0033666Y0265907D01*
X0033640Y0266053D01*
X0033619Y0266199D01*
X0033601Y0266346D01*
X0033587Y0266493D01*
X0033577Y0266641D01*
X0033571Y0266789D01*
X0033569Y0266937D01*
X0379631Y0245283D02*
X0379633Y0245371D01*
X0379639Y0245459D01*
X0379649Y0245547D01*
X0379663Y0245635D01*
X0379680Y0245721D01*
X0379702Y0245807D01*
X0379727Y0245891D01*
X0379757Y0245975D01*
X0379789Y0246057D01*
X0379826Y0246137D01*
X0379866Y0246216D01*
X0379910Y0246293D01*
X0379957Y0246368D01*
X0380007Y0246440D01*
X0380061Y0246511D01*
X0380117Y0246578D01*
X0380177Y0246644D01*
X0380239Y0246706D01*
X0380305Y0246766D01*
X0380372Y0246822D01*
X0380443Y0246876D01*
X0380515Y0246926D01*
X0380590Y0246973D01*
X0380667Y0247017D01*
X0380746Y0247057D01*
X0380826Y0247094D01*
X0380908Y0247126D01*
X0380992Y0247156D01*
X0381076Y0247181D01*
X0381162Y0247203D01*
X0381248Y0247220D01*
X0381336Y0247234D01*
X0381424Y0247244D01*
X0381512Y0247250D01*
X0381600Y0247252D01*
X0381688Y0247250D01*
X0381776Y0247244D01*
X0381864Y0247234D01*
X0381952Y0247220D01*
X0382038Y0247203D01*
X0382124Y0247181D01*
X0382208Y0247156D01*
X0382292Y0247126D01*
X0382374Y0247094D01*
X0382454Y0247057D01*
X0382533Y0247017D01*
X0382610Y0246973D01*
X0382685Y0246926D01*
X0382757Y0246876D01*
X0382828Y0246822D01*
X0382895Y0246766D01*
X0382961Y0246706D01*
X0383023Y0246644D01*
X0383083Y0246578D01*
X0383139Y0246511D01*
X0383193Y0246440D01*
X0383243Y0246368D01*
X0383290Y0246293D01*
X0383334Y0246216D01*
X0383374Y0246137D01*
X0383411Y0246057D01*
X0383443Y0245975D01*
X0383473Y0245891D01*
X0383498Y0245807D01*
X0383520Y0245721D01*
X0383537Y0245635D01*
X0383551Y0245547D01*
X0383561Y0245459D01*
X0383567Y0245371D01*
X0383569Y0245283D01*
X0383567Y0245195D01*
X0383561Y0245107D01*
X0383551Y0245019D01*
X0383537Y0244931D01*
X0383520Y0244845D01*
X0383498Y0244759D01*
X0383473Y0244675D01*
X0383443Y0244591D01*
X0383411Y0244509D01*
X0383374Y0244429D01*
X0383334Y0244350D01*
X0383290Y0244273D01*
X0383243Y0244198D01*
X0383193Y0244126D01*
X0383139Y0244055D01*
X0383083Y0243988D01*
X0383023Y0243922D01*
X0382961Y0243860D01*
X0382895Y0243800D01*
X0382828Y0243744D01*
X0382757Y0243690D01*
X0382685Y0243640D01*
X0382610Y0243593D01*
X0382533Y0243549D01*
X0382454Y0243509D01*
X0382374Y0243472D01*
X0382292Y0243440D01*
X0382208Y0243410D01*
X0382124Y0243385D01*
X0382038Y0243363D01*
X0381952Y0243346D01*
X0381864Y0243332D01*
X0381776Y0243322D01*
X0381688Y0243316D01*
X0381600Y0243314D01*
X0381512Y0243316D01*
X0381424Y0243322D01*
X0381336Y0243332D01*
X0381248Y0243346D01*
X0381162Y0243363D01*
X0381076Y0243385D01*
X0380992Y0243410D01*
X0380908Y0243440D01*
X0380826Y0243472D01*
X0380746Y0243509D01*
X0380667Y0243549D01*
X0380590Y0243593D01*
X0380515Y0243640D01*
X0380443Y0243690D01*
X0380372Y0243744D01*
X0380305Y0243800D01*
X0380239Y0243860D01*
X0380177Y0243922D01*
X0380117Y0243988D01*
X0380061Y0244055D01*
X0380007Y0244126D01*
X0379957Y0244198D01*
X0379910Y0244273D01*
X0379866Y0244350D01*
X0379826Y0244429D01*
X0379789Y0244509D01*
X0379757Y0244591D01*
X0379727Y0244675D01*
X0379702Y0244759D01*
X0379680Y0244845D01*
X0379663Y0244931D01*
X0379649Y0245019D01*
X0379639Y0245107D01*
X0379633Y0245195D01*
X0379631Y0245283D01*
X0387900Y0266937D02*
X0387902Y0267085D01*
X0387908Y0267233D01*
X0387918Y0267381D01*
X0387932Y0267528D01*
X0387950Y0267675D01*
X0387971Y0267821D01*
X0387997Y0267967D01*
X0388027Y0268112D01*
X0388060Y0268256D01*
X0388098Y0268399D01*
X0388139Y0268541D01*
X0388184Y0268682D01*
X0388232Y0268822D01*
X0388285Y0268961D01*
X0388341Y0269098D01*
X0388401Y0269233D01*
X0388464Y0269367D01*
X0388531Y0269499D01*
X0388602Y0269629D01*
X0388676Y0269757D01*
X0388753Y0269883D01*
X0388834Y0270007D01*
X0388918Y0270129D01*
X0389005Y0270248D01*
X0389096Y0270365D01*
X0389190Y0270480D01*
X0389286Y0270592D01*
X0389386Y0270702D01*
X0389488Y0270808D01*
X0389594Y0270912D01*
X0389702Y0271013D01*
X0389813Y0271111D01*
X0389926Y0271207D01*
X0390042Y0271299D01*
X0390160Y0271388D01*
X0390281Y0271473D01*
X0390404Y0271556D01*
X0390529Y0271635D01*
X0390656Y0271711D01*
X0390785Y0271783D01*
X0390916Y0271852D01*
X0391049Y0271917D01*
X0391184Y0271978D01*
X0391320Y0272036D01*
X0391457Y0272091D01*
X0391596Y0272141D01*
X0391737Y0272188D01*
X0391878Y0272231D01*
X0392021Y0272271D01*
X0392165Y0272306D01*
X0392309Y0272338D01*
X0392455Y0272365D01*
X0392601Y0272389D01*
X0392748Y0272409D01*
X0392895Y0272425D01*
X0393042Y0272437D01*
X0393190Y0272445D01*
X0393338Y0272449D01*
X0393486Y0272449D01*
X0393634Y0272445D01*
X0393782Y0272437D01*
X0393929Y0272425D01*
X0394076Y0272409D01*
X0394223Y0272389D01*
X0394369Y0272365D01*
X0394515Y0272338D01*
X0394659Y0272306D01*
X0394803Y0272271D01*
X0394946Y0272231D01*
X0395087Y0272188D01*
X0395228Y0272141D01*
X0395367Y0272091D01*
X0395504Y0272036D01*
X0395640Y0271978D01*
X0395775Y0271917D01*
X0395908Y0271852D01*
X0396039Y0271783D01*
X0396168Y0271711D01*
X0396295Y0271635D01*
X0396420Y0271556D01*
X0396543Y0271473D01*
X0396664Y0271388D01*
X0396782Y0271299D01*
X0396898Y0271207D01*
X0397011Y0271111D01*
X0397122Y0271013D01*
X0397230Y0270912D01*
X0397336Y0270808D01*
X0397438Y0270702D01*
X0397538Y0270592D01*
X0397634Y0270480D01*
X0397728Y0270365D01*
X0397819Y0270248D01*
X0397906Y0270129D01*
X0397990Y0270007D01*
X0398071Y0269883D01*
X0398148Y0269757D01*
X0398222Y0269629D01*
X0398293Y0269499D01*
X0398360Y0269367D01*
X0398423Y0269233D01*
X0398483Y0269098D01*
X0398539Y0268961D01*
X0398592Y0268822D01*
X0398640Y0268682D01*
X0398685Y0268541D01*
X0398726Y0268399D01*
X0398764Y0268256D01*
X0398797Y0268112D01*
X0398827Y0267967D01*
X0398853Y0267821D01*
X0398874Y0267675D01*
X0398892Y0267528D01*
X0398906Y0267381D01*
X0398916Y0267233D01*
X0398922Y0267085D01*
X0398924Y0266937D01*
X0398922Y0266789D01*
X0398916Y0266641D01*
X0398906Y0266493D01*
X0398892Y0266346D01*
X0398874Y0266199D01*
X0398853Y0266053D01*
X0398827Y0265907D01*
X0398797Y0265762D01*
X0398764Y0265618D01*
X0398726Y0265475D01*
X0398685Y0265333D01*
X0398640Y0265192D01*
X0398592Y0265052D01*
X0398539Y0264913D01*
X0398483Y0264776D01*
X0398423Y0264641D01*
X0398360Y0264507D01*
X0398293Y0264375D01*
X0398222Y0264245D01*
X0398148Y0264117D01*
X0398071Y0263991D01*
X0397990Y0263867D01*
X0397906Y0263745D01*
X0397819Y0263626D01*
X0397728Y0263509D01*
X0397634Y0263394D01*
X0397538Y0263282D01*
X0397438Y0263172D01*
X0397336Y0263066D01*
X0397230Y0262962D01*
X0397122Y0262861D01*
X0397011Y0262763D01*
X0396898Y0262667D01*
X0396782Y0262575D01*
X0396664Y0262486D01*
X0396543Y0262401D01*
X0396420Y0262318D01*
X0396295Y0262239D01*
X0396168Y0262163D01*
X0396039Y0262091D01*
X0395908Y0262022D01*
X0395775Y0261957D01*
X0395640Y0261896D01*
X0395504Y0261838D01*
X0395367Y0261783D01*
X0395228Y0261733D01*
X0395087Y0261686D01*
X0394946Y0261643D01*
X0394803Y0261603D01*
X0394659Y0261568D01*
X0394515Y0261536D01*
X0394369Y0261509D01*
X0394223Y0261485D01*
X0394076Y0261465D01*
X0393929Y0261449D01*
X0393782Y0261437D01*
X0393634Y0261429D01*
X0393486Y0261425D01*
X0393338Y0261425D01*
X0393190Y0261429D01*
X0393042Y0261437D01*
X0392895Y0261449D01*
X0392748Y0261465D01*
X0392601Y0261485D01*
X0392455Y0261509D01*
X0392309Y0261536D01*
X0392165Y0261568D01*
X0392021Y0261603D01*
X0391878Y0261643D01*
X0391737Y0261686D01*
X0391596Y0261733D01*
X0391457Y0261783D01*
X0391320Y0261838D01*
X0391184Y0261896D01*
X0391049Y0261957D01*
X0390916Y0262022D01*
X0390785Y0262091D01*
X0390656Y0262163D01*
X0390529Y0262239D01*
X0390404Y0262318D01*
X0390281Y0262401D01*
X0390160Y0262486D01*
X0390042Y0262575D01*
X0389926Y0262667D01*
X0389813Y0262763D01*
X0389702Y0262861D01*
X0389594Y0262962D01*
X0389488Y0263066D01*
X0389386Y0263172D01*
X0389286Y0263282D01*
X0389190Y0263394D01*
X0389096Y0263509D01*
X0389005Y0263626D01*
X0388918Y0263745D01*
X0388834Y0263867D01*
X0388753Y0263991D01*
X0388676Y0264117D01*
X0388602Y0264245D01*
X0388531Y0264375D01*
X0388464Y0264507D01*
X0388401Y0264641D01*
X0388341Y0264776D01*
X0388285Y0264913D01*
X0388232Y0265052D01*
X0388184Y0265192D01*
X0388139Y0265333D01*
X0388098Y0265475D01*
X0388060Y0265618D01*
X0388027Y0265762D01*
X0387997Y0265907D01*
X0387971Y0266053D01*
X0387950Y0266199D01*
X0387932Y0266346D01*
X0387918Y0266493D01*
X0387908Y0266641D01*
X0387902Y0266789D01*
X0387900Y0266937D01*
X0379631Y0026780D02*
X0379633Y0026868D01*
X0379639Y0026956D01*
X0379649Y0027044D01*
X0379663Y0027132D01*
X0379680Y0027218D01*
X0379702Y0027304D01*
X0379727Y0027388D01*
X0379757Y0027472D01*
X0379789Y0027554D01*
X0379826Y0027634D01*
X0379866Y0027713D01*
X0379910Y0027790D01*
X0379957Y0027865D01*
X0380007Y0027937D01*
X0380061Y0028008D01*
X0380117Y0028075D01*
X0380177Y0028141D01*
X0380239Y0028203D01*
X0380305Y0028263D01*
X0380372Y0028319D01*
X0380443Y0028373D01*
X0380515Y0028423D01*
X0380590Y0028470D01*
X0380667Y0028514D01*
X0380746Y0028554D01*
X0380826Y0028591D01*
X0380908Y0028623D01*
X0380992Y0028653D01*
X0381076Y0028678D01*
X0381162Y0028700D01*
X0381248Y0028717D01*
X0381336Y0028731D01*
X0381424Y0028741D01*
X0381512Y0028747D01*
X0381600Y0028749D01*
X0381688Y0028747D01*
X0381776Y0028741D01*
X0381864Y0028731D01*
X0381952Y0028717D01*
X0382038Y0028700D01*
X0382124Y0028678D01*
X0382208Y0028653D01*
X0382292Y0028623D01*
X0382374Y0028591D01*
X0382454Y0028554D01*
X0382533Y0028514D01*
X0382610Y0028470D01*
X0382685Y0028423D01*
X0382757Y0028373D01*
X0382828Y0028319D01*
X0382895Y0028263D01*
X0382961Y0028203D01*
X0383023Y0028141D01*
X0383083Y0028075D01*
X0383139Y0028008D01*
X0383193Y0027937D01*
X0383243Y0027865D01*
X0383290Y0027790D01*
X0383334Y0027713D01*
X0383374Y0027634D01*
X0383411Y0027554D01*
X0383443Y0027472D01*
X0383473Y0027388D01*
X0383498Y0027304D01*
X0383520Y0027218D01*
X0383537Y0027132D01*
X0383551Y0027044D01*
X0383561Y0026956D01*
X0383567Y0026868D01*
X0383569Y0026780D01*
X0383567Y0026692D01*
X0383561Y0026604D01*
X0383551Y0026516D01*
X0383537Y0026428D01*
X0383520Y0026342D01*
X0383498Y0026256D01*
X0383473Y0026172D01*
X0383443Y0026088D01*
X0383411Y0026006D01*
X0383374Y0025926D01*
X0383334Y0025847D01*
X0383290Y0025770D01*
X0383243Y0025695D01*
X0383193Y0025623D01*
X0383139Y0025552D01*
X0383083Y0025485D01*
X0383023Y0025419D01*
X0382961Y0025357D01*
X0382895Y0025297D01*
X0382828Y0025241D01*
X0382757Y0025187D01*
X0382685Y0025137D01*
X0382610Y0025090D01*
X0382533Y0025046D01*
X0382454Y0025006D01*
X0382374Y0024969D01*
X0382292Y0024937D01*
X0382208Y0024907D01*
X0382124Y0024882D01*
X0382038Y0024860D01*
X0381952Y0024843D01*
X0381864Y0024829D01*
X0381776Y0024819D01*
X0381688Y0024813D01*
X0381600Y0024811D01*
X0381512Y0024813D01*
X0381424Y0024819D01*
X0381336Y0024829D01*
X0381248Y0024843D01*
X0381162Y0024860D01*
X0381076Y0024882D01*
X0380992Y0024907D01*
X0380908Y0024937D01*
X0380826Y0024969D01*
X0380746Y0025006D01*
X0380667Y0025046D01*
X0380590Y0025090D01*
X0380515Y0025137D01*
X0380443Y0025187D01*
X0380372Y0025241D01*
X0380305Y0025297D01*
X0380239Y0025357D01*
X0380177Y0025419D01*
X0380117Y0025485D01*
X0380061Y0025552D01*
X0380007Y0025623D01*
X0379957Y0025695D01*
X0379910Y0025770D01*
X0379866Y0025847D01*
X0379826Y0025926D01*
X0379789Y0026006D01*
X0379757Y0026088D01*
X0379727Y0026172D01*
X0379702Y0026256D01*
X0379680Y0026342D01*
X0379663Y0026428D01*
X0379649Y0026516D01*
X0379639Y0026604D01*
X0379633Y0026692D01*
X0379631Y0026780D01*
X0387900Y0014969D02*
X0387902Y0015117D01*
X0387908Y0015265D01*
X0387918Y0015413D01*
X0387932Y0015560D01*
X0387950Y0015707D01*
X0387971Y0015853D01*
X0387997Y0015999D01*
X0388027Y0016144D01*
X0388060Y0016288D01*
X0388098Y0016431D01*
X0388139Y0016573D01*
X0388184Y0016714D01*
X0388232Y0016854D01*
X0388285Y0016993D01*
X0388341Y0017130D01*
X0388401Y0017265D01*
X0388464Y0017399D01*
X0388531Y0017531D01*
X0388602Y0017661D01*
X0388676Y0017789D01*
X0388753Y0017915D01*
X0388834Y0018039D01*
X0388918Y0018161D01*
X0389005Y0018280D01*
X0389096Y0018397D01*
X0389190Y0018512D01*
X0389286Y0018624D01*
X0389386Y0018734D01*
X0389488Y0018840D01*
X0389594Y0018944D01*
X0389702Y0019045D01*
X0389813Y0019143D01*
X0389926Y0019239D01*
X0390042Y0019331D01*
X0390160Y0019420D01*
X0390281Y0019505D01*
X0390404Y0019588D01*
X0390529Y0019667D01*
X0390656Y0019743D01*
X0390785Y0019815D01*
X0390916Y0019884D01*
X0391049Y0019949D01*
X0391184Y0020010D01*
X0391320Y0020068D01*
X0391457Y0020123D01*
X0391596Y0020173D01*
X0391737Y0020220D01*
X0391878Y0020263D01*
X0392021Y0020303D01*
X0392165Y0020338D01*
X0392309Y0020370D01*
X0392455Y0020397D01*
X0392601Y0020421D01*
X0392748Y0020441D01*
X0392895Y0020457D01*
X0393042Y0020469D01*
X0393190Y0020477D01*
X0393338Y0020481D01*
X0393486Y0020481D01*
X0393634Y0020477D01*
X0393782Y0020469D01*
X0393929Y0020457D01*
X0394076Y0020441D01*
X0394223Y0020421D01*
X0394369Y0020397D01*
X0394515Y0020370D01*
X0394659Y0020338D01*
X0394803Y0020303D01*
X0394946Y0020263D01*
X0395087Y0020220D01*
X0395228Y0020173D01*
X0395367Y0020123D01*
X0395504Y0020068D01*
X0395640Y0020010D01*
X0395775Y0019949D01*
X0395908Y0019884D01*
X0396039Y0019815D01*
X0396168Y0019743D01*
X0396295Y0019667D01*
X0396420Y0019588D01*
X0396543Y0019505D01*
X0396664Y0019420D01*
X0396782Y0019331D01*
X0396898Y0019239D01*
X0397011Y0019143D01*
X0397122Y0019045D01*
X0397230Y0018944D01*
X0397336Y0018840D01*
X0397438Y0018734D01*
X0397538Y0018624D01*
X0397634Y0018512D01*
X0397728Y0018397D01*
X0397819Y0018280D01*
X0397906Y0018161D01*
X0397990Y0018039D01*
X0398071Y0017915D01*
X0398148Y0017789D01*
X0398222Y0017661D01*
X0398293Y0017531D01*
X0398360Y0017399D01*
X0398423Y0017265D01*
X0398483Y0017130D01*
X0398539Y0016993D01*
X0398592Y0016854D01*
X0398640Y0016714D01*
X0398685Y0016573D01*
X0398726Y0016431D01*
X0398764Y0016288D01*
X0398797Y0016144D01*
X0398827Y0015999D01*
X0398853Y0015853D01*
X0398874Y0015707D01*
X0398892Y0015560D01*
X0398906Y0015413D01*
X0398916Y0015265D01*
X0398922Y0015117D01*
X0398924Y0014969D01*
X0398922Y0014821D01*
X0398916Y0014673D01*
X0398906Y0014525D01*
X0398892Y0014378D01*
X0398874Y0014231D01*
X0398853Y0014085D01*
X0398827Y0013939D01*
X0398797Y0013794D01*
X0398764Y0013650D01*
X0398726Y0013507D01*
X0398685Y0013365D01*
X0398640Y0013224D01*
X0398592Y0013084D01*
X0398539Y0012945D01*
X0398483Y0012808D01*
X0398423Y0012673D01*
X0398360Y0012539D01*
X0398293Y0012407D01*
X0398222Y0012277D01*
X0398148Y0012149D01*
X0398071Y0012023D01*
X0397990Y0011899D01*
X0397906Y0011777D01*
X0397819Y0011658D01*
X0397728Y0011541D01*
X0397634Y0011426D01*
X0397538Y0011314D01*
X0397438Y0011204D01*
X0397336Y0011098D01*
X0397230Y0010994D01*
X0397122Y0010893D01*
X0397011Y0010795D01*
X0396898Y0010699D01*
X0396782Y0010607D01*
X0396664Y0010518D01*
X0396543Y0010433D01*
X0396420Y0010350D01*
X0396295Y0010271D01*
X0396168Y0010195D01*
X0396039Y0010123D01*
X0395908Y0010054D01*
X0395775Y0009989D01*
X0395640Y0009928D01*
X0395504Y0009870D01*
X0395367Y0009815D01*
X0395228Y0009765D01*
X0395087Y0009718D01*
X0394946Y0009675D01*
X0394803Y0009635D01*
X0394659Y0009600D01*
X0394515Y0009568D01*
X0394369Y0009541D01*
X0394223Y0009517D01*
X0394076Y0009497D01*
X0393929Y0009481D01*
X0393782Y0009469D01*
X0393634Y0009461D01*
X0393486Y0009457D01*
X0393338Y0009457D01*
X0393190Y0009461D01*
X0393042Y0009469D01*
X0392895Y0009481D01*
X0392748Y0009497D01*
X0392601Y0009517D01*
X0392455Y0009541D01*
X0392309Y0009568D01*
X0392165Y0009600D01*
X0392021Y0009635D01*
X0391878Y0009675D01*
X0391737Y0009718D01*
X0391596Y0009765D01*
X0391457Y0009815D01*
X0391320Y0009870D01*
X0391184Y0009928D01*
X0391049Y0009989D01*
X0390916Y0010054D01*
X0390785Y0010123D01*
X0390656Y0010195D01*
X0390529Y0010271D01*
X0390404Y0010350D01*
X0390281Y0010433D01*
X0390160Y0010518D01*
X0390042Y0010607D01*
X0389926Y0010699D01*
X0389813Y0010795D01*
X0389702Y0010893D01*
X0389594Y0010994D01*
X0389488Y0011098D01*
X0389386Y0011204D01*
X0389286Y0011314D01*
X0389190Y0011426D01*
X0389096Y0011541D01*
X0389005Y0011658D01*
X0388918Y0011777D01*
X0388834Y0011899D01*
X0388753Y0012023D01*
X0388676Y0012149D01*
X0388602Y0012277D01*
X0388531Y0012407D01*
X0388464Y0012539D01*
X0388401Y0012673D01*
X0388341Y0012808D01*
X0388285Y0012945D01*
X0388232Y0013084D01*
X0388184Y0013224D01*
X0388139Y0013365D01*
X0388098Y0013507D01*
X0388060Y0013650D01*
X0388027Y0013794D01*
X0387997Y0013939D01*
X0387971Y0014085D01*
X0387950Y0014231D01*
X0387932Y0014378D01*
X0387918Y0014525D01*
X0387908Y0014673D01*
X0387902Y0014821D01*
X0387900Y0014969D01*
D11*
X0393412Y0014969D03*
X0039081Y0014969D03*
X0039081Y0266937D03*
X0393412Y0266937D03*
D12*
X0381600Y0245283D03*
X0381600Y0026780D03*
X0050892Y0026780D03*
X0050892Y0245283D03*
D13*
X0053356Y0069378D02*
X0057719Y0069378D01*
X0041262Y0069378D02*
X0036900Y0069378D01*
X0036900Y0035362D02*
X0041262Y0035362D01*
X0053356Y0035362D02*
X0057719Y0035362D01*
D14*
X0053569Y0040992D03*
X0053569Y0063748D03*
D15*
X0046955Y0225598D03*
X0035144Y0225598D03*
D16*
X0058215Y0015575D02*
X0058215Y0010425D01*
X0068215Y0010425D02*
X0068215Y0015575D01*
X0078215Y0015575D02*
X0078215Y0010425D01*
X0088215Y0010425D02*
X0088215Y0015575D01*
X0098215Y0015575D02*
X0098215Y0010425D01*
X0108215Y0010425D02*
X0108215Y0015575D01*
X0118215Y0015575D02*
X0118215Y0010425D01*
X0218215Y0010425D02*
X0218215Y0015575D01*
X0228215Y0015575D02*
X0228215Y0010425D01*
X0238215Y0010425D02*
X0238215Y0015575D01*
X0248215Y0015575D02*
X0248215Y0010425D01*
X0258215Y0010425D02*
X0258215Y0015575D01*
X0268215Y0015575D02*
X0268215Y0010425D01*
X0278215Y0010425D02*
X0278215Y0015575D01*
X0288215Y0015575D02*
X0288215Y0010425D01*
X0298215Y0010425D02*
X0298215Y0015575D01*
X0308215Y0015575D02*
X0308215Y0010425D01*
X0318215Y0010425D02*
X0318215Y0015575D01*
X0328215Y0015575D02*
X0328215Y0010425D01*
X0338215Y0010425D02*
X0338215Y0015575D01*
X0348215Y0015575D02*
X0348215Y0010425D01*
X0358215Y0010425D02*
X0358215Y0015575D01*
X0368215Y0015575D02*
X0368215Y0010425D01*
M02*
